M48
; DRILL file {KiCad (5.1.2)-2} date 10.09.2020 18:10:34
; FORMAT={-:-/ absolute / inch / decimal}
; #@! TF.CreationDate,2020-09-10T18:10:34+02:00
; #@! TF.GenerationSoftware,Kicad,Pcbnew,(5.1.2)-2
FMAT,2
INCH
T1C0.0157
T2C0.0315
T3C0.0394
T4C0.0433
T5C0.0472
T6C0.0551
%
G90
G05
T1
X5.4255Y-4.297
X5.4705Y-4.172
X5.5765Y-3.7748
X5.6655Y-4.212
X5.7015Y-3.5655
X5.7505Y-3.892
X5.7505Y-3.982
X5.7505Y-4.072
X5.7505Y-4.262
X5.7505Y-4.407
X5.7635Y-3.5005
X5.7735Y-2.787
X5.7735Y-2.978
X6.0055Y-4.127
X6.0055Y-4.217
X6.0105Y-3.8236
X6.1105Y-4.437
X6.1405Y-3.662
X6.1755Y-3.767
X6.1755Y-4.672
X6.1755Y-4.757
X6.2105Y-3.247
X6.2205Y-4.437
X6.2505Y-3.982
X6.252Y-4.057
X6.2855Y-3.662
X6.3005Y-3.392
X6.3455Y-4.377
X6.3455Y-4.437
X6.3455Y-4.497
X6.3455Y-4.557
X6.3555Y-3.787
X6.3555Y-3.847
X6.3555Y-3.907
X6.3555Y-3.967
X6.4055Y-4.377
X6.4055Y-4.437
X6.4055Y-4.497
X6.4055Y-4.557
X6.4155Y-3.787
X6.4155Y-3.847
X6.4155Y-3.907
X6.4155Y-3.967
X6.4655Y-4.377
X6.4655Y-4.437
X6.4655Y-4.497
X6.4655Y-4.557
X6.4755Y-3.787
X6.4755Y-3.847
X6.4755Y-3.907
X6.4755Y-3.967
X6.5255Y-4.377
X6.5255Y-4.437
X6.5255Y-4.497
X6.5255Y-4.557
X6.5355Y-3.787
X6.5355Y-3.847
X6.5355Y-3.907
X6.5355Y-3.967
T2
X5.5155Y-3.657
X5.8155Y-3.657
X4.9311Y-3.6148
X5.065Y-3.3195
T3
X5.027Y-4.533
X5.2605Y-4.1932
X5.3325Y-3.154
X5.8755Y-3.477
X5.9755Y-3.477
X6.0755Y-3.477
X6.1755Y-3.477
X6.396Y-4.6935
X6.496Y-4.6935
T4
X6.7005Y-4.4361
X6.7005Y-4.692
X6.8777Y-4.4361
X6.8777Y-4.692
X6.3553Y-3.5943
X6.4455Y-3.5943
X6.5357Y-3.5943
X7.0555Y-4.4361
X7.0555Y-4.692
X7.2327Y-4.4361
X7.2327Y-4.692
X6.3455Y-4.187
X6.4357Y-4.187
X6.5258Y-4.187
T5
X5.235Y-2.9831
X5.235Y-3.4634
X5.4712Y-3.5421
X5.7075Y-2.9831
X5.7075Y-3.4634
X5.065Y-2.826
X5.065Y-3.026
T6
X4.679Y-2.889
X4.679Y-3.089
X4.679Y-3.289
X4.679Y-4.326
X4.679Y-4.5229
X4.6785Y-3.608
X4.6785Y-3.808
X4.6785Y-4.008
T2
G00X6.7355Y-4.2182
M15
G01X6.7355Y-4.1158
M16
G05
G00X6.8969Y-3.978
M15
G01X6.8103Y-3.978
M16
G05
G00X6.9638Y-4.2103
M15
G01X6.9638Y-4.1237
M16
G05
G00X6.7355Y-3.7182
M15
G01X6.7355Y-3.6158
M16
G05
G00X6.8969Y-3.478
M15
G01X6.8103Y-3.478
M16
G05
G00X6.9638Y-3.7103
M15
G01X6.9638Y-3.6237
M16
G05
G00X6.3965Y-3.1156
M15
G01X6.3965Y-3.2022
M16
G05
G00X6.6288Y-3.0487
M15
G01X6.5422Y-3.0487
M16
G05
G00X6.6367Y-3.277
M15
G01X6.5343Y-3.277
M16
G05
G00X6.8965Y-3.1156
M15
G01X6.8965Y-3.2022
M16
G05
G00X7.1288Y-3.0487
M15
G01X7.0422Y-3.0487
M16
G05
G00X7.1367Y-3.277
M15
G01X7.0343Y-3.277
M16
G05
G00X5.8965Y-3.1156
M15
G01X5.8965Y-3.2022
M16
G05
G00X6.1288Y-3.0487
M15
G01X6.0422Y-3.0487
M16
G05
G00X6.1367Y-3.277
M15
G01X6.0343Y-3.277
M16
G05
T0
M30
