G04 #@! TF.GenerationSoftware,KiCad,Pcbnew,(5.1.2)-2*
G04 #@! TF.CreationDate,2020-09-10T18:09:44+02:00*
G04 #@! TF.ProjectId,enclosure_helper,656e636c-6f73-4757-9265-5f68656c7065,rev?*
G04 #@! TF.SameCoordinates,Original*
G04 #@! TF.FileFunction,Paste,Bot*
G04 #@! TF.FilePolarity,Positive*
%FSLAX46Y46*%
G04 Gerber Fmt 4.6, Leading zero omitted, Abs format (unit mm)*
G04 Created by KiCad (PCBNEW (5.1.2)-2) date 2020-09-10 18:09:44*
%MOMM*%
%LPD*%
G04 APERTURE LIST*
%ADD10C,0.750000*%
%ADD11C,0.100000*%
%ADD12R,2.000000X4.000000*%
%ADD13R,1.000000X2.500000*%
%ADD14C,0.550000*%
%ADD15C,1.425000*%
%ADD16R,1.200000X0.900000*%
%ADD17R,5.700000X6.200000*%
G04 APERTURE END LIST*
D10*
X137883900Y-74917800D03*
D11*
G36*
X137383900Y-75292800D02*
G01*
X136883900Y-74542800D01*
X138883900Y-74542800D01*
X138383900Y-75292800D01*
X137383900Y-75292800D01*
X137383900Y-75292800D01*
G37*
D12*
X137883900Y-72567800D03*
D13*
X136383900Y-76527800D03*
X137883900Y-76527800D03*
X139383900Y-76527800D03*
D11*
G36*
X146581977Y-77526262D02*
G01*
X146595325Y-77528242D01*
X146608414Y-77531521D01*
X146621119Y-77536067D01*
X146633317Y-77541836D01*
X146644891Y-77548773D01*
X146655729Y-77556811D01*
X146665727Y-77565873D01*
X146674789Y-77575871D01*
X146682827Y-77586709D01*
X146689764Y-77598283D01*
X146695533Y-77610481D01*
X146700079Y-77623186D01*
X146703358Y-77636275D01*
X146705338Y-77649623D01*
X146706000Y-77663100D01*
X146706000Y-78838100D01*
X146705338Y-78851577D01*
X146703358Y-78864925D01*
X146700079Y-78878014D01*
X146695533Y-78890719D01*
X146689764Y-78902917D01*
X146682827Y-78914491D01*
X146674789Y-78925329D01*
X146665727Y-78935327D01*
X146655729Y-78944389D01*
X146644891Y-78952427D01*
X146633317Y-78959364D01*
X146621119Y-78965133D01*
X146608414Y-78969679D01*
X146595325Y-78972958D01*
X146581977Y-78974938D01*
X146568500Y-78975600D01*
X146293500Y-78975600D01*
X146280023Y-78974938D01*
X146266675Y-78972958D01*
X146253586Y-78969679D01*
X146240881Y-78965133D01*
X146228683Y-78959364D01*
X146217109Y-78952427D01*
X146206271Y-78944389D01*
X146196273Y-78935327D01*
X146187211Y-78925329D01*
X146179173Y-78914491D01*
X146172236Y-78902917D01*
X146166467Y-78890719D01*
X146161921Y-78878014D01*
X146158642Y-78864925D01*
X146156662Y-78851577D01*
X146156000Y-78838100D01*
X146156000Y-77663100D01*
X146156662Y-77649623D01*
X146158642Y-77636275D01*
X146161921Y-77623186D01*
X146166467Y-77610481D01*
X146172236Y-77598283D01*
X146179173Y-77586709D01*
X146187211Y-77575871D01*
X146196273Y-77565873D01*
X146206271Y-77556811D01*
X146217109Y-77548773D01*
X146228683Y-77541836D01*
X146240881Y-77536067D01*
X146253586Y-77531521D01*
X146266675Y-77528242D01*
X146280023Y-77526262D01*
X146293500Y-77525600D01*
X146568500Y-77525600D01*
X146581977Y-77526262D01*
X146581977Y-77526262D01*
G37*
D14*
X146431000Y-78250600D03*
D11*
G36*
X144041977Y-77526262D02*
G01*
X144055325Y-77528242D01*
X144068414Y-77531521D01*
X144081119Y-77536067D01*
X144093317Y-77541836D01*
X144104891Y-77548773D01*
X144115729Y-77556811D01*
X144125727Y-77565873D01*
X144134789Y-77575871D01*
X144142827Y-77586709D01*
X144149764Y-77598283D01*
X144155533Y-77610481D01*
X144160079Y-77623186D01*
X144163358Y-77636275D01*
X144165338Y-77649623D01*
X144166000Y-77663100D01*
X144166000Y-78838100D01*
X144165338Y-78851577D01*
X144163358Y-78864925D01*
X144160079Y-78878014D01*
X144155533Y-78890719D01*
X144149764Y-78902917D01*
X144142827Y-78914491D01*
X144134789Y-78925329D01*
X144125727Y-78935327D01*
X144115729Y-78944389D01*
X144104891Y-78952427D01*
X144093317Y-78959364D01*
X144081119Y-78965133D01*
X144068414Y-78969679D01*
X144055325Y-78972958D01*
X144041977Y-78974938D01*
X144028500Y-78975600D01*
X143753500Y-78975600D01*
X143740023Y-78974938D01*
X143726675Y-78972958D01*
X143713586Y-78969679D01*
X143700881Y-78965133D01*
X143688683Y-78959364D01*
X143677109Y-78952427D01*
X143666271Y-78944389D01*
X143656273Y-78935327D01*
X143647211Y-78925329D01*
X143639173Y-78914491D01*
X143632236Y-78902917D01*
X143626467Y-78890719D01*
X143621921Y-78878014D01*
X143618642Y-78864925D01*
X143616662Y-78851577D01*
X143616000Y-78838100D01*
X143616000Y-77663100D01*
X143616662Y-77649623D01*
X143618642Y-77636275D01*
X143621921Y-77623186D01*
X143626467Y-77610481D01*
X143632236Y-77598283D01*
X143639173Y-77586709D01*
X143647211Y-77575871D01*
X143656273Y-77565873D01*
X143666271Y-77556811D01*
X143677109Y-77548773D01*
X143688683Y-77541836D01*
X143700881Y-77536067D01*
X143713586Y-77531521D01*
X143726675Y-77528242D01*
X143740023Y-77526262D01*
X143753500Y-77525600D01*
X144028500Y-77525600D01*
X144041977Y-77526262D01*
X144041977Y-77526262D01*
G37*
D14*
X143891000Y-78250600D03*
D11*
G36*
X144041977Y-83026262D02*
G01*
X144055325Y-83028242D01*
X144068414Y-83031521D01*
X144081119Y-83036067D01*
X144093317Y-83041836D01*
X144104891Y-83048773D01*
X144115729Y-83056811D01*
X144125727Y-83065873D01*
X144134789Y-83075871D01*
X144142827Y-83086709D01*
X144149764Y-83098283D01*
X144155533Y-83110481D01*
X144160079Y-83123186D01*
X144163358Y-83136275D01*
X144165338Y-83149623D01*
X144166000Y-83163100D01*
X144166000Y-84338100D01*
X144165338Y-84351577D01*
X144163358Y-84364925D01*
X144160079Y-84378014D01*
X144155533Y-84390719D01*
X144149764Y-84402917D01*
X144142827Y-84414491D01*
X144134789Y-84425329D01*
X144125727Y-84435327D01*
X144115729Y-84444389D01*
X144104891Y-84452427D01*
X144093317Y-84459364D01*
X144081119Y-84465133D01*
X144068414Y-84469679D01*
X144055325Y-84472958D01*
X144041977Y-84474938D01*
X144028500Y-84475600D01*
X143753500Y-84475600D01*
X143740023Y-84474938D01*
X143726675Y-84472958D01*
X143713586Y-84469679D01*
X143700881Y-84465133D01*
X143688683Y-84459364D01*
X143677109Y-84452427D01*
X143666271Y-84444389D01*
X143656273Y-84435327D01*
X143647211Y-84425329D01*
X143639173Y-84414491D01*
X143632236Y-84402917D01*
X143626467Y-84390719D01*
X143621921Y-84378014D01*
X143618642Y-84364925D01*
X143616662Y-84351577D01*
X143616000Y-84338100D01*
X143616000Y-83163100D01*
X143616662Y-83149623D01*
X143618642Y-83136275D01*
X143621921Y-83123186D01*
X143626467Y-83110481D01*
X143632236Y-83098283D01*
X143639173Y-83086709D01*
X143647211Y-83075871D01*
X143656273Y-83065873D01*
X143666271Y-83056811D01*
X143677109Y-83048773D01*
X143688683Y-83041836D01*
X143700881Y-83036067D01*
X143713586Y-83031521D01*
X143726675Y-83028242D01*
X143740023Y-83026262D01*
X143753500Y-83025600D01*
X144028500Y-83025600D01*
X144041977Y-83026262D01*
X144041977Y-83026262D01*
G37*
D14*
X143891000Y-83750600D03*
D11*
G36*
X146581977Y-83026262D02*
G01*
X146595325Y-83028242D01*
X146608414Y-83031521D01*
X146621119Y-83036067D01*
X146633317Y-83041836D01*
X146644891Y-83048773D01*
X146655729Y-83056811D01*
X146665727Y-83065873D01*
X146674789Y-83075871D01*
X146682827Y-83086709D01*
X146689764Y-83098283D01*
X146695533Y-83110481D01*
X146700079Y-83123186D01*
X146703358Y-83136275D01*
X146705338Y-83149623D01*
X146706000Y-83163100D01*
X146706000Y-84338100D01*
X146705338Y-84351577D01*
X146703358Y-84364925D01*
X146700079Y-84378014D01*
X146695533Y-84390719D01*
X146689764Y-84402917D01*
X146682827Y-84414491D01*
X146674789Y-84425329D01*
X146665727Y-84435327D01*
X146655729Y-84444389D01*
X146644891Y-84452427D01*
X146633317Y-84459364D01*
X146621119Y-84465133D01*
X146608414Y-84469679D01*
X146595325Y-84472958D01*
X146581977Y-84474938D01*
X146568500Y-84475600D01*
X146293500Y-84475600D01*
X146280023Y-84474938D01*
X146266675Y-84472958D01*
X146253586Y-84469679D01*
X146240881Y-84465133D01*
X146228683Y-84459364D01*
X146217109Y-84452427D01*
X146206271Y-84444389D01*
X146196273Y-84435327D01*
X146187211Y-84425329D01*
X146179173Y-84414491D01*
X146172236Y-84402917D01*
X146166467Y-84390719D01*
X146161921Y-84378014D01*
X146158642Y-84364925D01*
X146156662Y-84351577D01*
X146156000Y-84338100D01*
X146156000Y-83163100D01*
X146156662Y-83149623D01*
X146158642Y-83136275D01*
X146161921Y-83123186D01*
X146166467Y-83110481D01*
X146172236Y-83098283D01*
X146179173Y-83086709D01*
X146187211Y-83075871D01*
X146196273Y-83065873D01*
X146206271Y-83056811D01*
X146217109Y-83048773D01*
X146228683Y-83041836D01*
X146240881Y-83036067D01*
X146253586Y-83031521D01*
X146266675Y-83028242D01*
X146280023Y-83026262D01*
X146293500Y-83025600D01*
X146568500Y-83025600D01*
X146581977Y-83026262D01*
X146581977Y-83026262D01*
G37*
D14*
X146431000Y-83750600D03*
D11*
G36*
X142965704Y-73307504D02*
G01*
X142989973Y-73311104D01*
X143013771Y-73317065D01*
X143036871Y-73325330D01*
X143059049Y-73335820D01*
X143080093Y-73348433D01*
X143099798Y-73363047D01*
X143117977Y-73379523D01*
X143134453Y-73397702D01*
X143149067Y-73417407D01*
X143161680Y-73438451D01*
X143172170Y-73460629D01*
X143180435Y-73483729D01*
X143186396Y-73507527D01*
X143189996Y-73531796D01*
X143191200Y-73556300D01*
X143191200Y-74481300D01*
X143189996Y-74505804D01*
X143186396Y-74530073D01*
X143180435Y-74553871D01*
X143172170Y-74576971D01*
X143161680Y-74599149D01*
X143149067Y-74620193D01*
X143134453Y-74639898D01*
X143117977Y-74658077D01*
X143099798Y-74674553D01*
X143080093Y-74689167D01*
X143059049Y-74701780D01*
X143036871Y-74712270D01*
X143013771Y-74720535D01*
X142989973Y-74726496D01*
X142965704Y-74730096D01*
X142941200Y-74731300D01*
X141691200Y-74731300D01*
X141666696Y-74730096D01*
X141642427Y-74726496D01*
X141618629Y-74720535D01*
X141595529Y-74712270D01*
X141573351Y-74701780D01*
X141552307Y-74689167D01*
X141532602Y-74674553D01*
X141514423Y-74658077D01*
X141497947Y-74639898D01*
X141483333Y-74620193D01*
X141470720Y-74599149D01*
X141460230Y-74576971D01*
X141451965Y-74553871D01*
X141446004Y-74530073D01*
X141442404Y-74505804D01*
X141441200Y-74481300D01*
X141441200Y-73556300D01*
X141442404Y-73531796D01*
X141446004Y-73507527D01*
X141451965Y-73483729D01*
X141460230Y-73460629D01*
X141470720Y-73438451D01*
X141483333Y-73417407D01*
X141497947Y-73397702D01*
X141514423Y-73379523D01*
X141532602Y-73363047D01*
X141552307Y-73348433D01*
X141573351Y-73335820D01*
X141595529Y-73325330D01*
X141618629Y-73317065D01*
X141642427Y-73311104D01*
X141666696Y-73307504D01*
X141691200Y-73306300D01*
X142941200Y-73306300D01*
X142965704Y-73307504D01*
X142965704Y-73307504D01*
G37*
D15*
X142316200Y-74018800D03*
D11*
G36*
X142965704Y-70332504D02*
G01*
X142989973Y-70336104D01*
X143013771Y-70342065D01*
X143036871Y-70350330D01*
X143059049Y-70360820D01*
X143080093Y-70373433D01*
X143099798Y-70388047D01*
X143117977Y-70404523D01*
X143134453Y-70422702D01*
X143149067Y-70442407D01*
X143161680Y-70463451D01*
X143172170Y-70485629D01*
X143180435Y-70508729D01*
X143186396Y-70532527D01*
X143189996Y-70556796D01*
X143191200Y-70581300D01*
X143191200Y-71506300D01*
X143189996Y-71530804D01*
X143186396Y-71555073D01*
X143180435Y-71578871D01*
X143172170Y-71601971D01*
X143161680Y-71624149D01*
X143149067Y-71645193D01*
X143134453Y-71664898D01*
X143117977Y-71683077D01*
X143099798Y-71699553D01*
X143080093Y-71714167D01*
X143059049Y-71726780D01*
X143036871Y-71737270D01*
X143013771Y-71745535D01*
X142989973Y-71751496D01*
X142965704Y-71755096D01*
X142941200Y-71756300D01*
X141691200Y-71756300D01*
X141666696Y-71755096D01*
X141642427Y-71751496D01*
X141618629Y-71745535D01*
X141595529Y-71737270D01*
X141573351Y-71726780D01*
X141552307Y-71714167D01*
X141532602Y-71699553D01*
X141514423Y-71683077D01*
X141497947Y-71664898D01*
X141483333Y-71645193D01*
X141470720Y-71624149D01*
X141460230Y-71601971D01*
X141451965Y-71578871D01*
X141446004Y-71555073D01*
X141442404Y-71530804D01*
X141441200Y-71506300D01*
X141441200Y-70581300D01*
X141442404Y-70556796D01*
X141446004Y-70532527D01*
X141451965Y-70508729D01*
X141460230Y-70485629D01*
X141470720Y-70463451D01*
X141483333Y-70442407D01*
X141497947Y-70422702D01*
X141514423Y-70404523D01*
X141532602Y-70388047D01*
X141552307Y-70373433D01*
X141573351Y-70360820D01*
X141595529Y-70350330D01*
X141618629Y-70342065D01*
X141642427Y-70336104D01*
X141666696Y-70332504D01*
X141691200Y-70331300D01*
X142941200Y-70331300D01*
X142965704Y-70332504D01*
X142965704Y-70332504D01*
G37*
D15*
X142316200Y-71043800D03*
D11*
G36*
X145785104Y-69846704D02*
G01*
X145809373Y-69850304D01*
X145833171Y-69856265D01*
X145856271Y-69864530D01*
X145878449Y-69875020D01*
X145899493Y-69887633D01*
X145919198Y-69902247D01*
X145937377Y-69918723D01*
X145953853Y-69936902D01*
X145968467Y-69956607D01*
X145981080Y-69977651D01*
X145991570Y-69999829D01*
X145999835Y-70022929D01*
X146005796Y-70046727D01*
X146009396Y-70070996D01*
X146010600Y-70095500D01*
X146010600Y-71020500D01*
X146009396Y-71045004D01*
X146005796Y-71069273D01*
X145999835Y-71093071D01*
X145991570Y-71116171D01*
X145981080Y-71138349D01*
X145968467Y-71159393D01*
X145953853Y-71179098D01*
X145937377Y-71197277D01*
X145919198Y-71213753D01*
X145899493Y-71228367D01*
X145878449Y-71240980D01*
X145856271Y-71251470D01*
X145833171Y-71259735D01*
X145809373Y-71265696D01*
X145785104Y-71269296D01*
X145760600Y-71270500D01*
X144510600Y-71270500D01*
X144486096Y-71269296D01*
X144461827Y-71265696D01*
X144438029Y-71259735D01*
X144414929Y-71251470D01*
X144392751Y-71240980D01*
X144371707Y-71228367D01*
X144352002Y-71213753D01*
X144333823Y-71197277D01*
X144317347Y-71179098D01*
X144302733Y-71159393D01*
X144290120Y-71138349D01*
X144279630Y-71116171D01*
X144271365Y-71093071D01*
X144265404Y-71069273D01*
X144261804Y-71045004D01*
X144260600Y-71020500D01*
X144260600Y-70095500D01*
X144261804Y-70070996D01*
X144265404Y-70046727D01*
X144271365Y-70022929D01*
X144279630Y-69999829D01*
X144290120Y-69977651D01*
X144302733Y-69956607D01*
X144317347Y-69936902D01*
X144333823Y-69918723D01*
X144352002Y-69902247D01*
X144371707Y-69887633D01*
X144392751Y-69875020D01*
X144414929Y-69864530D01*
X144438029Y-69856265D01*
X144461827Y-69850304D01*
X144486096Y-69846704D01*
X144510600Y-69845500D01*
X145760600Y-69845500D01*
X145785104Y-69846704D01*
X145785104Y-69846704D01*
G37*
D15*
X145135600Y-70558000D03*
D11*
G36*
X145785104Y-72821704D02*
G01*
X145809373Y-72825304D01*
X145833171Y-72831265D01*
X145856271Y-72839530D01*
X145878449Y-72850020D01*
X145899493Y-72862633D01*
X145919198Y-72877247D01*
X145937377Y-72893723D01*
X145953853Y-72911902D01*
X145968467Y-72931607D01*
X145981080Y-72952651D01*
X145991570Y-72974829D01*
X145999835Y-72997929D01*
X146005796Y-73021727D01*
X146009396Y-73045996D01*
X146010600Y-73070500D01*
X146010600Y-73995500D01*
X146009396Y-74020004D01*
X146005796Y-74044273D01*
X145999835Y-74068071D01*
X145991570Y-74091171D01*
X145981080Y-74113349D01*
X145968467Y-74134393D01*
X145953853Y-74154098D01*
X145937377Y-74172277D01*
X145919198Y-74188753D01*
X145899493Y-74203367D01*
X145878449Y-74215980D01*
X145856271Y-74226470D01*
X145833171Y-74234735D01*
X145809373Y-74240696D01*
X145785104Y-74244296D01*
X145760600Y-74245500D01*
X144510600Y-74245500D01*
X144486096Y-74244296D01*
X144461827Y-74240696D01*
X144438029Y-74234735D01*
X144414929Y-74226470D01*
X144392751Y-74215980D01*
X144371707Y-74203367D01*
X144352002Y-74188753D01*
X144333823Y-74172277D01*
X144317347Y-74154098D01*
X144302733Y-74134393D01*
X144290120Y-74113349D01*
X144279630Y-74091171D01*
X144271365Y-74068071D01*
X144265404Y-74044273D01*
X144261804Y-74020004D01*
X144260600Y-73995500D01*
X144260600Y-73070500D01*
X144261804Y-73045996D01*
X144265404Y-73021727D01*
X144271365Y-72997929D01*
X144279630Y-72974829D01*
X144290120Y-72952651D01*
X144302733Y-72931607D01*
X144317347Y-72911902D01*
X144333823Y-72893723D01*
X144352002Y-72877247D01*
X144371707Y-72862633D01*
X144392751Y-72850020D01*
X144414929Y-72839530D01*
X144438029Y-72831265D01*
X144461827Y-72825304D01*
X144486096Y-72821704D01*
X144510600Y-72820500D01*
X145760600Y-72820500D01*
X145785104Y-72821704D01*
X145785104Y-72821704D01*
G37*
D15*
X145135600Y-73533000D03*
D16*
X137248900Y-113690400D03*
X137248900Y-110390400D03*
X134924800Y-112966500D03*
X134924800Y-109666500D03*
D17*
X163715700Y-98729800D03*
X163465700Y-113783133D03*
D11*
G36*
X151729704Y-96268504D02*
G01*
X151753973Y-96272104D01*
X151777771Y-96278065D01*
X151800871Y-96286330D01*
X151823049Y-96296820D01*
X151844093Y-96309433D01*
X151863798Y-96324047D01*
X151881977Y-96340523D01*
X151898453Y-96358702D01*
X151913067Y-96378407D01*
X151925680Y-96399451D01*
X151936170Y-96421629D01*
X151944435Y-96444729D01*
X151950396Y-96468527D01*
X151953996Y-96492796D01*
X151955200Y-96517300D01*
X151955200Y-97767300D01*
X151953996Y-97791804D01*
X151950396Y-97816073D01*
X151944435Y-97839871D01*
X151936170Y-97862971D01*
X151925680Y-97885149D01*
X151913067Y-97906193D01*
X151898453Y-97925898D01*
X151881977Y-97944077D01*
X151863798Y-97960553D01*
X151844093Y-97975167D01*
X151823049Y-97987780D01*
X151800871Y-97998270D01*
X151777771Y-98006535D01*
X151753973Y-98012496D01*
X151729704Y-98016096D01*
X151705200Y-98017300D01*
X150780200Y-98017300D01*
X150755696Y-98016096D01*
X150731427Y-98012496D01*
X150707629Y-98006535D01*
X150684529Y-97998270D01*
X150662351Y-97987780D01*
X150641307Y-97975167D01*
X150621602Y-97960553D01*
X150603423Y-97944077D01*
X150586947Y-97925898D01*
X150572333Y-97906193D01*
X150559720Y-97885149D01*
X150549230Y-97862971D01*
X150540965Y-97839871D01*
X150535004Y-97816073D01*
X150531404Y-97791804D01*
X150530200Y-97767300D01*
X150530200Y-96517300D01*
X150531404Y-96492796D01*
X150535004Y-96468527D01*
X150540965Y-96444729D01*
X150549230Y-96421629D01*
X150559720Y-96399451D01*
X150572333Y-96378407D01*
X150586947Y-96358702D01*
X150603423Y-96340523D01*
X150621602Y-96324047D01*
X150641307Y-96309433D01*
X150662351Y-96296820D01*
X150684529Y-96286330D01*
X150707629Y-96278065D01*
X150731427Y-96272104D01*
X150755696Y-96268504D01*
X150780200Y-96267300D01*
X151705200Y-96267300D01*
X151729704Y-96268504D01*
X151729704Y-96268504D01*
G37*
D15*
X151242700Y-97142300D03*
D11*
G36*
X154704704Y-96268504D02*
G01*
X154728973Y-96272104D01*
X154752771Y-96278065D01*
X154775871Y-96286330D01*
X154798049Y-96296820D01*
X154819093Y-96309433D01*
X154838798Y-96324047D01*
X154856977Y-96340523D01*
X154873453Y-96358702D01*
X154888067Y-96378407D01*
X154900680Y-96399451D01*
X154911170Y-96421629D01*
X154919435Y-96444729D01*
X154925396Y-96468527D01*
X154928996Y-96492796D01*
X154930200Y-96517300D01*
X154930200Y-97767300D01*
X154928996Y-97791804D01*
X154925396Y-97816073D01*
X154919435Y-97839871D01*
X154911170Y-97862971D01*
X154900680Y-97885149D01*
X154888067Y-97906193D01*
X154873453Y-97925898D01*
X154856977Y-97944077D01*
X154838798Y-97960553D01*
X154819093Y-97975167D01*
X154798049Y-97987780D01*
X154775871Y-97998270D01*
X154752771Y-98006535D01*
X154728973Y-98012496D01*
X154704704Y-98016096D01*
X154680200Y-98017300D01*
X153755200Y-98017300D01*
X153730696Y-98016096D01*
X153706427Y-98012496D01*
X153682629Y-98006535D01*
X153659529Y-97998270D01*
X153637351Y-97987780D01*
X153616307Y-97975167D01*
X153596602Y-97960553D01*
X153578423Y-97944077D01*
X153561947Y-97925898D01*
X153547333Y-97906193D01*
X153534720Y-97885149D01*
X153524230Y-97862971D01*
X153515965Y-97839871D01*
X153510004Y-97816073D01*
X153506404Y-97791804D01*
X153505200Y-97767300D01*
X153505200Y-96517300D01*
X153506404Y-96492796D01*
X153510004Y-96468527D01*
X153515965Y-96444729D01*
X153524230Y-96421629D01*
X153534720Y-96399451D01*
X153547333Y-96378407D01*
X153561947Y-96358702D01*
X153578423Y-96340523D01*
X153596602Y-96324047D01*
X153616307Y-96309433D01*
X153637351Y-96296820D01*
X153659529Y-96286330D01*
X153682629Y-96278065D01*
X153706427Y-96272104D01*
X153730696Y-96268504D01*
X153755200Y-96267300D01*
X154680200Y-96267300D01*
X154704704Y-96268504D01*
X154704704Y-96268504D01*
G37*
D15*
X154217700Y-97142300D03*
D11*
G36*
X165145704Y-87696004D02*
G01*
X165169973Y-87699604D01*
X165193771Y-87705565D01*
X165216871Y-87713830D01*
X165239049Y-87724320D01*
X165260093Y-87736933D01*
X165279798Y-87751547D01*
X165297977Y-87768023D01*
X165314453Y-87786202D01*
X165329067Y-87805907D01*
X165341680Y-87826951D01*
X165352170Y-87849129D01*
X165360435Y-87872229D01*
X165366396Y-87896027D01*
X165369996Y-87920296D01*
X165371200Y-87944800D01*
X165371200Y-89194800D01*
X165369996Y-89219304D01*
X165366396Y-89243573D01*
X165360435Y-89267371D01*
X165352170Y-89290471D01*
X165341680Y-89312649D01*
X165329067Y-89333693D01*
X165314453Y-89353398D01*
X165297977Y-89371577D01*
X165279798Y-89388053D01*
X165260093Y-89402667D01*
X165239049Y-89415280D01*
X165216871Y-89425770D01*
X165193771Y-89434035D01*
X165169973Y-89439996D01*
X165145704Y-89443596D01*
X165121200Y-89444800D01*
X164196200Y-89444800D01*
X164171696Y-89443596D01*
X164147427Y-89439996D01*
X164123629Y-89434035D01*
X164100529Y-89425770D01*
X164078351Y-89415280D01*
X164057307Y-89402667D01*
X164037602Y-89388053D01*
X164019423Y-89371577D01*
X164002947Y-89353398D01*
X163988333Y-89333693D01*
X163975720Y-89312649D01*
X163965230Y-89290471D01*
X163956965Y-89267371D01*
X163951004Y-89243573D01*
X163947404Y-89219304D01*
X163946200Y-89194800D01*
X163946200Y-87944800D01*
X163947404Y-87920296D01*
X163951004Y-87896027D01*
X163956965Y-87872229D01*
X163965230Y-87849129D01*
X163975720Y-87826951D01*
X163988333Y-87805907D01*
X164002947Y-87786202D01*
X164019423Y-87768023D01*
X164037602Y-87751547D01*
X164057307Y-87736933D01*
X164078351Y-87724320D01*
X164100529Y-87713830D01*
X164123629Y-87705565D01*
X164147427Y-87699604D01*
X164171696Y-87696004D01*
X164196200Y-87694800D01*
X165121200Y-87694800D01*
X165145704Y-87696004D01*
X165145704Y-87696004D01*
G37*
D15*
X164658700Y-88569800D03*
D11*
G36*
X162170704Y-87696004D02*
G01*
X162194973Y-87699604D01*
X162218771Y-87705565D01*
X162241871Y-87713830D01*
X162264049Y-87724320D01*
X162285093Y-87736933D01*
X162304798Y-87751547D01*
X162322977Y-87768023D01*
X162339453Y-87786202D01*
X162354067Y-87805907D01*
X162366680Y-87826951D01*
X162377170Y-87849129D01*
X162385435Y-87872229D01*
X162391396Y-87896027D01*
X162394996Y-87920296D01*
X162396200Y-87944800D01*
X162396200Y-89194800D01*
X162394996Y-89219304D01*
X162391396Y-89243573D01*
X162385435Y-89267371D01*
X162377170Y-89290471D01*
X162366680Y-89312649D01*
X162354067Y-89333693D01*
X162339453Y-89353398D01*
X162322977Y-89371577D01*
X162304798Y-89388053D01*
X162285093Y-89402667D01*
X162264049Y-89415280D01*
X162241871Y-89425770D01*
X162218771Y-89434035D01*
X162194973Y-89439996D01*
X162170704Y-89443596D01*
X162146200Y-89444800D01*
X161221200Y-89444800D01*
X161196696Y-89443596D01*
X161172427Y-89439996D01*
X161148629Y-89434035D01*
X161125529Y-89425770D01*
X161103351Y-89415280D01*
X161082307Y-89402667D01*
X161062602Y-89388053D01*
X161044423Y-89371577D01*
X161027947Y-89353398D01*
X161013333Y-89333693D01*
X161000720Y-89312649D01*
X160990230Y-89290471D01*
X160981965Y-89267371D01*
X160976004Y-89243573D01*
X160972404Y-89219304D01*
X160971200Y-89194800D01*
X160971200Y-87944800D01*
X160972404Y-87920296D01*
X160976004Y-87896027D01*
X160981965Y-87872229D01*
X160990230Y-87849129D01*
X161000720Y-87826951D01*
X161013333Y-87805907D01*
X161027947Y-87786202D01*
X161044423Y-87768023D01*
X161062602Y-87751547D01*
X161082307Y-87736933D01*
X161103351Y-87724320D01*
X161125529Y-87713830D01*
X161148629Y-87705565D01*
X161172427Y-87699604D01*
X161196696Y-87696004D01*
X161221200Y-87694800D01*
X162146200Y-87694800D01*
X162170704Y-87696004D01*
X162170704Y-87696004D01*
G37*
D15*
X161683700Y-88569800D03*
D11*
G36*
X167668204Y-79568004D02*
G01*
X167692473Y-79571604D01*
X167716271Y-79577565D01*
X167739371Y-79585830D01*
X167761549Y-79596320D01*
X167782593Y-79608933D01*
X167802298Y-79623547D01*
X167820477Y-79640023D01*
X167836953Y-79658202D01*
X167851567Y-79677907D01*
X167864180Y-79698951D01*
X167874670Y-79721129D01*
X167882935Y-79744229D01*
X167888896Y-79768027D01*
X167892496Y-79792296D01*
X167893700Y-79816800D01*
X167893700Y-81066800D01*
X167892496Y-81091304D01*
X167888896Y-81115573D01*
X167882935Y-81139371D01*
X167874670Y-81162471D01*
X167864180Y-81184649D01*
X167851567Y-81205693D01*
X167836953Y-81225398D01*
X167820477Y-81243577D01*
X167802298Y-81260053D01*
X167782593Y-81274667D01*
X167761549Y-81287280D01*
X167739371Y-81297770D01*
X167716271Y-81306035D01*
X167692473Y-81311996D01*
X167668204Y-81315596D01*
X167643700Y-81316800D01*
X166718700Y-81316800D01*
X166694196Y-81315596D01*
X166669927Y-81311996D01*
X166646129Y-81306035D01*
X166623029Y-81297770D01*
X166600851Y-81287280D01*
X166579807Y-81274667D01*
X166560102Y-81260053D01*
X166541923Y-81243577D01*
X166525447Y-81225398D01*
X166510833Y-81205693D01*
X166498220Y-81184649D01*
X166487730Y-81162471D01*
X166479465Y-81139371D01*
X166473504Y-81115573D01*
X166469904Y-81091304D01*
X166468700Y-81066800D01*
X166468700Y-79816800D01*
X166469904Y-79792296D01*
X166473504Y-79768027D01*
X166479465Y-79744229D01*
X166487730Y-79721129D01*
X166498220Y-79698951D01*
X166510833Y-79677907D01*
X166525447Y-79658202D01*
X166541923Y-79640023D01*
X166560102Y-79623547D01*
X166579807Y-79608933D01*
X166600851Y-79596320D01*
X166623029Y-79585830D01*
X166646129Y-79577565D01*
X166669927Y-79571604D01*
X166694196Y-79568004D01*
X166718700Y-79566800D01*
X167643700Y-79566800D01*
X167668204Y-79568004D01*
X167668204Y-79568004D01*
G37*
D15*
X167181200Y-80441800D03*
D11*
G36*
X170643204Y-79568004D02*
G01*
X170667473Y-79571604D01*
X170691271Y-79577565D01*
X170714371Y-79585830D01*
X170736549Y-79596320D01*
X170757593Y-79608933D01*
X170777298Y-79623547D01*
X170795477Y-79640023D01*
X170811953Y-79658202D01*
X170826567Y-79677907D01*
X170839180Y-79698951D01*
X170849670Y-79721129D01*
X170857935Y-79744229D01*
X170863896Y-79768027D01*
X170867496Y-79792296D01*
X170868700Y-79816800D01*
X170868700Y-81066800D01*
X170867496Y-81091304D01*
X170863896Y-81115573D01*
X170857935Y-81139371D01*
X170849670Y-81162471D01*
X170839180Y-81184649D01*
X170826567Y-81205693D01*
X170811953Y-81225398D01*
X170795477Y-81243577D01*
X170777298Y-81260053D01*
X170757593Y-81274667D01*
X170736549Y-81287280D01*
X170714371Y-81297770D01*
X170691271Y-81306035D01*
X170667473Y-81311996D01*
X170643204Y-81315596D01*
X170618700Y-81316800D01*
X169693700Y-81316800D01*
X169669196Y-81315596D01*
X169644927Y-81311996D01*
X169621129Y-81306035D01*
X169598029Y-81297770D01*
X169575851Y-81287280D01*
X169554807Y-81274667D01*
X169535102Y-81260053D01*
X169516923Y-81243577D01*
X169500447Y-81225398D01*
X169485833Y-81205693D01*
X169473220Y-81184649D01*
X169462730Y-81162471D01*
X169454465Y-81139371D01*
X169448504Y-81115573D01*
X169444904Y-81091304D01*
X169443700Y-81066800D01*
X169443700Y-79816800D01*
X169444904Y-79792296D01*
X169448504Y-79768027D01*
X169454465Y-79744229D01*
X169462730Y-79721129D01*
X169473220Y-79698951D01*
X169485833Y-79677907D01*
X169500447Y-79658202D01*
X169516923Y-79640023D01*
X169535102Y-79623547D01*
X169554807Y-79608933D01*
X169575851Y-79596320D01*
X169598029Y-79585830D01*
X169621129Y-79577565D01*
X169644927Y-79571604D01*
X169669196Y-79568004D01*
X169693700Y-79566800D01*
X170618700Y-79566800D01*
X170643204Y-79568004D01*
X170643204Y-79568004D01*
G37*
D15*
X170156200Y-80441800D03*
D11*
G36*
X180495204Y-79568004D02*
G01*
X180519473Y-79571604D01*
X180543271Y-79577565D01*
X180566371Y-79585830D01*
X180588549Y-79596320D01*
X180609593Y-79608933D01*
X180629298Y-79623547D01*
X180647477Y-79640023D01*
X180663953Y-79658202D01*
X180678567Y-79677907D01*
X180691180Y-79698951D01*
X180701670Y-79721129D01*
X180709935Y-79744229D01*
X180715896Y-79768027D01*
X180719496Y-79792296D01*
X180720700Y-79816800D01*
X180720700Y-81066800D01*
X180719496Y-81091304D01*
X180715896Y-81115573D01*
X180709935Y-81139371D01*
X180701670Y-81162471D01*
X180691180Y-81184649D01*
X180678567Y-81205693D01*
X180663953Y-81225398D01*
X180647477Y-81243577D01*
X180629298Y-81260053D01*
X180609593Y-81274667D01*
X180588549Y-81287280D01*
X180566371Y-81297770D01*
X180543271Y-81306035D01*
X180519473Y-81311996D01*
X180495204Y-81315596D01*
X180470700Y-81316800D01*
X179545700Y-81316800D01*
X179521196Y-81315596D01*
X179496927Y-81311996D01*
X179473129Y-81306035D01*
X179450029Y-81297770D01*
X179427851Y-81287280D01*
X179406807Y-81274667D01*
X179387102Y-81260053D01*
X179368923Y-81243577D01*
X179352447Y-81225398D01*
X179337833Y-81205693D01*
X179325220Y-81184649D01*
X179314730Y-81162471D01*
X179306465Y-81139371D01*
X179300504Y-81115573D01*
X179296904Y-81091304D01*
X179295700Y-81066800D01*
X179295700Y-79816800D01*
X179296904Y-79792296D01*
X179300504Y-79768027D01*
X179306465Y-79744229D01*
X179314730Y-79721129D01*
X179325220Y-79698951D01*
X179337833Y-79677907D01*
X179352447Y-79658202D01*
X179368923Y-79640023D01*
X179387102Y-79623547D01*
X179406807Y-79608933D01*
X179427851Y-79596320D01*
X179450029Y-79585830D01*
X179473129Y-79577565D01*
X179496927Y-79571604D01*
X179521196Y-79568004D01*
X179545700Y-79566800D01*
X180470700Y-79566800D01*
X180495204Y-79568004D01*
X180495204Y-79568004D01*
G37*
D15*
X180008200Y-80441800D03*
D11*
G36*
X183470204Y-79568004D02*
G01*
X183494473Y-79571604D01*
X183518271Y-79577565D01*
X183541371Y-79585830D01*
X183563549Y-79596320D01*
X183584593Y-79608933D01*
X183604298Y-79623547D01*
X183622477Y-79640023D01*
X183638953Y-79658202D01*
X183653567Y-79677907D01*
X183666180Y-79698951D01*
X183676670Y-79721129D01*
X183684935Y-79744229D01*
X183690896Y-79768027D01*
X183694496Y-79792296D01*
X183695700Y-79816800D01*
X183695700Y-81066800D01*
X183694496Y-81091304D01*
X183690896Y-81115573D01*
X183684935Y-81139371D01*
X183676670Y-81162471D01*
X183666180Y-81184649D01*
X183653567Y-81205693D01*
X183638953Y-81225398D01*
X183622477Y-81243577D01*
X183604298Y-81260053D01*
X183584593Y-81274667D01*
X183563549Y-81287280D01*
X183541371Y-81297770D01*
X183518271Y-81306035D01*
X183494473Y-81311996D01*
X183470204Y-81315596D01*
X183445700Y-81316800D01*
X182520700Y-81316800D01*
X182496196Y-81315596D01*
X182471927Y-81311996D01*
X182448129Y-81306035D01*
X182425029Y-81297770D01*
X182402851Y-81287280D01*
X182381807Y-81274667D01*
X182362102Y-81260053D01*
X182343923Y-81243577D01*
X182327447Y-81225398D01*
X182312833Y-81205693D01*
X182300220Y-81184649D01*
X182289730Y-81162471D01*
X182281465Y-81139371D01*
X182275504Y-81115573D01*
X182271904Y-81091304D01*
X182270700Y-81066800D01*
X182270700Y-79816800D01*
X182271904Y-79792296D01*
X182275504Y-79768027D01*
X182281465Y-79744229D01*
X182289730Y-79721129D01*
X182300220Y-79698951D01*
X182312833Y-79677907D01*
X182327447Y-79658202D01*
X182343923Y-79640023D01*
X182362102Y-79623547D01*
X182381807Y-79608933D01*
X182402851Y-79596320D01*
X182425029Y-79585830D01*
X182448129Y-79577565D01*
X182471927Y-79571604D01*
X182496196Y-79568004D01*
X182520700Y-79566800D01*
X183445700Y-79566800D01*
X183470204Y-79568004D01*
X183470204Y-79568004D01*
G37*
D15*
X182983200Y-80441800D03*
D11*
G36*
X164764704Y-102936004D02*
G01*
X164788973Y-102939604D01*
X164812771Y-102945565D01*
X164835871Y-102953830D01*
X164858049Y-102964320D01*
X164879093Y-102976933D01*
X164898798Y-102991547D01*
X164916977Y-103008023D01*
X164933453Y-103026202D01*
X164948067Y-103045907D01*
X164960680Y-103066951D01*
X164971170Y-103089129D01*
X164979435Y-103112229D01*
X164985396Y-103136027D01*
X164988996Y-103160296D01*
X164990200Y-103184800D01*
X164990200Y-104434800D01*
X164988996Y-104459304D01*
X164985396Y-104483573D01*
X164979435Y-104507371D01*
X164971170Y-104530471D01*
X164960680Y-104552649D01*
X164948067Y-104573693D01*
X164933453Y-104593398D01*
X164916977Y-104611577D01*
X164898798Y-104628053D01*
X164879093Y-104642667D01*
X164858049Y-104655280D01*
X164835871Y-104665770D01*
X164812771Y-104674035D01*
X164788973Y-104679996D01*
X164764704Y-104683596D01*
X164740200Y-104684800D01*
X163815200Y-104684800D01*
X163790696Y-104683596D01*
X163766427Y-104679996D01*
X163742629Y-104674035D01*
X163719529Y-104665770D01*
X163697351Y-104655280D01*
X163676307Y-104642667D01*
X163656602Y-104628053D01*
X163638423Y-104611577D01*
X163621947Y-104593398D01*
X163607333Y-104573693D01*
X163594720Y-104552649D01*
X163584230Y-104530471D01*
X163575965Y-104507371D01*
X163570004Y-104483573D01*
X163566404Y-104459304D01*
X163565200Y-104434800D01*
X163565200Y-103184800D01*
X163566404Y-103160296D01*
X163570004Y-103136027D01*
X163575965Y-103112229D01*
X163584230Y-103089129D01*
X163594720Y-103066951D01*
X163607333Y-103045907D01*
X163621947Y-103026202D01*
X163638423Y-103008023D01*
X163656602Y-102991547D01*
X163676307Y-102976933D01*
X163697351Y-102964320D01*
X163719529Y-102953830D01*
X163742629Y-102945565D01*
X163766427Y-102939604D01*
X163790696Y-102936004D01*
X163815200Y-102934800D01*
X164740200Y-102934800D01*
X164764704Y-102936004D01*
X164764704Y-102936004D01*
G37*
D15*
X164277700Y-103809800D03*
D11*
G36*
X161789704Y-102936004D02*
G01*
X161813973Y-102939604D01*
X161837771Y-102945565D01*
X161860871Y-102953830D01*
X161883049Y-102964320D01*
X161904093Y-102976933D01*
X161923798Y-102991547D01*
X161941977Y-103008023D01*
X161958453Y-103026202D01*
X161973067Y-103045907D01*
X161985680Y-103066951D01*
X161996170Y-103089129D01*
X162004435Y-103112229D01*
X162010396Y-103136027D01*
X162013996Y-103160296D01*
X162015200Y-103184800D01*
X162015200Y-104434800D01*
X162013996Y-104459304D01*
X162010396Y-104483573D01*
X162004435Y-104507371D01*
X161996170Y-104530471D01*
X161985680Y-104552649D01*
X161973067Y-104573693D01*
X161958453Y-104593398D01*
X161941977Y-104611577D01*
X161923798Y-104628053D01*
X161904093Y-104642667D01*
X161883049Y-104655280D01*
X161860871Y-104665770D01*
X161837771Y-104674035D01*
X161813973Y-104679996D01*
X161789704Y-104683596D01*
X161765200Y-104684800D01*
X160840200Y-104684800D01*
X160815696Y-104683596D01*
X160791427Y-104679996D01*
X160767629Y-104674035D01*
X160744529Y-104665770D01*
X160722351Y-104655280D01*
X160701307Y-104642667D01*
X160681602Y-104628053D01*
X160663423Y-104611577D01*
X160646947Y-104593398D01*
X160632333Y-104573693D01*
X160619720Y-104552649D01*
X160609230Y-104530471D01*
X160600965Y-104507371D01*
X160595004Y-104483573D01*
X160591404Y-104459304D01*
X160590200Y-104434800D01*
X160590200Y-103184800D01*
X160591404Y-103160296D01*
X160595004Y-103136027D01*
X160600965Y-103112229D01*
X160609230Y-103089129D01*
X160619720Y-103066951D01*
X160632333Y-103045907D01*
X160646947Y-103026202D01*
X160663423Y-103008023D01*
X160681602Y-102991547D01*
X160701307Y-102976933D01*
X160722351Y-102964320D01*
X160744529Y-102953830D01*
X160767629Y-102945565D01*
X160791427Y-102939604D01*
X160815696Y-102936004D01*
X160840200Y-102934800D01*
X161765200Y-102934800D01*
X161789704Y-102936004D01*
X161789704Y-102936004D01*
G37*
D15*
X161302700Y-103809800D03*
D11*
G36*
X155095204Y-79695004D02*
G01*
X155119473Y-79698604D01*
X155143271Y-79704565D01*
X155166371Y-79712830D01*
X155188549Y-79723320D01*
X155209593Y-79735933D01*
X155229298Y-79750547D01*
X155247477Y-79767023D01*
X155263953Y-79785202D01*
X155278567Y-79804907D01*
X155291180Y-79825951D01*
X155301670Y-79848129D01*
X155309935Y-79871229D01*
X155315896Y-79895027D01*
X155319496Y-79919296D01*
X155320700Y-79943800D01*
X155320700Y-81193800D01*
X155319496Y-81218304D01*
X155315896Y-81242573D01*
X155309935Y-81266371D01*
X155301670Y-81289471D01*
X155291180Y-81311649D01*
X155278567Y-81332693D01*
X155263953Y-81352398D01*
X155247477Y-81370577D01*
X155229298Y-81387053D01*
X155209593Y-81401667D01*
X155188549Y-81414280D01*
X155166371Y-81424770D01*
X155143271Y-81433035D01*
X155119473Y-81438996D01*
X155095204Y-81442596D01*
X155070700Y-81443800D01*
X154145700Y-81443800D01*
X154121196Y-81442596D01*
X154096927Y-81438996D01*
X154073129Y-81433035D01*
X154050029Y-81424770D01*
X154027851Y-81414280D01*
X154006807Y-81401667D01*
X153987102Y-81387053D01*
X153968923Y-81370577D01*
X153952447Y-81352398D01*
X153937833Y-81332693D01*
X153925220Y-81311649D01*
X153914730Y-81289471D01*
X153906465Y-81266371D01*
X153900504Y-81242573D01*
X153896904Y-81218304D01*
X153895700Y-81193800D01*
X153895700Y-79943800D01*
X153896904Y-79919296D01*
X153900504Y-79895027D01*
X153906465Y-79871229D01*
X153914730Y-79848129D01*
X153925220Y-79825951D01*
X153937833Y-79804907D01*
X153952447Y-79785202D01*
X153968923Y-79767023D01*
X153987102Y-79750547D01*
X154006807Y-79735933D01*
X154027851Y-79723320D01*
X154050029Y-79712830D01*
X154073129Y-79704565D01*
X154096927Y-79698604D01*
X154121196Y-79695004D01*
X154145700Y-79693800D01*
X155070700Y-79693800D01*
X155095204Y-79695004D01*
X155095204Y-79695004D01*
G37*
D15*
X154608200Y-80568800D03*
D11*
G36*
X158070204Y-79695004D02*
G01*
X158094473Y-79698604D01*
X158118271Y-79704565D01*
X158141371Y-79712830D01*
X158163549Y-79723320D01*
X158184593Y-79735933D01*
X158204298Y-79750547D01*
X158222477Y-79767023D01*
X158238953Y-79785202D01*
X158253567Y-79804907D01*
X158266180Y-79825951D01*
X158276670Y-79848129D01*
X158284935Y-79871229D01*
X158290896Y-79895027D01*
X158294496Y-79919296D01*
X158295700Y-79943800D01*
X158295700Y-81193800D01*
X158294496Y-81218304D01*
X158290896Y-81242573D01*
X158284935Y-81266371D01*
X158276670Y-81289471D01*
X158266180Y-81311649D01*
X158253567Y-81332693D01*
X158238953Y-81352398D01*
X158222477Y-81370577D01*
X158204298Y-81387053D01*
X158184593Y-81401667D01*
X158163549Y-81414280D01*
X158141371Y-81424770D01*
X158118271Y-81433035D01*
X158094473Y-81438996D01*
X158070204Y-81442596D01*
X158045700Y-81443800D01*
X157120700Y-81443800D01*
X157096196Y-81442596D01*
X157071927Y-81438996D01*
X157048129Y-81433035D01*
X157025029Y-81424770D01*
X157002851Y-81414280D01*
X156981807Y-81401667D01*
X156962102Y-81387053D01*
X156943923Y-81370577D01*
X156927447Y-81352398D01*
X156912833Y-81332693D01*
X156900220Y-81311649D01*
X156889730Y-81289471D01*
X156881465Y-81266371D01*
X156875504Y-81242573D01*
X156871904Y-81218304D01*
X156870700Y-81193800D01*
X156870700Y-79943800D01*
X156871904Y-79919296D01*
X156875504Y-79895027D01*
X156881465Y-79871229D01*
X156889730Y-79848129D01*
X156900220Y-79825951D01*
X156912833Y-79804907D01*
X156927447Y-79785202D01*
X156943923Y-79767023D01*
X156962102Y-79750547D01*
X156981807Y-79735933D01*
X157002851Y-79723320D01*
X157025029Y-79712830D01*
X157048129Y-79704565D01*
X157071927Y-79698604D01*
X157096196Y-79695004D01*
X157120700Y-79693800D01*
X158045700Y-79693800D01*
X158070204Y-79695004D01*
X158070204Y-79695004D01*
G37*
D15*
X157583200Y-80568800D03*
D11*
G36*
X149036304Y-70243604D02*
G01*
X149060573Y-70247204D01*
X149084371Y-70253165D01*
X149107471Y-70261430D01*
X149129649Y-70271920D01*
X149150693Y-70284533D01*
X149170398Y-70299147D01*
X149188577Y-70315623D01*
X149205053Y-70333802D01*
X149219667Y-70353507D01*
X149232280Y-70374551D01*
X149242770Y-70396729D01*
X149251035Y-70419829D01*
X149256996Y-70443627D01*
X149260596Y-70467896D01*
X149261800Y-70492400D01*
X149261800Y-71417400D01*
X149260596Y-71441904D01*
X149256996Y-71466173D01*
X149251035Y-71489971D01*
X149242770Y-71513071D01*
X149232280Y-71535249D01*
X149219667Y-71556293D01*
X149205053Y-71575998D01*
X149188577Y-71594177D01*
X149170398Y-71610653D01*
X149150693Y-71625267D01*
X149129649Y-71637880D01*
X149107471Y-71648370D01*
X149084371Y-71656635D01*
X149060573Y-71662596D01*
X149036304Y-71666196D01*
X149011800Y-71667400D01*
X147761800Y-71667400D01*
X147737296Y-71666196D01*
X147713027Y-71662596D01*
X147689229Y-71656635D01*
X147666129Y-71648370D01*
X147643951Y-71637880D01*
X147622907Y-71625267D01*
X147603202Y-71610653D01*
X147585023Y-71594177D01*
X147568547Y-71575998D01*
X147553933Y-71556293D01*
X147541320Y-71535249D01*
X147530830Y-71513071D01*
X147522565Y-71489971D01*
X147516604Y-71466173D01*
X147513004Y-71441904D01*
X147511800Y-71417400D01*
X147511800Y-70492400D01*
X147513004Y-70467896D01*
X147516604Y-70443627D01*
X147522565Y-70419829D01*
X147530830Y-70396729D01*
X147541320Y-70374551D01*
X147553933Y-70353507D01*
X147568547Y-70333802D01*
X147585023Y-70315623D01*
X147603202Y-70299147D01*
X147622907Y-70284533D01*
X147643951Y-70271920D01*
X147666129Y-70261430D01*
X147689229Y-70253165D01*
X147713027Y-70247204D01*
X147737296Y-70243604D01*
X147761800Y-70242400D01*
X149011800Y-70242400D01*
X149036304Y-70243604D01*
X149036304Y-70243604D01*
G37*
D15*
X148386800Y-70954900D03*
D11*
G36*
X149036304Y-73218604D02*
G01*
X149060573Y-73222204D01*
X149084371Y-73228165D01*
X149107471Y-73236430D01*
X149129649Y-73246920D01*
X149150693Y-73259533D01*
X149170398Y-73274147D01*
X149188577Y-73290623D01*
X149205053Y-73308802D01*
X149219667Y-73328507D01*
X149232280Y-73349551D01*
X149242770Y-73371729D01*
X149251035Y-73394829D01*
X149256996Y-73418627D01*
X149260596Y-73442896D01*
X149261800Y-73467400D01*
X149261800Y-74392400D01*
X149260596Y-74416904D01*
X149256996Y-74441173D01*
X149251035Y-74464971D01*
X149242770Y-74488071D01*
X149232280Y-74510249D01*
X149219667Y-74531293D01*
X149205053Y-74550998D01*
X149188577Y-74569177D01*
X149170398Y-74585653D01*
X149150693Y-74600267D01*
X149129649Y-74612880D01*
X149107471Y-74623370D01*
X149084371Y-74631635D01*
X149060573Y-74637596D01*
X149036304Y-74641196D01*
X149011800Y-74642400D01*
X147761800Y-74642400D01*
X147737296Y-74641196D01*
X147713027Y-74637596D01*
X147689229Y-74631635D01*
X147666129Y-74623370D01*
X147643951Y-74612880D01*
X147622907Y-74600267D01*
X147603202Y-74585653D01*
X147585023Y-74569177D01*
X147568547Y-74550998D01*
X147553933Y-74531293D01*
X147541320Y-74510249D01*
X147530830Y-74488071D01*
X147522565Y-74464971D01*
X147516604Y-74441173D01*
X147513004Y-74416904D01*
X147511800Y-74392400D01*
X147511800Y-73467400D01*
X147513004Y-73442896D01*
X147516604Y-73418627D01*
X147522565Y-73394829D01*
X147530830Y-73371729D01*
X147541320Y-73349551D01*
X147553933Y-73328507D01*
X147568547Y-73308802D01*
X147585023Y-73290623D01*
X147603202Y-73274147D01*
X147622907Y-73259533D01*
X147643951Y-73246920D01*
X147666129Y-73236430D01*
X147689229Y-73228165D01*
X147713027Y-73222204D01*
X147737296Y-73218604D01*
X147761800Y-73217400D01*
X149011800Y-73217400D01*
X149036304Y-73218604D01*
X149036304Y-73218604D01*
G37*
D15*
X148386800Y-73929900D03*
D11*
G36*
X145125704Y-97983004D02*
G01*
X145149973Y-97986604D01*
X145173771Y-97992565D01*
X145196871Y-98000830D01*
X145219049Y-98011320D01*
X145240093Y-98023933D01*
X145259798Y-98038547D01*
X145277977Y-98055023D01*
X145294453Y-98073202D01*
X145309067Y-98092907D01*
X145321680Y-98113951D01*
X145332170Y-98136129D01*
X145340435Y-98159229D01*
X145346396Y-98183027D01*
X145349996Y-98207296D01*
X145351200Y-98231800D01*
X145351200Y-99481800D01*
X145349996Y-99506304D01*
X145346396Y-99530573D01*
X145340435Y-99554371D01*
X145332170Y-99577471D01*
X145321680Y-99599649D01*
X145309067Y-99620693D01*
X145294453Y-99640398D01*
X145277977Y-99658577D01*
X145259798Y-99675053D01*
X145240093Y-99689667D01*
X145219049Y-99702280D01*
X145196871Y-99712770D01*
X145173771Y-99721035D01*
X145149973Y-99726996D01*
X145125704Y-99730596D01*
X145101200Y-99731800D01*
X144176200Y-99731800D01*
X144151696Y-99730596D01*
X144127427Y-99726996D01*
X144103629Y-99721035D01*
X144080529Y-99712770D01*
X144058351Y-99702280D01*
X144037307Y-99689667D01*
X144017602Y-99675053D01*
X143999423Y-99658577D01*
X143982947Y-99640398D01*
X143968333Y-99620693D01*
X143955720Y-99599649D01*
X143945230Y-99577471D01*
X143936965Y-99554371D01*
X143931004Y-99530573D01*
X143927404Y-99506304D01*
X143926200Y-99481800D01*
X143926200Y-98231800D01*
X143927404Y-98207296D01*
X143931004Y-98183027D01*
X143936965Y-98159229D01*
X143945230Y-98136129D01*
X143955720Y-98113951D01*
X143968333Y-98092907D01*
X143982947Y-98073202D01*
X143999423Y-98055023D01*
X144017602Y-98038547D01*
X144037307Y-98023933D01*
X144058351Y-98011320D01*
X144080529Y-98000830D01*
X144103629Y-97992565D01*
X144127427Y-97986604D01*
X144151696Y-97983004D01*
X144176200Y-97981800D01*
X145101200Y-97981800D01*
X145125704Y-97983004D01*
X145125704Y-97983004D01*
G37*
D15*
X144638700Y-98856800D03*
D11*
G36*
X148100704Y-97983004D02*
G01*
X148124973Y-97986604D01*
X148148771Y-97992565D01*
X148171871Y-98000830D01*
X148194049Y-98011320D01*
X148215093Y-98023933D01*
X148234798Y-98038547D01*
X148252977Y-98055023D01*
X148269453Y-98073202D01*
X148284067Y-98092907D01*
X148296680Y-98113951D01*
X148307170Y-98136129D01*
X148315435Y-98159229D01*
X148321396Y-98183027D01*
X148324996Y-98207296D01*
X148326200Y-98231800D01*
X148326200Y-99481800D01*
X148324996Y-99506304D01*
X148321396Y-99530573D01*
X148315435Y-99554371D01*
X148307170Y-99577471D01*
X148296680Y-99599649D01*
X148284067Y-99620693D01*
X148269453Y-99640398D01*
X148252977Y-99658577D01*
X148234798Y-99675053D01*
X148215093Y-99689667D01*
X148194049Y-99702280D01*
X148171871Y-99712770D01*
X148148771Y-99721035D01*
X148124973Y-99726996D01*
X148100704Y-99730596D01*
X148076200Y-99731800D01*
X147151200Y-99731800D01*
X147126696Y-99730596D01*
X147102427Y-99726996D01*
X147078629Y-99721035D01*
X147055529Y-99712770D01*
X147033351Y-99702280D01*
X147012307Y-99689667D01*
X146992602Y-99675053D01*
X146974423Y-99658577D01*
X146957947Y-99640398D01*
X146943333Y-99620693D01*
X146930720Y-99599649D01*
X146920230Y-99577471D01*
X146911965Y-99554371D01*
X146906004Y-99530573D01*
X146902404Y-99506304D01*
X146901200Y-99481800D01*
X146901200Y-98231800D01*
X146902404Y-98207296D01*
X146906004Y-98183027D01*
X146911965Y-98159229D01*
X146920230Y-98136129D01*
X146930720Y-98113951D01*
X146943333Y-98092907D01*
X146957947Y-98073202D01*
X146974423Y-98055023D01*
X146992602Y-98038547D01*
X147012307Y-98023933D01*
X147033351Y-98011320D01*
X147055529Y-98000830D01*
X147078629Y-97992565D01*
X147102427Y-97986604D01*
X147126696Y-97983004D01*
X147151200Y-97981800D01*
X148076200Y-97981800D01*
X148100704Y-97983004D01*
X148100704Y-97983004D01*
G37*
D15*
X147613700Y-98856800D03*
D11*
G36*
X145125704Y-100269004D02*
G01*
X145149973Y-100272604D01*
X145173771Y-100278565D01*
X145196871Y-100286830D01*
X145219049Y-100297320D01*
X145240093Y-100309933D01*
X145259798Y-100324547D01*
X145277977Y-100341023D01*
X145294453Y-100359202D01*
X145309067Y-100378907D01*
X145321680Y-100399951D01*
X145332170Y-100422129D01*
X145340435Y-100445229D01*
X145346396Y-100469027D01*
X145349996Y-100493296D01*
X145351200Y-100517800D01*
X145351200Y-101767800D01*
X145349996Y-101792304D01*
X145346396Y-101816573D01*
X145340435Y-101840371D01*
X145332170Y-101863471D01*
X145321680Y-101885649D01*
X145309067Y-101906693D01*
X145294453Y-101926398D01*
X145277977Y-101944577D01*
X145259798Y-101961053D01*
X145240093Y-101975667D01*
X145219049Y-101988280D01*
X145196871Y-101998770D01*
X145173771Y-102007035D01*
X145149973Y-102012996D01*
X145125704Y-102016596D01*
X145101200Y-102017800D01*
X144176200Y-102017800D01*
X144151696Y-102016596D01*
X144127427Y-102012996D01*
X144103629Y-102007035D01*
X144080529Y-101998770D01*
X144058351Y-101988280D01*
X144037307Y-101975667D01*
X144017602Y-101961053D01*
X143999423Y-101944577D01*
X143982947Y-101926398D01*
X143968333Y-101906693D01*
X143955720Y-101885649D01*
X143945230Y-101863471D01*
X143936965Y-101840371D01*
X143931004Y-101816573D01*
X143927404Y-101792304D01*
X143926200Y-101767800D01*
X143926200Y-100517800D01*
X143927404Y-100493296D01*
X143931004Y-100469027D01*
X143936965Y-100445229D01*
X143945230Y-100422129D01*
X143955720Y-100399951D01*
X143968333Y-100378907D01*
X143982947Y-100359202D01*
X143999423Y-100341023D01*
X144017602Y-100324547D01*
X144037307Y-100309933D01*
X144058351Y-100297320D01*
X144080529Y-100286830D01*
X144103629Y-100278565D01*
X144127427Y-100272604D01*
X144151696Y-100269004D01*
X144176200Y-100267800D01*
X145101200Y-100267800D01*
X145125704Y-100269004D01*
X145125704Y-100269004D01*
G37*
D15*
X144638700Y-101142800D03*
D11*
G36*
X148100704Y-100269004D02*
G01*
X148124973Y-100272604D01*
X148148771Y-100278565D01*
X148171871Y-100286830D01*
X148194049Y-100297320D01*
X148215093Y-100309933D01*
X148234798Y-100324547D01*
X148252977Y-100341023D01*
X148269453Y-100359202D01*
X148284067Y-100378907D01*
X148296680Y-100399951D01*
X148307170Y-100422129D01*
X148315435Y-100445229D01*
X148321396Y-100469027D01*
X148324996Y-100493296D01*
X148326200Y-100517800D01*
X148326200Y-101767800D01*
X148324996Y-101792304D01*
X148321396Y-101816573D01*
X148315435Y-101840371D01*
X148307170Y-101863471D01*
X148296680Y-101885649D01*
X148284067Y-101906693D01*
X148269453Y-101926398D01*
X148252977Y-101944577D01*
X148234798Y-101961053D01*
X148215093Y-101975667D01*
X148194049Y-101988280D01*
X148171871Y-101998770D01*
X148148771Y-102007035D01*
X148124973Y-102012996D01*
X148100704Y-102016596D01*
X148076200Y-102017800D01*
X147151200Y-102017800D01*
X147126696Y-102016596D01*
X147102427Y-102012996D01*
X147078629Y-102007035D01*
X147055529Y-101998770D01*
X147033351Y-101988280D01*
X147012307Y-101975667D01*
X146992602Y-101961053D01*
X146974423Y-101944577D01*
X146957947Y-101926398D01*
X146943333Y-101906693D01*
X146930720Y-101885649D01*
X146920230Y-101863471D01*
X146911965Y-101840371D01*
X146906004Y-101816573D01*
X146902404Y-101792304D01*
X146901200Y-101767800D01*
X146901200Y-100517800D01*
X146902404Y-100493296D01*
X146906004Y-100469027D01*
X146911965Y-100445229D01*
X146920230Y-100422129D01*
X146930720Y-100399951D01*
X146943333Y-100378907D01*
X146957947Y-100359202D01*
X146974423Y-100341023D01*
X146992602Y-100324547D01*
X147012307Y-100309933D01*
X147033351Y-100297320D01*
X147055529Y-100286830D01*
X147078629Y-100278565D01*
X147102427Y-100272604D01*
X147126696Y-100269004D01*
X147151200Y-100267800D01*
X148076200Y-100267800D01*
X148100704Y-100269004D01*
X148100704Y-100269004D01*
G37*
D15*
X147613700Y-101142800D03*
D11*
G36*
X145125704Y-102555004D02*
G01*
X145149973Y-102558604D01*
X145173771Y-102564565D01*
X145196871Y-102572830D01*
X145219049Y-102583320D01*
X145240093Y-102595933D01*
X145259798Y-102610547D01*
X145277977Y-102627023D01*
X145294453Y-102645202D01*
X145309067Y-102664907D01*
X145321680Y-102685951D01*
X145332170Y-102708129D01*
X145340435Y-102731229D01*
X145346396Y-102755027D01*
X145349996Y-102779296D01*
X145351200Y-102803800D01*
X145351200Y-104053800D01*
X145349996Y-104078304D01*
X145346396Y-104102573D01*
X145340435Y-104126371D01*
X145332170Y-104149471D01*
X145321680Y-104171649D01*
X145309067Y-104192693D01*
X145294453Y-104212398D01*
X145277977Y-104230577D01*
X145259798Y-104247053D01*
X145240093Y-104261667D01*
X145219049Y-104274280D01*
X145196871Y-104284770D01*
X145173771Y-104293035D01*
X145149973Y-104298996D01*
X145125704Y-104302596D01*
X145101200Y-104303800D01*
X144176200Y-104303800D01*
X144151696Y-104302596D01*
X144127427Y-104298996D01*
X144103629Y-104293035D01*
X144080529Y-104284770D01*
X144058351Y-104274280D01*
X144037307Y-104261667D01*
X144017602Y-104247053D01*
X143999423Y-104230577D01*
X143982947Y-104212398D01*
X143968333Y-104192693D01*
X143955720Y-104171649D01*
X143945230Y-104149471D01*
X143936965Y-104126371D01*
X143931004Y-104102573D01*
X143927404Y-104078304D01*
X143926200Y-104053800D01*
X143926200Y-102803800D01*
X143927404Y-102779296D01*
X143931004Y-102755027D01*
X143936965Y-102731229D01*
X143945230Y-102708129D01*
X143955720Y-102685951D01*
X143968333Y-102664907D01*
X143982947Y-102645202D01*
X143999423Y-102627023D01*
X144017602Y-102610547D01*
X144037307Y-102595933D01*
X144058351Y-102583320D01*
X144080529Y-102572830D01*
X144103629Y-102564565D01*
X144127427Y-102558604D01*
X144151696Y-102555004D01*
X144176200Y-102553800D01*
X145101200Y-102553800D01*
X145125704Y-102555004D01*
X145125704Y-102555004D01*
G37*
D15*
X144638700Y-103428800D03*
D11*
G36*
X148100704Y-102555004D02*
G01*
X148124973Y-102558604D01*
X148148771Y-102564565D01*
X148171871Y-102572830D01*
X148194049Y-102583320D01*
X148215093Y-102595933D01*
X148234798Y-102610547D01*
X148252977Y-102627023D01*
X148269453Y-102645202D01*
X148284067Y-102664907D01*
X148296680Y-102685951D01*
X148307170Y-102708129D01*
X148315435Y-102731229D01*
X148321396Y-102755027D01*
X148324996Y-102779296D01*
X148326200Y-102803800D01*
X148326200Y-104053800D01*
X148324996Y-104078304D01*
X148321396Y-104102573D01*
X148315435Y-104126371D01*
X148307170Y-104149471D01*
X148296680Y-104171649D01*
X148284067Y-104192693D01*
X148269453Y-104212398D01*
X148252977Y-104230577D01*
X148234798Y-104247053D01*
X148215093Y-104261667D01*
X148194049Y-104274280D01*
X148171871Y-104284770D01*
X148148771Y-104293035D01*
X148124973Y-104298996D01*
X148100704Y-104302596D01*
X148076200Y-104303800D01*
X147151200Y-104303800D01*
X147126696Y-104302596D01*
X147102427Y-104298996D01*
X147078629Y-104293035D01*
X147055529Y-104284770D01*
X147033351Y-104274280D01*
X147012307Y-104261667D01*
X146992602Y-104247053D01*
X146974423Y-104230577D01*
X146957947Y-104212398D01*
X146943333Y-104192693D01*
X146930720Y-104171649D01*
X146920230Y-104149471D01*
X146911965Y-104126371D01*
X146906004Y-104102573D01*
X146902404Y-104078304D01*
X146901200Y-104053800D01*
X146901200Y-102803800D01*
X146902404Y-102779296D01*
X146906004Y-102755027D01*
X146911965Y-102731229D01*
X146920230Y-102708129D01*
X146930720Y-102685951D01*
X146943333Y-102664907D01*
X146957947Y-102645202D01*
X146974423Y-102627023D01*
X146992602Y-102610547D01*
X147012307Y-102595933D01*
X147033351Y-102583320D01*
X147055529Y-102572830D01*
X147078629Y-102564565D01*
X147102427Y-102558604D01*
X147126696Y-102555004D01*
X147151200Y-102553800D01*
X148076200Y-102553800D01*
X148100704Y-102555004D01*
X148100704Y-102555004D01*
G37*
D15*
X147613700Y-103428800D03*
D11*
G36*
X154514204Y-104015504D02*
G01*
X154538473Y-104019104D01*
X154562271Y-104025065D01*
X154585371Y-104033330D01*
X154607549Y-104043820D01*
X154628593Y-104056433D01*
X154648298Y-104071047D01*
X154666477Y-104087523D01*
X154682953Y-104105702D01*
X154697567Y-104125407D01*
X154710180Y-104146451D01*
X154720670Y-104168629D01*
X154728935Y-104191729D01*
X154734896Y-104215527D01*
X154738496Y-104239796D01*
X154739700Y-104264300D01*
X154739700Y-105514300D01*
X154738496Y-105538804D01*
X154734896Y-105563073D01*
X154728935Y-105586871D01*
X154720670Y-105609971D01*
X154710180Y-105632149D01*
X154697567Y-105653193D01*
X154682953Y-105672898D01*
X154666477Y-105691077D01*
X154648298Y-105707553D01*
X154628593Y-105722167D01*
X154607549Y-105734780D01*
X154585371Y-105745270D01*
X154562271Y-105753535D01*
X154538473Y-105759496D01*
X154514204Y-105763096D01*
X154489700Y-105764300D01*
X153564700Y-105764300D01*
X153540196Y-105763096D01*
X153515927Y-105759496D01*
X153492129Y-105753535D01*
X153469029Y-105745270D01*
X153446851Y-105734780D01*
X153425807Y-105722167D01*
X153406102Y-105707553D01*
X153387923Y-105691077D01*
X153371447Y-105672898D01*
X153356833Y-105653193D01*
X153344220Y-105632149D01*
X153333730Y-105609971D01*
X153325465Y-105586871D01*
X153319504Y-105563073D01*
X153315904Y-105538804D01*
X153314700Y-105514300D01*
X153314700Y-104264300D01*
X153315904Y-104239796D01*
X153319504Y-104215527D01*
X153325465Y-104191729D01*
X153333730Y-104168629D01*
X153344220Y-104146451D01*
X153356833Y-104125407D01*
X153371447Y-104105702D01*
X153387923Y-104087523D01*
X153406102Y-104071047D01*
X153425807Y-104056433D01*
X153446851Y-104043820D01*
X153469029Y-104033330D01*
X153492129Y-104025065D01*
X153515927Y-104019104D01*
X153540196Y-104015504D01*
X153564700Y-104014300D01*
X154489700Y-104014300D01*
X154514204Y-104015504D01*
X154514204Y-104015504D01*
G37*
D15*
X154027200Y-104889300D03*
D11*
G36*
X151539204Y-104015504D02*
G01*
X151563473Y-104019104D01*
X151587271Y-104025065D01*
X151610371Y-104033330D01*
X151632549Y-104043820D01*
X151653593Y-104056433D01*
X151673298Y-104071047D01*
X151691477Y-104087523D01*
X151707953Y-104105702D01*
X151722567Y-104125407D01*
X151735180Y-104146451D01*
X151745670Y-104168629D01*
X151753935Y-104191729D01*
X151759896Y-104215527D01*
X151763496Y-104239796D01*
X151764700Y-104264300D01*
X151764700Y-105514300D01*
X151763496Y-105538804D01*
X151759896Y-105563073D01*
X151753935Y-105586871D01*
X151745670Y-105609971D01*
X151735180Y-105632149D01*
X151722567Y-105653193D01*
X151707953Y-105672898D01*
X151691477Y-105691077D01*
X151673298Y-105707553D01*
X151653593Y-105722167D01*
X151632549Y-105734780D01*
X151610371Y-105745270D01*
X151587271Y-105753535D01*
X151563473Y-105759496D01*
X151539204Y-105763096D01*
X151514700Y-105764300D01*
X150589700Y-105764300D01*
X150565196Y-105763096D01*
X150540927Y-105759496D01*
X150517129Y-105753535D01*
X150494029Y-105745270D01*
X150471851Y-105734780D01*
X150450807Y-105722167D01*
X150431102Y-105707553D01*
X150412923Y-105691077D01*
X150396447Y-105672898D01*
X150381833Y-105653193D01*
X150369220Y-105632149D01*
X150358730Y-105609971D01*
X150350465Y-105586871D01*
X150344504Y-105563073D01*
X150340904Y-105538804D01*
X150339700Y-105514300D01*
X150339700Y-104264300D01*
X150340904Y-104239796D01*
X150344504Y-104215527D01*
X150350465Y-104191729D01*
X150358730Y-104168629D01*
X150369220Y-104146451D01*
X150381833Y-104125407D01*
X150396447Y-104105702D01*
X150412923Y-104087523D01*
X150431102Y-104071047D01*
X150450807Y-104056433D01*
X150471851Y-104043820D01*
X150494029Y-104033330D01*
X150517129Y-104025065D01*
X150540927Y-104019104D01*
X150565196Y-104015504D01*
X150589700Y-104014300D01*
X151514700Y-104014300D01*
X151539204Y-104015504D01*
X151539204Y-104015504D01*
G37*
D15*
X151052200Y-104889300D03*
D11*
G36*
X154514204Y-106301504D02*
G01*
X154538473Y-106305104D01*
X154562271Y-106311065D01*
X154585371Y-106319330D01*
X154607549Y-106329820D01*
X154628593Y-106342433D01*
X154648298Y-106357047D01*
X154666477Y-106373523D01*
X154682953Y-106391702D01*
X154697567Y-106411407D01*
X154710180Y-106432451D01*
X154720670Y-106454629D01*
X154728935Y-106477729D01*
X154734896Y-106501527D01*
X154738496Y-106525796D01*
X154739700Y-106550300D01*
X154739700Y-107800300D01*
X154738496Y-107824804D01*
X154734896Y-107849073D01*
X154728935Y-107872871D01*
X154720670Y-107895971D01*
X154710180Y-107918149D01*
X154697567Y-107939193D01*
X154682953Y-107958898D01*
X154666477Y-107977077D01*
X154648298Y-107993553D01*
X154628593Y-108008167D01*
X154607549Y-108020780D01*
X154585371Y-108031270D01*
X154562271Y-108039535D01*
X154538473Y-108045496D01*
X154514204Y-108049096D01*
X154489700Y-108050300D01*
X153564700Y-108050300D01*
X153540196Y-108049096D01*
X153515927Y-108045496D01*
X153492129Y-108039535D01*
X153469029Y-108031270D01*
X153446851Y-108020780D01*
X153425807Y-108008167D01*
X153406102Y-107993553D01*
X153387923Y-107977077D01*
X153371447Y-107958898D01*
X153356833Y-107939193D01*
X153344220Y-107918149D01*
X153333730Y-107895971D01*
X153325465Y-107872871D01*
X153319504Y-107849073D01*
X153315904Y-107824804D01*
X153314700Y-107800300D01*
X153314700Y-106550300D01*
X153315904Y-106525796D01*
X153319504Y-106501527D01*
X153325465Y-106477729D01*
X153333730Y-106454629D01*
X153344220Y-106432451D01*
X153356833Y-106411407D01*
X153371447Y-106391702D01*
X153387923Y-106373523D01*
X153406102Y-106357047D01*
X153425807Y-106342433D01*
X153446851Y-106329820D01*
X153469029Y-106319330D01*
X153492129Y-106311065D01*
X153515927Y-106305104D01*
X153540196Y-106301504D01*
X153564700Y-106300300D01*
X154489700Y-106300300D01*
X154514204Y-106301504D01*
X154514204Y-106301504D01*
G37*
D15*
X154027200Y-107175300D03*
D11*
G36*
X151539204Y-106301504D02*
G01*
X151563473Y-106305104D01*
X151587271Y-106311065D01*
X151610371Y-106319330D01*
X151632549Y-106329820D01*
X151653593Y-106342433D01*
X151673298Y-106357047D01*
X151691477Y-106373523D01*
X151707953Y-106391702D01*
X151722567Y-106411407D01*
X151735180Y-106432451D01*
X151745670Y-106454629D01*
X151753935Y-106477729D01*
X151759896Y-106501527D01*
X151763496Y-106525796D01*
X151764700Y-106550300D01*
X151764700Y-107800300D01*
X151763496Y-107824804D01*
X151759896Y-107849073D01*
X151753935Y-107872871D01*
X151745670Y-107895971D01*
X151735180Y-107918149D01*
X151722567Y-107939193D01*
X151707953Y-107958898D01*
X151691477Y-107977077D01*
X151673298Y-107993553D01*
X151653593Y-108008167D01*
X151632549Y-108020780D01*
X151610371Y-108031270D01*
X151587271Y-108039535D01*
X151563473Y-108045496D01*
X151539204Y-108049096D01*
X151514700Y-108050300D01*
X150589700Y-108050300D01*
X150565196Y-108049096D01*
X150540927Y-108045496D01*
X150517129Y-108039535D01*
X150494029Y-108031270D01*
X150471851Y-108020780D01*
X150450807Y-108008167D01*
X150431102Y-107993553D01*
X150412923Y-107977077D01*
X150396447Y-107958898D01*
X150381833Y-107939193D01*
X150369220Y-107918149D01*
X150358730Y-107895971D01*
X150350465Y-107872871D01*
X150344504Y-107849073D01*
X150340904Y-107824804D01*
X150339700Y-107800300D01*
X150339700Y-106550300D01*
X150340904Y-106525796D01*
X150344504Y-106501527D01*
X150350465Y-106477729D01*
X150358730Y-106454629D01*
X150369220Y-106432451D01*
X150381833Y-106411407D01*
X150396447Y-106391702D01*
X150412923Y-106373523D01*
X150431102Y-106357047D01*
X150450807Y-106342433D01*
X150471851Y-106329820D01*
X150494029Y-106319330D01*
X150517129Y-106311065D01*
X150540927Y-106305104D01*
X150565196Y-106301504D01*
X150589700Y-106300300D01*
X151514700Y-106300300D01*
X151539204Y-106301504D01*
X151539204Y-106301504D01*
G37*
D15*
X151052200Y-107175300D03*
M02*
