G04 #@! TF.GenerationSoftware,KiCad,Pcbnew,(5.1.2)-2*
G04 #@! TF.CreationDate,2020-09-10T18:09:44+02:00*
G04 #@! TF.ProjectId,enclosure_helper,656e636c-6f73-4757-9265-5f68656c7065,rev?*
G04 #@! TF.SameCoordinates,Original*
G04 #@! TF.FileFunction,Soldermask,Bot*
G04 #@! TF.FilePolarity,Negative*
%FSLAX46Y46*%
G04 Gerber Fmt 4.6, Leading zero omitted, Abs format (unit mm)*
G04 Created by KiCad (PCBNEW (5.1.2)-2) date 2020-09-10 18:09:44*
%MOMM*%
%LPD*%
G04 APERTURE LIST*
%ADD10C,0.100000*%
G04 APERTURE END LIST*
D10*
G36*
X138950700Y-89509600D02*
G01*
X139598400Y-90233500D01*
X139738100Y-90563700D01*
X139649200Y-90703400D01*
X138582400Y-91770200D01*
X138480800Y-91846400D01*
X138366500Y-91909900D01*
X138264900Y-91948000D01*
X138137900Y-91986100D01*
X137985500Y-92011500D01*
X131152900Y-92011500D01*
X130543300Y-92621100D01*
X130543300Y-97066100D01*
X130530600Y-97180400D01*
X130505200Y-97282000D01*
X130454400Y-97409000D01*
X130390900Y-97536000D01*
X130314700Y-97637600D01*
X125349000Y-102603300D01*
X125209300Y-102692200D01*
X125095000Y-102743000D01*
X124891800Y-102793800D01*
X124599700Y-102806500D01*
X119811800Y-102793800D01*
X119507000Y-100812600D01*
X124333000Y-100799900D01*
X128549400Y-96570800D01*
X128562100Y-92151200D01*
X128600200Y-91935300D01*
X128651000Y-91732100D01*
X128778000Y-91579700D01*
X130086100Y-90258900D01*
X130213100Y-90157300D01*
X130416300Y-90055700D01*
X130644900Y-90004900D01*
X137528300Y-90004900D01*
X138176000Y-89357200D01*
X138950700Y-89509600D01*
G37*
X138950700Y-89509600D02*
X139598400Y-90233500D01*
X139738100Y-90563700D01*
X139649200Y-90703400D01*
X138582400Y-91770200D01*
X138480800Y-91846400D01*
X138366500Y-91909900D01*
X138264900Y-91948000D01*
X138137900Y-91986100D01*
X137985500Y-92011500D01*
X131152900Y-92011500D01*
X130543300Y-92621100D01*
X130543300Y-97066100D01*
X130530600Y-97180400D01*
X130505200Y-97282000D01*
X130454400Y-97409000D01*
X130390900Y-97536000D01*
X130314700Y-97637600D01*
X125349000Y-102603300D01*
X125209300Y-102692200D01*
X125095000Y-102743000D01*
X124891800Y-102793800D01*
X124599700Y-102806500D01*
X119811800Y-102793800D01*
X119507000Y-100812600D01*
X124333000Y-100799900D01*
X128549400Y-96570800D01*
X128562100Y-92151200D01*
X128600200Y-91935300D01*
X128651000Y-91732100D01*
X128778000Y-91579700D01*
X130086100Y-90258900D01*
X130213100Y-90157300D01*
X130416300Y-90055700D01*
X130644900Y-90004900D01*
X137528300Y-90004900D01*
X138176000Y-89357200D01*
X138950700Y-89509600D01*
G36*
X119849900Y-84112100D02*
G01*
X119849900Y-90551000D01*
X119862600Y-90817700D01*
X117856000Y-90779600D01*
X117843300Y-84607400D01*
X117830600Y-84035900D01*
X119849900Y-84112100D01*
G37*
X119849900Y-84112100D02*
X119849900Y-90551000D01*
X119862600Y-90817700D01*
X117856000Y-90779600D01*
X117843300Y-84607400D01*
X117830600Y-84035900D01*
X119849900Y-84112100D01*
G36*
X123431300Y-77470000D02*
G01*
X123558300Y-77508100D01*
X123736100Y-77584300D01*
X123875800Y-77685900D01*
X126022100Y-79832200D01*
X126136400Y-79997300D01*
X126212600Y-80175100D01*
X126250700Y-80340200D01*
X126250700Y-95072200D01*
X126263400Y-95123000D01*
X126276100Y-95262700D01*
X126263400Y-95453200D01*
X126187200Y-95694500D01*
X126111000Y-95834200D01*
X125971300Y-95986600D01*
X124447300Y-97510600D01*
X124333000Y-97599500D01*
X124231400Y-97650300D01*
X124104400Y-97701100D01*
X123952000Y-97739200D01*
X123837700Y-97751900D01*
X122669300Y-97751900D01*
X122593100Y-97739200D01*
X122440700Y-97726500D01*
X120027700Y-97726500D01*
X119976900Y-97713800D01*
X119380000Y-97307400D01*
X119354600Y-95719900D01*
X122707400Y-95719900D01*
X122859800Y-95745300D01*
X123380500Y-95745300D01*
X124256800Y-94869000D01*
X124256800Y-80886300D01*
X122821700Y-79438500D01*
X120434100Y-79451200D01*
X119659400Y-79451200D01*
X119316500Y-77457300D01*
X123278900Y-77457300D01*
X123431300Y-77470000D01*
G37*
X123431300Y-77470000D02*
X123558300Y-77508100D01*
X123736100Y-77584300D01*
X123875800Y-77685900D01*
X126022100Y-79832200D01*
X126136400Y-79997300D01*
X126212600Y-80175100D01*
X126250700Y-80340200D01*
X126250700Y-95072200D01*
X126263400Y-95123000D01*
X126276100Y-95262700D01*
X126263400Y-95453200D01*
X126187200Y-95694500D01*
X126111000Y-95834200D01*
X125971300Y-95986600D01*
X124447300Y-97510600D01*
X124333000Y-97599500D01*
X124231400Y-97650300D01*
X124104400Y-97701100D01*
X123952000Y-97739200D01*
X123837700Y-97751900D01*
X122669300Y-97751900D01*
X122593100Y-97739200D01*
X122440700Y-97726500D01*
X120027700Y-97726500D01*
X119976900Y-97713800D01*
X119380000Y-97307400D01*
X119354600Y-95719900D01*
X122707400Y-95719900D01*
X122859800Y-95745300D01*
X123380500Y-95745300D01*
X124256800Y-94869000D01*
X124256800Y-80886300D01*
X122821700Y-79438500D01*
X120434100Y-79451200D01*
X119659400Y-79451200D01*
X119316500Y-77457300D01*
X123278900Y-77457300D01*
X123431300Y-77470000D01*
G36*
X129654300Y-84099400D02*
G01*
X129641600Y-84480400D01*
X129578100Y-84696300D01*
X129451100Y-84924900D01*
X129298700Y-85090000D01*
X129108200Y-85204300D01*
X128917700Y-85280500D01*
X128701800Y-85318600D01*
X128460500Y-85293200D01*
X128257300Y-85229700D01*
X128041400Y-85102700D01*
X127901700Y-84988400D01*
X127762000Y-84772500D01*
X127685800Y-84556600D01*
X127660400Y-84340700D01*
X127647700Y-84099400D01*
X127647700Y-77558900D01*
X129654300Y-77266800D01*
X129654300Y-84099400D01*
G37*
X129654300Y-84099400D02*
X129641600Y-84480400D01*
X129578100Y-84696300D01*
X129451100Y-84924900D01*
X129298700Y-85090000D01*
X129108200Y-85204300D01*
X128917700Y-85280500D01*
X128701800Y-85318600D01*
X128460500Y-85293200D01*
X128257300Y-85229700D01*
X128041400Y-85102700D01*
X127901700Y-84988400D01*
X127762000Y-84772500D01*
X127685800Y-84556600D01*
X127660400Y-84340700D01*
X127647700Y-84099400D01*
X127647700Y-77558900D01*
X129654300Y-77266800D01*
X129654300Y-84099400D01*
G36*
X125349000Y-72390000D02*
G01*
X125463300Y-72428100D01*
X125653800Y-72504300D01*
X125755400Y-72567800D01*
X125882400Y-72669400D01*
X129019300Y-75819000D01*
X129476500Y-77228700D01*
X127558800Y-77114400D01*
X127419100Y-77038200D01*
X124764800Y-74383900D01*
X120319800Y-74371200D01*
X118719600Y-72402700D01*
X120637300Y-72377300D01*
X125183900Y-72377300D01*
X125349000Y-72390000D01*
G37*
X125349000Y-72390000D02*
X125463300Y-72428100D01*
X125653800Y-72504300D01*
X125755400Y-72567800D01*
X125882400Y-72669400D01*
X129019300Y-75819000D01*
X129476500Y-77228700D01*
X127558800Y-77114400D01*
X127419100Y-77038200D01*
X124764800Y-74383900D01*
X120319800Y-74371200D01*
X118719600Y-72402700D01*
X120637300Y-72377300D01*
X125183900Y-72377300D01*
X125349000Y-72390000D01*
G36*
X129565400Y-71005700D02*
G01*
X133604000Y-75069700D01*
X133540500Y-75361800D01*
X133045200Y-76314300D01*
X132257800Y-76415900D01*
X128816100Y-73025000D01*
X128231900Y-72186800D01*
X128739900Y-70802500D01*
X129565400Y-71005700D01*
G37*
X129565400Y-71005700D02*
X133604000Y-75069700D01*
X133540500Y-75361800D01*
X133045200Y-76314300D01*
X132257800Y-76415900D01*
X128816100Y-73025000D01*
X128231900Y-72186800D01*
X128739900Y-70802500D01*
X129565400Y-71005700D01*
G36*
X167322500Y-102082600D02*
G01*
X160108900Y-102082600D01*
X160108900Y-93599000D01*
X167322500Y-93599000D01*
X167322500Y-102082600D01*
G37*
X167322500Y-102082600D02*
X160108900Y-102082600D01*
X160108900Y-93599000D01*
X167322500Y-93599000D01*
X167322500Y-102082600D01*
G36*
X167068500Y-117322600D02*
G01*
X159854900Y-117322600D01*
X159854900Y-108585000D01*
X167068500Y-108585000D01*
X167068500Y-117322600D01*
G37*
X167068500Y-117322600D02*
X159854900Y-117322600D01*
X159854900Y-108585000D01*
X167068500Y-108585000D01*
X167068500Y-117322600D01*
G36*
X184016264Y-118166189D02*
G01*
X184207533Y-118245415D01*
X184207535Y-118245416D01*
X184310028Y-118313900D01*
X184379673Y-118360435D01*
X184526065Y-118506827D01*
X184641085Y-118678967D01*
X184720311Y-118870236D01*
X184760700Y-119073284D01*
X184760700Y-119280316D01*
X184720311Y-119483364D01*
X184641085Y-119674633D01*
X184641084Y-119674635D01*
X184526065Y-119846773D01*
X184379673Y-119993165D01*
X184207535Y-120108184D01*
X184207534Y-120108185D01*
X184207533Y-120108185D01*
X184016264Y-120187411D01*
X183813216Y-120227800D01*
X183606184Y-120227800D01*
X183403136Y-120187411D01*
X183211867Y-120108185D01*
X183211866Y-120108185D01*
X183211865Y-120108184D01*
X183039727Y-119993165D01*
X182893335Y-119846773D01*
X182778316Y-119674635D01*
X182778315Y-119674633D01*
X182699089Y-119483364D01*
X182658700Y-119280316D01*
X182658700Y-119073284D01*
X182699089Y-118870236D01*
X182778315Y-118678967D01*
X182893335Y-118506827D01*
X183039727Y-118360435D01*
X183109372Y-118313900D01*
X183211865Y-118245416D01*
X183211867Y-118245415D01*
X183403136Y-118166189D01*
X183606184Y-118125800D01*
X183813216Y-118125800D01*
X184016264Y-118166189D01*
X184016264Y-118166189D01*
G37*
G36*
X179516264Y-118166189D02*
G01*
X179707533Y-118245415D01*
X179707535Y-118245416D01*
X179810028Y-118313900D01*
X179879673Y-118360435D01*
X180026065Y-118506827D01*
X180141085Y-118678967D01*
X180220311Y-118870236D01*
X180260700Y-119073284D01*
X180260700Y-119280316D01*
X180220311Y-119483364D01*
X180141085Y-119674633D01*
X180141084Y-119674635D01*
X180026065Y-119846773D01*
X179879673Y-119993165D01*
X179707535Y-120108184D01*
X179707534Y-120108185D01*
X179707533Y-120108185D01*
X179516264Y-120187411D01*
X179313216Y-120227800D01*
X179106184Y-120227800D01*
X178903136Y-120187411D01*
X178711867Y-120108185D01*
X178711866Y-120108185D01*
X178711865Y-120108184D01*
X178539727Y-119993165D01*
X178393335Y-119846773D01*
X178278316Y-119674635D01*
X178278315Y-119674633D01*
X178199089Y-119483364D01*
X178158700Y-119280316D01*
X178158700Y-119073284D01*
X178199089Y-118870236D01*
X178278315Y-118678967D01*
X178393335Y-118506827D01*
X178539727Y-118360435D01*
X178609372Y-118313900D01*
X178711865Y-118245416D01*
X178711867Y-118245415D01*
X178903136Y-118166189D01*
X179106184Y-118125800D01*
X179313216Y-118125800D01*
X179516264Y-118166189D01*
X179516264Y-118166189D01*
G37*
G36*
X170499264Y-118166189D02*
G01*
X170690533Y-118245415D01*
X170690535Y-118245416D01*
X170793028Y-118313900D01*
X170862673Y-118360435D01*
X171009065Y-118506827D01*
X171124085Y-118678967D01*
X171203311Y-118870236D01*
X171243700Y-119073284D01*
X171243700Y-119280316D01*
X171203311Y-119483364D01*
X171124085Y-119674633D01*
X171124084Y-119674635D01*
X171009065Y-119846773D01*
X170862673Y-119993165D01*
X170690535Y-120108184D01*
X170690534Y-120108185D01*
X170690533Y-120108185D01*
X170499264Y-120187411D01*
X170296216Y-120227800D01*
X170089184Y-120227800D01*
X169886136Y-120187411D01*
X169694867Y-120108185D01*
X169694866Y-120108185D01*
X169694865Y-120108184D01*
X169522727Y-119993165D01*
X169376335Y-119846773D01*
X169261316Y-119674635D01*
X169261315Y-119674633D01*
X169182089Y-119483364D01*
X169141700Y-119280316D01*
X169141700Y-119073284D01*
X169182089Y-118870236D01*
X169261315Y-118678967D01*
X169376335Y-118506827D01*
X169522727Y-118360435D01*
X169592372Y-118313900D01*
X169694865Y-118245416D01*
X169694867Y-118245415D01*
X169886136Y-118166189D01*
X170089184Y-118125800D01*
X170296216Y-118125800D01*
X170499264Y-118166189D01*
X170499264Y-118166189D01*
G37*
G36*
X174999264Y-118166189D02*
G01*
X175190533Y-118245415D01*
X175190535Y-118245416D01*
X175293028Y-118313900D01*
X175362673Y-118360435D01*
X175509065Y-118506827D01*
X175624085Y-118678967D01*
X175703311Y-118870236D01*
X175743700Y-119073284D01*
X175743700Y-119280316D01*
X175703311Y-119483364D01*
X175624085Y-119674633D01*
X175624084Y-119674635D01*
X175509065Y-119846773D01*
X175362673Y-119993165D01*
X175190535Y-120108184D01*
X175190534Y-120108185D01*
X175190533Y-120108185D01*
X174999264Y-120187411D01*
X174796216Y-120227800D01*
X174589184Y-120227800D01*
X174386136Y-120187411D01*
X174194867Y-120108185D01*
X174194866Y-120108185D01*
X174194865Y-120108184D01*
X174022727Y-119993165D01*
X173876335Y-119846773D01*
X173761316Y-119674635D01*
X173761315Y-119674633D01*
X173682089Y-119483364D01*
X173641700Y-119280316D01*
X173641700Y-119073284D01*
X173682089Y-118870236D01*
X173761315Y-118678967D01*
X173876335Y-118506827D01*
X174022727Y-118360435D01*
X174092372Y-118313900D01*
X174194865Y-118245416D01*
X174194867Y-118245415D01*
X174386136Y-118166189D01*
X174589184Y-118125800D01*
X174796216Y-118125800D01*
X174999264Y-118166189D01*
X174999264Y-118166189D01*
G37*
G36*
X163359400Y-120115900D02*
G01*
X161557400Y-120115900D01*
X161557400Y-118313900D01*
X163359400Y-118313900D01*
X163359400Y-120115900D01*
X163359400Y-120115900D01*
G37*
G36*
X165108843Y-118320419D02*
G01*
X165175027Y-118326937D01*
X165344866Y-118378457D01*
X165501391Y-118462122D01*
X165537129Y-118491452D01*
X165638586Y-118574714D01*
X165721848Y-118676171D01*
X165751178Y-118711909D01*
X165834843Y-118868434D01*
X165886363Y-119038273D01*
X165903759Y-119214900D01*
X165886363Y-119391527D01*
X165834843Y-119561366D01*
X165751178Y-119717891D01*
X165721848Y-119753629D01*
X165638586Y-119855086D01*
X165537129Y-119938348D01*
X165501391Y-119967678D01*
X165344866Y-120051343D01*
X165175027Y-120102863D01*
X165121001Y-120108184D01*
X165042660Y-120115900D01*
X164954140Y-120115900D01*
X164875799Y-120108184D01*
X164821773Y-120102863D01*
X164651934Y-120051343D01*
X164495409Y-119967678D01*
X164459671Y-119938348D01*
X164358214Y-119855086D01*
X164274952Y-119753629D01*
X164245622Y-119717891D01*
X164161957Y-119561366D01*
X164110437Y-119391527D01*
X164093041Y-119214900D01*
X164110437Y-119038273D01*
X164161957Y-118868434D01*
X164245622Y-118711909D01*
X164274952Y-118676171D01*
X164358214Y-118574714D01*
X164459671Y-118491452D01*
X164495409Y-118462122D01*
X164651934Y-118378457D01*
X164821773Y-118326937D01*
X164887957Y-118320419D01*
X164954140Y-118313900D01*
X165042660Y-118313900D01*
X165108843Y-118320419D01*
X165108843Y-118320419D01*
G37*
G36*
X166366700Y-116934133D02*
G01*
X160564700Y-116934133D01*
X160564700Y-110632133D01*
X166366700Y-110632133D01*
X166366700Y-116934133D01*
X166366700Y-116934133D01*
G37*
G36*
X119749697Y-113834469D02*
G01*
X119852632Y-113844607D01*
X120050746Y-113904705D01*
X120050749Y-113904706D01*
X120147575Y-113956461D01*
X120233329Y-114002297D01*
X120393365Y-114133635D01*
X120524703Y-114293671D01*
X120570539Y-114379425D01*
X120622294Y-114476251D01*
X120622295Y-114476254D01*
X120682393Y-114674368D01*
X120702685Y-114880400D01*
X120682393Y-115086432D01*
X120622295Y-115284546D01*
X120622294Y-115284549D01*
X120570539Y-115381375D01*
X120524703Y-115467129D01*
X120393365Y-115627165D01*
X120233329Y-115758503D01*
X120147575Y-115804339D01*
X120050749Y-115856094D01*
X120050746Y-115856095D01*
X119852632Y-115916193D01*
X119749697Y-115926331D01*
X119698231Y-115931400D01*
X117994969Y-115931400D01*
X117943503Y-115926331D01*
X117840568Y-115916193D01*
X117642454Y-115856095D01*
X117642451Y-115856094D01*
X117545625Y-115804339D01*
X117459871Y-115758503D01*
X117299835Y-115627165D01*
X117168497Y-115467129D01*
X117122661Y-115381375D01*
X117070906Y-115284549D01*
X117070905Y-115284546D01*
X117010807Y-115086432D01*
X116990515Y-114880400D01*
X117010807Y-114674368D01*
X117070905Y-114476254D01*
X117070906Y-114476251D01*
X117122661Y-114379425D01*
X117168497Y-114293671D01*
X117299835Y-114133635D01*
X117459871Y-114002297D01*
X117545625Y-113956461D01*
X117642451Y-113904706D01*
X117642454Y-113904705D01*
X117840568Y-113844607D01*
X117943503Y-113834469D01*
X117994969Y-113829400D01*
X119698231Y-113829400D01*
X119749697Y-113834469D01*
X119749697Y-113834469D01*
G37*
G36*
X137899900Y-114191400D02*
G01*
X136597900Y-114191400D01*
X136597900Y-113189400D01*
X137899900Y-113189400D01*
X137899900Y-114191400D01*
X137899900Y-114191400D01*
G37*
G36*
X170499264Y-111666189D02*
G01*
X170690533Y-111745415D01*
X170690535Y-111745416D01*
X170862673Y-111860435D01*
X171009065Y-112006827D01*
X171124085Y-112178967D01*
X171203311Y-112370236D01*
X171243700Y-112573284D01*
X171243700Y-112780316D01*
X171203311Y-112983364D01*
X171124085Y-113174633D01*
X171124084Y-113174635D01*
X171009065Y-113346773D01*
X170862673Y-113493165D01*
X170690535Y-113608184D01*
X170690534Y-113608185D01*
X170690533Y-113608185D01*
X170499264Y-113687411D01*
X170296216Y-113727800D01*
X170089184Y-113727800D01*
X169886136Y-113687411D01*
X169694867Y-113608185D01*
X169694866Y-113608185D01*
X169694865Y-113608184D01*
X169522727Y-113493165D01*
X169376335Y-113346773D01*
X169261316Y-113174635D01*
X169261315Y-113174633D01*
X169182089Y-112983364D01*
X169141700Y-112780316D01*
X169141700Y-112573284D01*
X169182089Y-112370236D01*
X169261315Y-112178967D01*
X169376335Y-112006827D01*
X169522727Y-111860435D01*
X169694865Y-111745416D01*
X169694867Y-111745415D01*
X169886136Y-111666189D01*
X170089184Y-111625800D01*
X170296216Y-111625800D01*
X170499264Y-111666189D01*
X170499264Y-111666189D01*
G37*
G36*
X174999264Y-111666189D02*
G01*
X175190533Y-111745415D01*
X175190535Y-111745416D01*
X175362673Y-111860435D01*
X175509065Y-112006827D01*
X175624085Y-112178967D01*
X175703311Y-112370236D01*
X175743700Y-112573284D01*
X175743700Y-112780316D01*
X175703311Y-112983364D01*
X175624085Y-113174633D01*
X175624084Y-113174635D01*
X175509065Y-113346773D01*
X175362673Y-113493165D01*
X175190535Y-113608184D01*
X175190534Y-113608185D01*
X175190533Y-113608185D01*
X174999264Y-113687411D01*
X174796216Y-113727800D01*
X174589184Y-113727800D01*
X174386136Y-113687411D01*
X174194867Y-113608185D01*
X174194866Y-113608185D01*
X174194865Y-113608184D01*
X174022727Y-113493165D01*
X173876335Y-113346773D01*
X173761316Y-113174635D01*
X173761315Y-113174633D01*
X173682089Y-112983364D01*
X173641700Y-112780316D01*
X173641700Y-112573284D01*
X173682089Y-112370236D01*
X173761315Y-112178967D01*
X173876335Y-112006827D01*
X174022727Y-111860435D01*
X174194865Y-111745416D01*
X174194867Y-111745415D01*
X174386136Y-111666189D01*
X174589184Y-111625800D01*
X174796216Y-111625800D01*
X174999264Y-111666189D01*
X174999264Y-111666189D01*
G37*
G36*
X179516264Y-111666189D02*
G01*
X179707533Y-111745415D01*
X179707535Y-111745416D01*
X179879673Y-111860435D01*
X180026065Y-112006827D01*
X180141085Y-112178967D01*
X180220311Y-112370236D01*
X180260700Y-112573284D01*
X180260700Y-112780316D01*
X180220311Y-112983364D01*
X180141085Y-113174633D01*
X180141084Y-113174635D01*
X180026065Y-113346773D01*
X179879673Y-113493165D01*
X179707535Y-113608184D01*
X179707534Y-113608185D01*
X179707533Y-113608185D01*
X179516264Y-113687411D01*
X179313216Y-113727800D01*
X179106184Y-113727800D01*
X178903136Y-113687411D01*
X178711867Y-113608185D01*
X178711866Y-113608185D01*
X178711865Y-113608184D01*
X178539727Y-113493165D01*
X178393335Y-113346773D01*
X178278316Y-113174635D01*
X178278315Y-113174633D01*
X178199089Y-112983364D01*
X178158700Y-112780316D01*
X178158700Y-112573284D01*
X178199089Y-112370236D01*
X178278315Y-112178967D01*
X178393335Y-112006827D01*
X178539727Y-111860435D01*
X178711865Y-111745416D01*
X178711867Y-111745415D01*
X178903136Y-111666189D01*
X179106184Y-111625800D01*
X179313216Y-111625800D01*
X179516264Y-111666189D01*
X179516264Y-111666189D01*
G37*
G36*
X184016264Y-111666189D02*
G01*
X184207533Y-111745415D01*
X184207535Y-111745416D01*
X184379673Y-111860435D01*
X184526065Y-112006827D01*
X184641085Y-112178967D01*
X184720311Y-112370236D01*
X184760700Y-112573284D01*
X184760700Y-112780316D01*
X184720311Y-112983364D01*
X184641085Y-113174633D01*
X184641084Y-113174635D01*
X184526065Y-113346773D01*
X184379673Y-113493165D01*
X184207535Y-113608184D01*
X184207534Y-113608185D01*
X184207533Y-113608185D01*
X184016264Y-113687411D01*
X183813216Y-113727800D01*
X183606184Y-113727800D01*
X183403136Y-113687411D01*
X183211867Y-113608185D01*
X183211866Y-113608185D01*
X183211865Y-113608184D01*
X183039727Y-113493165D01*
X182893335Y-113346773D01*
X182778316Y-113174635D01*
X182778315Y-113174633D01*
X182699089Y-112983364D01*
X182658700Y-112780316D01*
X182658700Y-112573284D01*
X182699089Y-112370236D01*
X182778315Y-112178967D01*
X182893335Y-112006827D01*
X183039727Y-111860435D01*
X183211865Y-111745416D01*
X183211867Y-111745415D01*
X183403136Y-111666189D01*
X183606184Y-111625800D01*
X183813216Y-111625800D01*
X184016264Y-111666189D01*
X184016264Y-111666189D01*
G37*
G36*
X135575800Y-113467500D02*
G01*
X134273800Y-113467500D01*
X134273800Y-112465500D01*
X135575800Y-112465500D01*
X135575800Y-113467500D01*
X135575800Y-113467500D01*
G37*
G36*
X120561452Y-108833240D02*
G01*
X120593043Y-108842823D01*
X120622157Y-108858385D01*
X120647674Y-108879326D01*
X120668615Y-108904843D01*
X120684177Y-108933957D01*
X120693760Y-108965548D01*
X120697600Y-109004540D01*
X120697600Y-110756260D01*
X120693760Y-110795252D01*
X120684177Y-110826843D01*
X120668615Y-110855957D01*
X120647674Y-110881474D01*
X120622157Y-110902415D01*
X120593043Y-110917977D01*
X120561452Y-110927560D01*
X120522460Y-110931400D01*
X117170740Y-110931400D01*
X117131748Y-110927560D01*
X117100157Y-110917977D01*
X117071043Y-110902415D01*
X117045526Y-110881474D01*
X117024585Y-110855957D01*
X117009023Y-110826843D01*
X116999440Y-110795252D01*
X116995600Y-110756260D01*
X116995600Y-109004540D01*
X116999440Y-108965548D01*
X117009023Y-108933957D01*
X117024585Y-108904843D01*
X117045526Y-108879326D01*
X117071043Y-108858385D01*
X117100157Y-108842823D01*
X117131748Y-108833240D01*
X117170740Y-108829400D01*
X120522460Y-108829400D01*
X120561452Y-108833240D01*
X120561452Y-108833240D01*
G37*
G36*
X137899900Y-110891400D02*
G01*
X136597900Y-110891400D01*
X136597900Y-109889400D01*
X137899900Y-109889400D01*
X137899900Y-110891400D01*
X137899900Y-110891400D01*
G37*
G36*
X135575800Y-110167500D02*
G01*
X134273800Y-110167500D01*
X134273800Y-109165500D01*
X135575800Y-109165500D01*
X135575800Y-110167500D01*
X135575800Y-110167500D01*
G37*
G36*
X154640262Y-106253481D02*
G01*
X154675181Y-106264074D01*
X154707363Y-106281276D01*
X154735573Y-106304427D01*
X154758724Y-106332637D01*
X154775926Y-106364819D01*
X154786519Y-106399738D01*
X154790700Y-106442195D01*
X154790700Y-107908405D01*
X154786519Y-107950862D01*
X154775926Y-107985781D01*
X154758724Y-108017963D01*
X154735573Y-108046173D01*
X154707363Y-108069324D01*
X154675181Y-108086526D01*
X154640262Y-108097119D01*
X154597805Y-108101300D01*
X153456595Y-108101300D01*
X153414138Y-108097119D01*
X153379219Y-108086526D01*
X153347037Y-108069324D01*
X153318827Y-108046173D01*
X153295676Y-108017963D01*
X153278474Y-107985781D01*
X153267881Y-107950862D01*
X153263700Y-107908405D01*
X153263700Y-106442195D01*
X153267881Y-106399738D01*
X153278474Y-106364819D01*
X153295676Y-106332637D01*
X153318827Y-106304427D01*
X153347037Y-106281276D01*
X153379219Y-106264074D01*
X153414138Y-106253481D01*
X153456595Y-106249300D01*
X154597805Y-106249300D01*
X154640262Y-106253481D01*
X154640262Y-106253481D01*
G37*
G36*
X151665262Y-106253481D02*
G01*
X151700181Y-106264074D01*
X151732363Y-106281276D01*
X151760573Y-106304427D01*
X151783724Y-106332637D01*
X151800926Y-106364819D01*
X151811519Y-106399738D01*
X151815700Y-106442195D01*
X151815700Y-107908405D01*
X151811519Y-107950862D01*
X151800926Y-107985781D01*
X151783724Y-108017963D01*
X151760573Y-108046173D01*
X151732363Y-108069324D01*
X151700181Y-108086526D01*
X151665262Y-108097119D01*
X151622805Y-108101300D01*
X150481595Y-108101300D01*
X150439138Y-108097119D01*
X150404219Y-108086526D01*
X150372037Y-108069324D01*
X150343827Y-108046173D01*
X150320676Y-108017963D01*
X150303474Y-107985781D01*
X150292881Y-107950862D01*
X150288700Y-107908405D01*
X150288700Y-106442195D01*
X150292881Y-106399738D01*
X150303474Y-106364819D01*
X150320676Y-106332637D01*
X150343827Y-106304427D01*
X150372037Y-106281276D01*
X150404219Y-106264074D01*
X150439138Y-106253481D01*
X150481595Y-106249300D01*
X151622805Y-106249300D01*
X151665262Y-106253481D01*
X151665262Y-106253481D01*
G37*
G36*
X172032700Y-108092800D02*
G01*
X170130700Y-108092800D01*
X170130700Y-103590800D01*
X172032700Y-103590800D01*
X172032700Y-108092800D01*
X172032700Y-108092800D01*
G37*
G36*
X177068124Y-103804560D02*
G01*
X177068127Y-103804561D01*
X177068128Y-103804561D01*
X177247392Y-103858940D01*
X177247395Y-103858942D01*
X177247396Y-103858942D01*
X177412603Y-103947246D01*
X177557412Y-104066088D01*
X177676254Y-104210897D01*
X177753171Y-104354800D01*
X177764560Y-104376107D01*
X177815157Y-104542905D01*
X177818940Y-104555375D01*
X177832700Y-104695082D01*
X177832700Y-106988518D01*
X177818940Y-107128225D01*
X177818939Y-107128228D01*
X177818939Y-107128229D01*
X177764560Y-107307493D01*
X177764558Y-107307496D01*
X177764558Y-107307497D01*
X177676254Y-107472703D01*
X177557412Y-107617512D01*
X177412603Y-107736354D01*
X177247397Y-107824658D01*
X177247393Y-107824660D01*
X177068129Y-107879039D01*
X177068128Y-107879039D01*
X177068125Y-107879040D01*
X176881700Y-107897401D01*
X176695276Y-107879040D01*
X176695273Y-107879039D01*
X176695272Y-107879039D01*
X176516008Y-107824660D01*
X176516004Y-107824658D01*
X176350798Y-107736354D01*
X176205989Y-107617512D01*
X176087147Y-107472703D01*
X175998843Y-107307497D01*
X175998843Y-107307496D01*
X175998841Y-107307493D01*
X175944462Y-107128229D01*
X175944462Y-107128228D01*
X175944461Y-107128225D01*
X175930701Y-106988518D01*
X175930700Y-104695083D01*
X175944460Y-104555376D01*
X175944461Y-104555372D01*
X175998840Y-104376108D01*
X176021129Y-104334408D01*
X176087146Y-104210897D01*
X176205988Y-104066088D01*
X176350797Y-103947246D01*
X176516003Y-103858942D01*
X176516004Y-103858942D01*
X176516007Y-103858940D01*
X176695271Y-103804561D01*
X176695272Y-103804561D01*
X176695275Y-103804560D01*
X176881700Y-103786199D01*
X177068124Y-103804560D01*
X177068124Y-103804560D01*
G37*
G36*
X165934041Y-105411964D02*
G01*
X166105529Y-105463985D01*
X166184551Y-105506223D01*
X166263575Y-105548461D01*
X166353675Y-105622405D01*
X166402102Y-105662148D01*
X166515667Y-105800526D01*
X166515792Y-105800679D01*
X166600264Y-105958716D01*
X166600266Y-105958722D01*
X166652286Y-106130208D01*
X166652286Y-106130210D01*
X166664523Y-106254448D01*
X166665450Y-106263866D01*
X166665450Y-106435733D01*
X166652286Y-106569391D01*
X166600265Y-106740879D01*
X166515789Y-106898925D01*
X166402102Y-107037452D01*
X166291491Y-107128229D01*
X166263571Y-107151142D01*
X166105534Y-107235614D01*
X166060909Y-107249151D01*
X165934042Y-107287636D01*
X165755700Y-107305201D01*
X165577359Y-107287636D01*
X165405871Y-107235615D01*
X165247825Y-107151139D01*
X165109298Y-107037452D01*
X164995608Y-106898921D01*
X164911136Y-106740884D01*
X164897599Y-106696259D01*
X164859114Y-106569392D01*
X164845950Y-106435734D01*
X164845950Y-106263867D01*
X164859114Y-106130209D01*
X164911135Y-105958721D01*
X164995609Y-105800679D01*
X164995611Y-105800675D01*
X165109298Y-105662148D01*
X165157725Y-105622405D01*
X165247825Y-105548461D01*
X165247826Y-105548460D01*
X165247829Y-105548458D01*
X165405866Y-105463986D01*
X165450491Y-105450449D01*
X165577358Y-105411964D01*
X165755700Y-105394399D01*
X165934041Y-105411964D01*
X165934041Y-105411964D01*
G37*
G36*
X163644041Y-105411964D02*
G01*
X163815529Y-105463985D01*
X163894551Y-105506223D01*
X163973575Y-105548461D01*
X164063675Y-105622405D01*
X164112102Y-105662148D01*
X164225667Y-105800526D01*
X164225792Y-105800679D01*
X164310264Y-105958716D01*
X164310266Y-105958722D01*
X164362286Y-106130208D01*
X164362286Y-106130210D01*
X164374523Y-106254448D01*
X164375450Y-106263866D01*
X164375450Y-106435733D01*
X164362286Y-106569391D01*
X164310265Y-106740879D01*
X164225789Y-106898925D01*
X164112102Y-107037452D01*
X164001491Y-107128229D01*
X163973571Y-107151142D01*
X163815534Y-107235614D01*
X163770909Y-107249151D01*
X163644042Y-107287636D01*
X163465700Y-107305201D01*
X163287359Y-107287636D01*
X163115871Y-107235615D01*
X162957825Y-107151139D01*
X162819298Y-107037452D01*
X162705608Y-106898921D01*
X162621136Y-106740884D01*
X162607599Y-106696259D01*
X162569114Y-106569392D01*
X162555950Y-106435734D01*
X162555950Y-106263867D01*
X162569114Y-106130209D01*
X162621135Y-105958721D01*
X162705609Y-105800679D01*
X162705611Y-105800675D01*
X162819298Y-105662148D01*
X162867725Y-105622405D01*
X162957825Y-105548461D01*
X162957826Y-105548460D01*
X162957829Y-105548458D01*
X163115866Y-105463986D01*
X163160491Y-105450449D01*
X163287358Y-105411964D01*
X163465700Y-105394399D01*
X163644041Y-105411964D01*
X163644041Y-105411964D01*
G37*
G36*
X162085450Y-107300800D02*
G01*
X160265950Y-107300800D01*
X160265950Y-105398800D01*
X162085450Y-105398800D01*
X162085450Y-107300800D01*
X162085450Y-107300800D01*
G37*
G36*
X151665262Y-103967481D02*
G01*
X151700181Y-103978074D01*
X151732363Y-103995276D01*
X151760573Y-104018427D01*
X151783724Y-104046637D01*
X151800926Y-104078819D01*
X151811519Y-104113738D01*
X151815700Y-104156195D01*
X151815700Y-105622405D01*
X151811519Y-105664862D01*
X151800926Y-105699781D01*
X151783724Y-105731963D01*
X151760573Y-105760173D01*
X151732363Y-105783324D01*
X151700181Y-105800526D01*
X151665262Y-105811119D01*
X151622805Y-105815300D01*
X150481595Y-105815300D01*
X150439138Y-105811119D01*
X150404219Y-105800526D01*
X150372037Y-105783324D01*
X150343827Y-105760173D01*
X150320676Y-105731963D01*
X150303474Y-105699781D01*
X150292881Y-105664862D01*
X150288700Y-105622405D01*
X150288700Y-104156195D01*
X150292881Y-104113738D01*
X150303474Y-104078819D01*
X150320676Y-104046637D01*
X150343827Y-104018427D01*
X150372037Y-103995276D01*
X150404219Y-103978074D01*
X150439138Y-103967481D01*
X150481595Y-103963300D01*
X151622805Y-103963300D01*
X151665262Y-103967481D01*
X151665262Y-103967481D01*
G37*
G36*
X154640262Y-103967481D02*
G01*
X154675181Y-103978074D01*
X154707363Y-103995276D01*
X154735573Y-104018427D01*
X154758724Y-104046637D01*
X154775926Y-104078819D01*
X154786519Y-104113738D01*
X154790700Y-104156195D01*
X154790700Y-105622405D01*
X154786519Y-105664862D01*
X154775926Y-105699781D01*
X154758724Y-105731963D01*
X154735573Y-105760173D01*
X154707363Y-105783324D01*
X154675181Y-105800526D01*
X154640262Y-105811119D01*
X154597805Y-105815300D01*
X153456595Y-105815300D01*
X153414138Y-105811119D01*
X153379219Y-105800526D01*
X153347037Y-105783324D01*
X153318827Y-105760173D01*
X153295676Y-105731963D01*
X153278474Y-105699781D01*
X153267881Y-105664862D01*
X153263700Y-105622405D01*
X153263700Y-104156195D01*
X153267881Y-104113738D01*
X153278474Y-104078819D01*
X153295676Y-104046637D01*
X153318827Y-104018427D01*
X153347037Y-103995276D01*
X153379219Y-103978074D01*
X153414138Y-103967481D01*
X153456595Y-103963300D01*
X154597805Y-103963300D01*
X154640262Y-103967481D01*
X154640262Y-103967481D01*
G37*
G36*
X164890762Y-102887981D02*
G01*
X164925681Y-102898574D01*
X164957863Y-102915776D01*
X164986073Y-102938927D01*
X165009224Y-102967137D01*
X165026426Y-102999319D01*
X165037019Y-103034238D01*
X165041200Y-103076695D01*
X165041200Y-104542905D01*
X165037019Y-104585362D01*
X165026426Y-104620281D01*
X165009224Y-104652463D01*
X164986073Y-104680673D01*
X164957863Y-104703824D01*
X164925681Y-104721026D01*
X164890762Y-104731619D01*
X164848305Y-104735800D01*
X163707095Y-104735800D01*
X163664638Y-104731619D01*
X163629719Y-104721026D01*
X163597537Y-104703824D01*
X163569327Y-104680673D01*
X163546176Y-104652463D01*
X163528974Y-104620281D01*
X163518381Y-104585362D01*
X163514200Y-104542905D01*
X163514200Y-103076695D01*
X163518381Y-103034238D01*
X163528974Y-102999319D01*
X163546176Y-102967137D01*
X163569327Y-102938927D01*
X163597537Y-102915776D01*
X163629719Y-102898574D01*
X163664638Y-102887981D01*
X163707095Y-102883800D01*
X164848305Y-102883800D01*
X164890762Y-102887981D01*
X164890762Y-102887981D01*
G37*
G36*
X161915762Y-102887981D02*
G01*
X161950681Y-102898574D01*
X161982863Y-102915776D01*
X162011073Y-102938927D01*
X162034224Y-102967137D01*
X162051426Y-102999319D01*
X162062019Y-103034238D01*
X162066200Y-103076695D01*
X162066200Y-104542905D01*
X162062019Y-104585362D01*
X162051426Y-104620281D01*
X162034224Y-104652463D01*
X162011073Y-104680673D01*
X161982863Y-104703824D01*
X161950681Y-104721026D01*
X161915762Y-104731619D01*
X161873305Y-104735800D01*
X160732095Y-104735800D01*
X160689638Y-104731619D01*
X160654719Y-104721026D01*
X160622537Y-104703824D01*
X160594327Y-104680673D01*
X160571176Y-104652463D01*
X160553974Y-104620281D01*
X160543381Y-104585362D01*
X160539200Y-104542905D01*
X160539200Y-103076695D01*
X160543381Y-103034238D01*
X160553974Y-102999319D01*
X160571176Y-102967137D01*
X160594327Y-102938927D01*
X160622537Y-102915776D01*
X160654719Y-102898574D01*
X160689638Y-102887981D01*
X160732095Y-102883800D01*
X161873305Y-102883800D01*
X161915762Y-102887981D01*
X161915762Y-102887981D01*
G37*
G36*
X148226762Y-102506981D02*
G01*
X148261681Y-102517574D01*
X148293863Y-102534776D01*
X148322073Y-102557927D01*
X148345224Y-102586137D01*
X148362426Y-102618319D01*
X148373019Y-102653238D01*
X148377200Y-102695695D01*
X148377200Y-104161905D01*
X148373019Y-104204362D01*
X148362426Y-104239281D01*
X148345224Y-104271463D01*
X148322073Y-104299673D01*
X148293863Y-104322824D01*
X148261681Y-104340026D01*
X148226762Y-104350619D01*
X148184305Y-104354800D01*
X147043095Y-104354800D01*
X147000638Y-104350619D01*
X146965719Y-104340026D01*
X146933537Y-104322824D01*
X146905327Y-104299673D01*
X146882176Y-104271463D01*
X146864974Y-104239281D01*
X146854381Y-104204362D01*
X146850200Y-104161905D01*
X146850200Y-102695695D01*
X146854381Y-102653238D01*
X146864974Y-102618319D01*
X146882176Y-102586137D01*
X146905327Y-102557927D01*
X146933537Y-102534776D01*
X146965719Y-102517574D01*
X147000638Y-102506981D01*
X147043095Y-102502800D01*
X148184305Y-102502800D01*
X148226762Y-102506981D01*
X148226762Y-102506981D01*
G37*
G36*
X145251762Y-102506981D02*
G01*
X145286681Y-102517574D01*
X145318863Y-102534776D01*
X145347073Y-102557927D01*
X145370224Y-102586137D01*
X145387426Y-102618319D01*
X145398019Y-102653238D01*
X145402200Y-102695695D01*
X145402200Y-104161905D01*
X145398019Y-104204362D01*
X145387426Y-104239281D01*
X145370224Y-104271463D01*
X145347073Y-104299673D01*
X145318863Y-104322824D01*
X145286681Y-104340026D01*
X145251762Y-104350619D01*
X145209305Y-104354800D01*
X144068095Y-104354800D01*
X144025638Y-104350619D01*
X143990719Y-104340026D01*
X143958537Y-104322824D01*
X143930327Y-104299673D01*
X143907176Y-104271463D01*
X143889974Y-104239281D01*
X143879381Y-104204362D01*
X143875200Y-104161905D01*
X143875200Y-102695695D01*
X143879381Y-102653238D01*
X143889974Y-102618319D01*
X143907176Y-102586137D01*
X143930327Y-102557927D01*
X143958537Y-102534776D01*
X143990719Y-102517574D01*
X144025638Y-102506981D01*
X144068095Y-102502800D01*
X145209305Y-102502800D01*
X145251762Y-102506981D01*
X145251762Y-102506981D01*
G37*
G36*
X119807771Y-100727986D02*
G01*
X120013430Y-100790372D01*
X120202955Y-100891675D01*
X120202958Y-100891677D01*
X120202959Y-100891678D01*
X120369086Y-101028014D01*
X120505422Y-101194141D01*
X120505425Y-101194145D01*
X120606728Y-101383670D01*
X120669114Y-101589329D01*
X120690178Y-101803200D01*
X120669114Y-102017071D01*
X120606728Y-102222730D01*
X120505425Y-102412255D01*
X120505423Y-102412258D01*
X120505422Y-102412259D01*
X120369086Y-102578386D01*
X120202959Y-102714722D01*
X120202955Y-102714725D01*
X120013430Y-102816028D01*
X119807771Y-102878414D01*
X119647491Y-102894200D01*
X118020309Y-102894200D01*
X117860029Y-102878414D01*
X117654370Y-102816028D01*
X117464845Y-102714725D01*
X117464841Y-102714722D01*
X117298714Y-102578386D01*
X117162378Y-102412259D01*
X117162377Y-102412258D01*
X117162375Y-102412255D01*
X117061072Y-102222730D01*
X116998686Y-102017071D01*
X116977622Y-101803200D01*
X116998686Y-101589329D01*
X117061072Y-101383670D01*
X117162375Y-101194145D01*
X117162378Y-101194141D01*
X117298714Y-101028014D01*
X117464841Y-100891678D01*
X117464842Y-100891677D01*
X117464845Y-100891675D01*
X117654370Y-100790372D01*
X117860029Y-100727986D01*
X118020309Y-100712200D01*
X119647491Y-100712200D01*
X119807771Y-100727986D01*
X119807771Y-100727986D01*
G37*
G36*
X148226762Y-100220981D02*
G01*
X148261681Y-100231574D01*
X148293863Y-100248776D01*
X148322073Y-100271927D01*
X148345224Y-100300137D01*
X148362426Y-100332319D01*
X148373019Y-100367238D01*
X148377200Y-100409695D01*
X148377200Y-101875905D01*
X148373019Y-101918362D01*
X148362426Y-101953281D01*
X148345224Y-101985463D01*
X148322073Y-102013673D01*
X148293863Y-102036824D01*
X148261681Y-102054026D01*
X148226762Y-102064619D01*
X148184305Y-102068800D01*
X147043095Y-102068800D01*
X147000638Y-102064619D01*
X146965719Y-102054026D01*
X146933537Y-102036824D01*
X146905327Y-102013673D01*
X146882176Y-101985463D01*
X146864974Y-101953281D01*
X146854381Y-101918362D01*
X146850200Y-101875905D01*
X146850200Y-100409695D01*
X146854381Y-100367238D01*
X146864974Y-100332319D01*
X146882176Y-100300137D01*
X146905327Y-100271927D01*
X146933537Y-100248776D01*
X146965719Y-100231574D01*
X147000638Y-100220981D01*
X147043095Y-100216800D01*
X148184305Y-100216800D01*
X148226762Y-100220981D01*
X148226762Y-100220981D01*
G37*
G36*
X145251762Y-100220981D02*
G01*
X145286681Y-100231574D01*
X145318863Y-100248776D01*
X145347073Y-100271927D01*
X145370224Y-100300137D01*
X145387426Y-100332319D01*
X145398019Y-100367238D01*
X145402200Y-100409695D01*
X145402200Y-101875905D01*
X145398019Y-101918362D01*
X145387426Y-101953281D01*
X145370224Y-101985463D01*
X145347073Y-102013673D01*
X145318863Y-102036824D01*
X145286681Y-102054026D01*
X145251762Y-102064619D01*
X145209305Y-102068800D01*
X144068095Y-102068800D01*
X144025638Y-102064619D01*
X143990719Y-102054026D01*
X143958537Y-102036824D01*
X143930327Y-102013673D01*
X143907176Y-101985463D01*
X143889974Y-101953281D01*
X143879381Y-101918362D01*
X143875200Y-101875905D01*
X143875200Y-100409695D01*
X143879381Y-100367238D01*
X143889974Y-100332319D01*
X143907176Y-100300137D01*
X143930327Y-100271927D01*
X143958537Y-100248776D01*
X143990719Y-100231574D01*
X144025638Y-100220981D01*
X144068095Y-100216800D01*
X145209305Y-100216800D01*
X145251762Y-100220981D01*
X145251762Y-100220981D01*
G37*
G36*
X175368125Y-100104560D02*
G01*
X175368128Y-100104561D01*
X175368129Y-100104561D01*
X175547393Y-100158940D01*
X175547396Y-100158942D01*
X175547397Y-100158942D01*
X175712603Y-100247246D01*
X175857412Y-100366088D01*
X175976254Y-100510897D01*
X176064558Y-100676103D01*
X176064560Y-100676107D01*
X176118939Y-100855371D01*
X176118940Y-100855375D01*
X176137301Y-101041800D01*
X176118940Y-101228225D01*
X176118939Y-101228228D01*
X176118939Y-101228229D01*
X176064560Y-101407493D01*
X176064558Y-101407496D01*
X176064558Y-101407497D01*
X175976254Y-101572703D01*
X175857412Y-101717512D01*
X175712603Y-101836354D01*
X175587123Y-101903424D01*
X175547393Y-101924660D01*
X175368129Y-101979039D01*
X175368128Y-101979039D01*
X175368125Y-101979040D01*
X175228418Y-101992800D01*
X172934982Y-101992800D01*
X172795275Y-101979040D01*
X172795272Y-101979039D01*
X172795271Y-101979039D01*
X172616007Y-101924660D01*
X172576277Y-101903424D01*
X172450797Y-101836354D01*
X172305988Y-101717512D01*
X172187146Y-101572703D01*
X172098842Y-101407497D01*
X172098842Y-101407496D01*
X172098840Y-101407493D01*
X172044461Y-101228229D01*
X172044461Y-101228228D01*
X172044460Y-101228225D01*
X172026099Y-101041800D01*
X172044460Y-100855375D01*
X172044461Y-100855371D01*
X172098840Y-100676107D01*
X172098842Y-100676103D01*
X172187146Y-100510897D01*
X172305988Y-100366088D01*
X172450797Y-100247246D01*
X172616003Y-100158942D01*
X172616004Y-100158942D01*
X172616007Y-100158940D01*
X172795271Y-100104561D01*
X172795272Y-100104561D01*
X172795275Y-100104560D01*
X172934982Y-100090800D01*
X175228418Y-100090800D01*
X175368125Y-100104560D01*
X175368125Y-100104560D01*
G37*
G36*
X166616700Y-101880800D02*
G01*
X160814700Y-101880800D01*
X160814700Y-95578800D01*
X166616700Y-95578800D01*
X166616700Y-101880800D01*
X166616700Y-101880800D01*
G37*
G36*
X145251762Y-97934981D02*
G01*
X145286681Y-97945574D01*
X145318863Y-97962776D01*
X145347073Y-97985927D01*
X145370224Y-98014137D01*
X145387426Y-98046319D01*
X145398019Y-98081238D01*
X145402200Y-98123695D01*
X145402200Y-99589905D01*
X145398019Y-99632362D01*
X145387426Y-99667281D01*
X145370224Y-99699463D01*
X145347073Y-99727673D01*
X145318863Y-99750824D01*
X145286681Y-99768026D01*
X145251762Y-99778619D01*
X145209305Y-99782800D01*
X144068095Y-99782800D01*
X144025638Y-99778619D01*
X143990719Y-99768026D01*
X143958537Y-99750824D01*
X143930327Y-99727673D01*
X143907176Y-99699463D01*
X143889974Y-99667281D01*
X143879381Y-99632362D01*
X143875200Y-99589905D01*
X143875200Y-98123695D01*
X143879381Y-98081238D01*
X143889974Y-98046319D01*
X143907176Y-98014137D01*
X143930327Y-97985927D01*
X143958537Y-97962776D01*
X143990719Y-97945574D01*
X144025638Y-97934981D01*
X144068095Y-97930800D01*
X145209305Y-97930800D01*
X145251762Y-97934981D01*
X145251762Y-97934981D01*
G37*
G36*
X148226762Y-97934981D02*
G01*
X148261681Y-97945574D01*
X148293863Y-97962776D01*
X148322073Y-97985927D01*
X148345224Y-98014137D01*
X148362426Y-98046319D01*
X148373019Y-98081238D01*
X148377200Y-98123695D01*
X148377200Y-99589905D01*
X148373019Y-99632362D01*
X148362426Y-99667281D01*
X148345224Y-99699463D01*
X148322073Y-99727673D01*
X148293863Y-99750824D01*
X148261681Y-99768026D01*
X148226762Y-99778619D01*
X148184305Y-99782800D01*
X147043095Y-99782800D01*
X147000638Y-99778619D01*
X146965719Y-99768026D01*
X146933537Y-99750824D01*
X146905327Y-99727673D01*
X146882176Y-99699463D01*
X146864974Y-99667281D01*
X146854381Y-99632362D01*
X146850200Y-99589905D01*
X146850200Y-98123695D01*
X146854381Y-98081238D01*
X146864974Y-98046319D01*
X146882176Y-98014137D01*
X146905327Y-97985927D01*
X146933537Y-97962776D01*
X146965719Y-97945574D01*
X147000638Y-97934981D01*
X147043095Y-97930800D01*
X148184305Y-97930800D01*
X148226762Y-97934981D01*
X148226762Y-97934981D01*
G37*
G36*
X154830762Y-96220481D02*
G01*
X154865681Y-96231074D01*
X154897863Y-96248276D01*
X154926073Y-96271427D01*
X154949224Y-96299637D01*
X154966426Y-96331819D01*
X154977019Y-96366738D01*
X154981200Y-96409195D01*
X154981200Y-97875405D01*
X154977019Y-97917862D01*
X154966426Y-97952781D01*
X154949224Y-97984963D01*
X154926073Y-98013173D01*
X154897863Y-98036324D01*
X154865681Y-98053526D01*
X154830762Y-98064119D01*
X154788305Y-98068300D01*
X153647095Y-98068300D01*
X153604638Y-98064119D01*
X153569719Y-98053526D01*
X153537537Y-98036324D01*
X153509327Y-98013173D01*
X153486176Y-97984963D01*
X153468974Y-97952781D01*
X153458381Y-97917862D01*
X153454200Y-97875405D01*
X153454200Y-96409195D01*
X153458381Y-96366738D01*
X153468974Y-96331819D01*
X153486176Y-96299637D01*
X153509327Y-96271427D01*
X153537537Y-96248276D01*
X153569719Y-96231074D01*
X153604638Y-96220481D01*
X153647095Y-96216300D01*
X154788305Y-96216300D01*
X154830762Y-96220481D01*
X154830762Y-96220481D01*
G37*
G36*
X151855762Y-96220481D02*
G01*
X151890681Y-96231074D01*
X151922863Y-96248276D01*
X151951073Y-96271427D01*
X151974224Y-96299637D01*
X151991426Y-96331819D01*
X152002019Y-96366738D01*
X152006200Y-96409195D01*
X152006200Y-97875405D01*
X152002019Y-97917862D01*
X151991426Y-97952781D01*
X151974224Y-97984963D01*
X151951073Y-98013173D01*
X151922863Y-98036324D01*
X151890681Y-98053526D01*
X151855762Y-98064119D01*
X151813305Y-98068300D01*
X150672095Y-98068300D01*
X150629638Y-98064119D01*
X150594719Y-98053526D01*
X150562537Y-98036324D01*
X150534327Y-98013173D01*
X150511176Y-97984963D01*
X150493974Y-97952781D01*
X150483381Y-97917862D01*
X150479200Y-97875405D01*
X150479200Y-96409195D01*
X150483381Y-96366738D01*
X150493974Y-96331819D01*
X150511176Y-96299637D01*
X150534327Y-96271427D01*
X150562537Y-96248276D01*
X150594719Y-96231074D01*
X150629638Y-96220481D01*
X150672095Y-96216300D01*
X151813305Y-96216300D01*
X151855762Y-96220481D01*
X151855762Y-96220481D01*
G37*
G36*
X119807771Y-95647986D02*
G01*
X120013430Y-95710372D01*
X120202955Y-95811675D01*
X120202958Y-95811677D01*
X120202959Y-95811678D01*
X120369086Y-95948014D01*
X120505422Y-96114141D01*
X120505425Y-96114145D01*
X120606728Y-96303670D01*
X120669114Y-96509329D01*
X120690178Y-96723200D01*
X120669114Y-96937071D01*
X120606728Y-97142730D01*
X120505425Y-97332255D01*
X120505423Y-97332258D01*
X120505422Y-97332259D01*
X120369086Y-97498386D01*
X120202959Y-97634722D01*
X120202955Y-97634725D01*
X120013430Y-97736028D01*
X119807771Y-97798414D01*
X119647491Y-97814200D01*
X118020309Y-97814200D01*
X117860029Y-97798414D01*
X117654370Y-97736028D01*
X117464845Y-97634725D01*
X117464841Y-97634722D01*
X117298714Y-97498386D01*
X117162378Y-97332259D01*
X117162377Y-97332258D01*
X117162375Y-97332255D01*
X117061072Y-97142730D01*
X116998686Y-96937071D01*
X116977622Y-96723200D01*
X116998686Y-96509329D01*
X117061072Y-96303670D01*
X117162375Y-96114145D01*
X117162378Y-96114141D01*
X117298714Y-95948014D01*
X117464841Y-95811678D01*
X117464842Y-95811677D01*
X117464845Y-95811675D01*
X117654370Y-95710372D01*
X117860029Y-95647986D01*
X118020309Y-95632200D01*
X119647491Y-95632200D01*
X119807771Y-95647986D01*
X119807771Y-95647986D01*
G37*
G36*
X172032700Y-95392800D02*
G01*
X170130700Y-95392800D01*
X170130700Y-90890800D01*
X172032700Y-90890800D01*
X172032700Y-95392800D01*
X172032700Y-95392800D01*
G37*
G36*
X177068124Y-91104560D02*
G01*
X177068127Y-91104561D01*
X177068128Y-91104561D01*
X177247392Y-91158940D01*
X177247395Y-91158942D01*
X177247396Y-91158942D01*
X177412603Y-91247246D01*
X177557412Y-91366088D01*
X177676254Y-91510897D01*
X177764558Y-91676103D01*
X177764560Y-91676107D01*
X177818939Y-91855371D01*
X177818940Y-91855375D01*
X177832700Y-91995082D01*
X177832700Y-94288518D01*
X177818940Y-94428225D01*
X177818939Y-94428228D01*
X177818939Y-94428229D01*
X177764560Y-94607493D01*
X177764558Y-94607496D01*
X177764558Y-94607497D01*
X177676254Y-94772703D01*
X177557412Y-94917512D01*
X177412603Y-95036354D01*
X177247397Y-95124658D01*
X177247393Y-95124660D01*
X177068129Y-95179039D01*
X177068128Y-95179039D01*
X177068125Y-95179040D01*
X176881700Y-95197401D01*
X176695276Y-95179040D01*
X176695273Y-95179039D01*
X176695272Y-95179039D01*
X176516008Y-95124660D01*
X176516004Y-95124658D01*
X176350798Y-95036354D01*
X176205989Y-94917512D01*
X176087147Y-94772703D01*
X175998843Y-94607497D01*
X175998843Y-94607496D01*
X175998841Y-94607493D01*
X175944462Y-94428229D01*
X175944462Y-94428228D01*
X175944461Y-94428225D01*
X175930701Y-94288518D01*
X175930700Y-91995083D01*
X175944460Y-91855376D01*
X175944461Y-91855372D01*
X175998840Y-91676108D01*
X175998843Y-91676103D01*
X176087146Y-91510897D01*
X176205988Y-91366088D01*
X176350797Y-91247246D01*
X176516003Y-91158942D01*
X176516004Y-91158942D01*
X176516007Y-91158940D01*
X176695271Y-91104561D01*
X176695272Y-91104561D01*
X176695275Y-91104560D01*
X176881700Y-91086199D01*
X177068124Y-91104560D01*
X177068124Y-91104560D01*
G37*
G36*
X140944700Y-93738800D02*
G01*
X139242700Y-93738800D01*
X139242700Y-92036800D01*
X140944700Y-92036800D01*
X140944700Y-93738800D01*
X140944700Y-93738800D01*
G37*
G36*
X147880523Y-92049113D02*
G01*
X148040942Y-92097776D01*
X148173606Y-92168686D01*
X148188778Y-92176796D01*
X148318359Y-92283141D01*
X148424704Y-92412722D01*
X148424705Y-92412724D01*
X148503724Y-92560558D01*
X148552387Y-92720977D01*
X148568817Y-92887800D01*
X148552387Y-93054623D01*
X148503724Y-93215042D01*
X148432814Y-93347706D01*
X148424704Y-93362878D01*
X148318359Y-93492459D01*
X148188778Y-93598804D01*
X148188776Y-93598805D01*
X148040942Y-93677824D01*
X147880523Y-93726487D01*
X147755504Y-93738800D01*
X147671896Y-93738800D01*
X147546877Y-93726487D01*
X147386458Y-93677824D01*
X147238624Y-93598805D01*
X147238622Y-93598804D01*
X147109041Y-93492459D01*
X147002696Y-93362878D01*
X146994586Y-93347706D01*
X146923676Y-93215042D01*
X146875013Y-93054623D01*
X146858583Y-92887800D01*
X146875013Y-92720977D01*
X146923676Y-92560558D01*
X147002695Y-92412724D01*
X147002696Y-92412722D01*
X147109041Y-92283141D01*
X147238622Y-92176796D01*
X147253794Y-92168686D01*
X147386458Y-92097776D01*
X147546877Y-92049113D01*
X147671896Y-92036800D01*
X147755504Y-92036800D01*
X147880523Y-92049113D01*
X147880523Y-92049113D01*
G37*
G36*
X125528395Y-90900846D02*
G01*
X125701466Y-90972534D01*
X125701467Y-90972535D01*
X125857227Y-91076610D01*
X125989690Y-91209073D01*
X125990666Y-91210534D01*
X126093766Y-91364834D01*
X126165454Y-91537905D01*
X126202000Y-91721633D01*
X126202000Y-91908967D01*
X126165454Y-92092695D01*
X126093766Y-92265766D01*
X126093765Y-92265767D01*
X125989690Y-92421527D01*
X125857227Y-92553990D01*
X125829818Y-92572304D01*
X125701466Y-92658066D01*
X125528395Y-92729754D01*
X125344667Y-92766300D01*
X125157333Y-92766300D01*
X124973605Y-92729754D01*
X124800534Y-92658066D01*
X124672182Y-92572304D01*
X124644773Y-92553990D01*
X124512310Y-92421527D01*
X124408235Y-92265767D01*
X124408234Y-92265766D01*
X124336546Y-92092695D01*
X124300000Y-91908967D01*
X124300000Y-91721633D01*
X124336546Y-91537905D01*
X124408234Y-91364834D01*
X124511334Y-91210534D01*
X124512310Y-91209073D01*
X124644773Y-91076610D01*
X124800533Y-90972535D01*
X124800534Y-90972534D01*
X124973605Y-90900846D01*
X125157333Y-90864300D01*
X125344667Y-90864300D01*
X125528395Y-90900846D01*
X125528395Y-90900846D01*
G37*
G36*
X120550117Y-90556008D02*
G01*
X120581389Y-90565494D01*
X120610208Y-90580898D01*
X120635470Y-90601630D01*
X120656202Y-90626892D01*
X120671606Y-90655711D01*
X120681092Y-90686983D01*
X120684900Y-90725648D01*
X120684900Y-92560752D01*
X120681092Y-92599417D01*
X120671606Y-92630689D01*
X120656202Y-92659508D01*
X120635470Y-92684770D01*
X120610208Y-92705502D01*
X120581389Y-92720906D01*
X120550117Y-92730392D01*
X120511452Y-92734200D01*
X117156348Y-92734200D01*
X117117683Y-92730392D01*
X117086411Y-92720906D01*
X117057592Y-92705502D01*
X117032330Y-92684770D01*
X117011598Y-92659508D01*
X116996194Y-92630689D01*
X116986708Y-92599417D01*
X116982900Y-92560752D01*
X116982900Y-90725648D01*
X116986708Y-90686983D01*
X116996194Y-90655711D01*
X117011598Y-90626892D01*
X117032330Y-90601630D01*
X117057592Y-90580898D01*
X117086411Y-90565494D01*
X117117683Y-90556008D01*
X117156348Y-90552200D01*
X120511452Y-90552200D01*
X120550117Y-90556008D01*
X120550117Y-90556008D01*
G37*
G36*
X163894041Y-90358631D02*
G01*
X164065529Y-90410652D01*
X164144551Y-90452890D01*
X164223575Y-90495128D01*
X164328085Y-90580898D01*
X164362102Y-90608815D01*
X164475777Y-90747327D01*
X164475792Y-90747346D01*
X164560264Y-90905383D01*
X164560266Y-90905389D01*
X164612286Y-91076875D01*
X164612286Y-91076877D01*
X164625307Y-91209075D01*
X164625450Y-91210533D01*
X164625450Y-91382400D01*
X164612286Y-91516058D01*
X164560265Y-91687546D01*
X164475789Y-91845592D01*
X164362102Y-91984119D01*
X164223612Y-92097776D01*
X164223571Y-92097809D01*
X164065534Y-92182281D01*
X164020909Y-92195818D01*
X163894042Y-92234303D01*
X163715700Y-92251868D01*
X163537359Y-92234303D01*
X163365871Y-92182282D01*
X163286849Y-92140044D01*
X163207825Y-92097806D01*
X163069298Y-91984119D01*
X162963640Y-91855375D01*
X162955611Y-91845592D01*
X162955610Y-91845591D01*
X162955608Y-91845588D01*
X162871136Y-91687551D01*
X162857599Y-91642926D01*
X162819114Y-91516059D01*
X162805950Y-91382401D01*
X162805950Y-91210534D01*
X162811032Y-91158940D01*
X162816387Y-91104561D01*
X162819114Y-91076876D01*
X162871135Y-90905388D01*
X162955609Y-90747346D01*
X162955611Y-90747342D01*
X163069298Y-90608815D01*
X163113958Y-90572163D01*
X163207825Y-90495128D01*
X163207826Y-90495127D01*
X163207829Y-90495125D01*
X163365866Y-90410653D01*
X163410491Y-90397116D01*
X163537358Y-90358631D01*
X163715700Y-90341066D01*
X163894041Y-90358631D01*
X163894041Y-90358631D01*
G37*
G36*
X166184041Y-90358631D02*
G01*
X166355529Y-90410652D01*
X166434551Y-90452890D01*
X166513575Y-90495128D01*
X166618085Y-90580898D01*
X166652102Y-90608815D01*
X166765777Y-90747327D01*
X166765792Y-90747346D01*
X166850264Y-90905383D01*
X166850266Y-90905389D01*
X166902286Y-91076875D01*
X166902286Y-91076877D01*
X166915307Y-91209075D01*
X166915450Y-91210533D01*
X166915450Y-91382400D01*
X166902286Y-91516058D01*
X166850265Y-91687546D01*
X166765789Y-91845592D01*
X166652102Y-91984119D01*
X166513612Y-92097776D01*
X166513571Y-92097809D01*
X166355534Y-92182281D01*
X166310909Y-92195818D01*
X166184042Y-92234303D01*
X166005700Y-92251868D01*
X165827359Y-92234303D01*
X165655871Y-92182282D01*
X165576849Y-92140044D01*
X165497825Y-92097806D01*
X165359298Y-91984119D01*
X165253640Y-91855375D01*
X165245611Y-91845592D01*
X165245610Y-91845591D01*
X165245608Y-91845588D01*
X165161136Y-91687551D01*
X165147599Y-91642926D01*
X165109114Y-91516059D01*
X165095950Y-91382401D01*
X165095950Y-91210534D01*
X165101032Y-91158940D01*
X165106387Y-91104561D01*
X165109114Y-91076876D01*
X165161135Y-90905388D01*
X165245609Y-90747346D01*
X165245611Y-90747342D01*
X165359298Y-90608815D01*
X165403958Y-90572163D01*
X165497825Y-90495128D01*
X165497826Y-90495127D01*
X165497829Y-90495125D01*
X165655866Y-90410653D01*
X165700491Y-90397116D01*
X165827358Y-90358631D01*
X166005700Y-90341066D01*
X166184041Y-90358631D01*
X166184041Y-90358631D01*
G37*
G36*
X162335450Y-92247467D02*
G01*
X160515950Y-92247467D01*
X160515950Y-90345467D01*
X162335450Y-90345467D01*
X162335450Y-92247467D01*
X162335450Y-92247467D01*
G37*
G36*
X139164985Y-88988034D02*
G01*
X139261681Y-89007268D01*
X139390495Y-89060625D01*
X139409698Y-89068579D01*
X139443851Y-89082726D01*
X139607800Y-89192273D01*
X139747227Y-89331700D01*
X139856774Y-89495649D01*
X139932232Y-89677819D01*
X139970700Y-89871210D01*
X139970700Y-90068390D01*
X139932232Y-90261781D01*
X139856774Y-90443951D01*
X139747227Y-90607900D01*
X139607800Y-90747327D01*
X139443851Y-90856874D01*
X139261681Y-90932332D01*
X139068291Y-90970800D01*
X138871109Y-90970800D01*
X138774415Y-90951566D01*
X138677719Y-90932332D01*
X138495549Y-90856874D01*
X138331600Y-90747327D01*
X138192173Y-90607900D01*
X138082626Y-90443951D01*
X138007168Y-90261781D01*
X137968700Y-90068390D01*
X137968700Y-89871210D01*
X138007168Y-89677819D01*
X138082626Y-89495649D01*
X138192173Y-89331700D01*
X138331600Y-89192273D01*
X138495549Y-89082726D01*
X138529703Y-89068579D01*
X138548905Y-89060625D01*
X138677719Y-89007268D01*
X138774415Y-88988034D01*
X138871109Y-88968800D01*
X139068291Y-88968800D01*
X139164985Y-88988034D01*
X139164985Y-88988034D01*
G37*
G36*
X162296762Y-87647981D02*
G01*
X162331681Y-87658574D01*
X162363863Y-87675776D01*
X162392073Y-87698927D01*
X162415224Y-87727137D01*
X162432426Y-87759319D01*
X162443019Y-87794238D01*
X162447200Y-87836695D01*
X162447200Y-89302905D01*
X162443019Y-89345362D01*
X162432426Y-89380281D01*
X162415224Y-89412463D01*
X162392073Y-89440673D01*
X162363863Y-89463824D01*
X162331681Y-89481026D01*
X162296762Y-89491619D01*
X162254305Y-89495800D01*
X161113095Y-89495800D01*
X161070638Y-89491619D01*
X161035719Y-89481026D01*
X161003537Y-89463824D01*
X160975327Y-89440673D01*
X160952176Y-89412463D01*
X160934974Y-89380281D01*
X160924381Y-89345362D01*
X160920200Y-89302905D01*
X160920200Y-87836695D01*
X160924381Y-87794238D01*
X160934974Y-87759319D01*
X160952176Y-87727137D01*
X160975327Y-87698927D01*
X161003537Y-87675776D01*
X161035719Y-87658574D01*
X161070638Y-87647981D01*
X161113095Y-87643800D01*
X162254305Y-87643800D01*
X162296762Y-87647981D01*
X162296762Y-87647981D01*
G37*
G36*
X165271762Y-87647981D02*
G01*
X165306681Y-87658574D01*
X165338863Y-87675776D01*
X165367073Y-87698927D01*
X165390224Y-87727137D01*
X165407426Y-87759319D01*
X165418019Y-87794238D01*
X165422200Y-87836695D01*
X165422200Y-89302905D01*
X165418019Y-89345362D01*
X165407426Y-89380281D01*
X165390224Y-89412463D01*
X165367073Y-89440673D01*
X165338863Y-89463824D01*
X165306681Y-89481026D01*
X165271762Y-89491619D01*
X165229305Y-89495800D01*
X164088095Y-89495800D01*
X164045638Y-89491619D01*
X164010719Y-89481026D01*
X163978537Y-89463824D01*
X163950327Y-89440673D01*
X163927176Y-89412463D01*
X163909974Y-89380281D01*
X163899381Y-89345362D01*
X163895200Y-89302905D01*
X163895200Y-87836695D01*
X163899381Y-87794238D01*
X163909974Y-87759319D01*
X163927176Y-87727137D01*
X163950327Y-87698927D01*
X163978537Y-87675776D01*
X164010719Y-87658574D01*
X164045638Y-87647981D01*
X164088095Y-87643800D01*
X165229305Y-87643800D01*
X165271762Y-87647981D01*
X165271762Y-87647981D01*
G37*
G36*
X175368125Y-87404560D02*
G01*
X175368128Y-87404561D01*
X175368129Y-87404561D01*
X175547393Y-87458940D01*
X175547396Y-87458942D01*
X175547397Y-87458942D01*
X175712603Y-87547246D01*
X175857412Y-87666088D01*
X175976254Y-87810897D01*
X176030131Y-87911695D01*
X176064560Y-87976107D01*
X176114025Y-88139173D01*
X176118940Y-88155375D01*
X176137301Y-88341800D01*
X176118940Y-88528225D01*
X176118939Y-88528228D01*
X176118939Y-88528229D01*
X176064560Y-88707493D01*
X176064558Y-88707496D01*
X176064558Y-88707497D01*
X175976254Y-88872703D01*
X175857412Y-89017512D01*
X175712603Y-89136354D01*
X175562098Y-89216800D01*
X175547393Y-89224660D01*
X175368129Y-89279039D01*
X175368128Y-89279039D01*
X175368125Y-89279040D01*
X175228418Y-89292800D01*
X172934982Y-89292800D01*
X172795275Y-89279040D01*
X172795272Y-89279039D01*
X172795271Y-89279039D01*
X172616007Y-89224660D01*
X172601302Y-89216800D01*
X172450797Y-89136354D01*
X172305988Y-89017512D01*
X172187146Y-88872703D01*
X172098842Y-88707497D01*
X172098842Y-88707496D01*
X172098840Y-88707493D01*
X172044461Y-88528229D01*
X172044461Y-88528228D01*
X172044460Y-88528225D01*
X172026099Y-88341800D01*
X172044460Y-88155375D01*
X172049375Y-88139173D01*
X172098840Y-87976107D01*
X172133269Y-87911695D01*
X172187146Y-87810897D01*
X172305988Y-87666088D01*
X172450797Y-87547246D01*
X172616003Y-87458942D01*
X172616004Y-87458942D01*
X172616007Y-87458940D01*
X172795271Y-87404561D01*
X172795272Y-87404561D01*
X172795275Y-87404560D01*
X172934982Y-87390800D01*
X175228418Y-87390800D01*
X175368125Y-87404560D01*
X175368125Y-87404560D01*
G37*
G36*
X150138700Y-89216800D02*
G01*
X148336700Y-89216800D01*
X148336700Y-87414800D01*
X150138700Y-87414800D01*
X150138700Y-89216800D01*
X150138700Y-89216800D01*
G37*
G36*
X151888142Y-87421318D02*
G01*
X151954327Y-87427837D01*
X152124166Y-87479357D01*
X152280691Y-87563022D01*
X152316429Y-87592352D01*
X152417886Y-87675614D01*
X152501148Y-87777071D01*
X152530478Y-87812809D01*
X152614143Y-87969334D01*
X152665663Y-88139173D01*
X152683059Y-88315800D01*
X152665663Y-88492427D01*
X152614143Y-88662266D01*
X152614142Y-88662268D01*
X152589966Y-88707497D01*
X152530478Y-88818791D01*
X152501148Y-88854529D01*
X152417886Y-88955986D01*
X152342915Y-89017512D01*
X152280691Y-89068578D01*
X152124166Y-89152243D01*
X151954327Y-89203763D01*
X151888142Y-89210282D01*
X151821960Y-89216800D01*
X151733440Y-89216800D01*
X151667258Y-89210282D01*
X151601073Y-89203763D01*
X151431234Y-89152243D01*
X151274709Y-89068578D01*
X151212485Y-89017512D01*
X151137514Y-88955986D01*
X151054252Y-88854529D01*
X151024922Y-88818791D01*
X150965434Y-88707497D01*
X150941258Y-88662268D01*
X150941257Y-88662266D01*
X150889737Y-88492427D01*
X150872341Y-88315800D01*
X150889737Y-88139173D01*
X150941257Y-87969334D01*
X151024922Y-87812809D01*
X151054252Y-87777071D01*
X151137514Y-87675614D01*
X151238971Y-87592352D01*
X151274709Y-87563022D01*
X151431234Y-87479357D01*
X151601073Y-87427837D01*
X151667258Y-87421318D01*
X151733440Y-87414800D01*
X151821960Y-87414800D01*
X151888142Y-87421318D01*
X151888142Y-87421318D01*
G37*
G36*
X156968142Y-87421318D02*
G01*
X157034327Y-87427837D01*
X157204166Y-87479357D01*
X157360691Y-87563022D01*
X157396429Y-87592352D01*
X157497886Y-87675614D01*
X157581148Y-87777071D01*
X157610478Y-87812809D01*
X157694143Y-87969334D01*
X157745663Y-88139173D01*
X157763059Y-88315800D01*
X157745663Y-88492427D01*
X157694143Y-88662266D01*
X157694142Y-88662268D01*
X157669966Y-88707497D01*
X157610478Y-88818791D01*
X157581148Y-88854529D01*
X157497886Y-88955986D01*
X157422915Y-89017512D01*
X157360691Y-89068578D01*
X157204166Y-89152243D01*
X157034327Y-89203763D01*
X156968142Y-89210282D01*
X156901960Y-89216800D01*
X156813440Y-89216800D01*
X156747258Y-89210282D01*
X156681073Y-89203763D01*
X156511234Y-89152243D01*
X156354709Y-89068578D01*
X156292485Y-89017512D01*
X156217514Y-88955986D01*
X156134252Y-88854529D01*
X156104922Y-88818791D01*
X156045434Y-88707497D01*
X156021258Y-88662268D01*
X156021257Y-88662266D01*
X155969737Y-88492427D01*
X155952341Y-88315800D01*
X155969737Y-88139173D01*
X156021257Y-87969334D01*
X156104922Y-87812809D01*
X156134252Y-87777071D01*
X156217514Y-87675614D01*
X156318971Y-87592352D01*
X156354709Y-87563022D01*
X156511234Y-87479357D01*
X156681073Y-87427837D01*
X156747258Y-87421318D01*
X156813440Y-87414800D01*
X156901960Y-87414800D01*
X156968142Y-87421318D01*
X156968142Y-87421318D01*
G37*
G36*
X154428142Y-87421318D02*
G01*
X154494327Y-87427837D01*
X154664166Y-87479357D01*
X154820691Y-87563022D01*
X154856429Y-87592352D01*
X154957886Y-87675614D01*
X155041148Y-87777071D01*
X155070478Y-87812809D01*
X155154143Y-87969334D01*
X155205663Y-88139173D01*
X155223059Y-88315800D01*
X155205663Y-88492427D01*
X155154143Y-88662266D01*
X155154142Y-88662268D01*
X155129966Y-88707497D01*
X155070478Y-88818791D01*
X155041148Y-88854529D01*
X154957886Y-88955986D01*
X154882915Y-89017512D01*
X154820691Y-89068578D01*
X154664166Y-89152243D01*
X154494327Y-89203763D01*
X154428142Y-89210282D01*
X154361960Y-89216800D01*
X154273440Y-89216800D01*
X154207258Y-89210282D01*
X154141073Y-89203763D01*
X153971234Y-89152243D01*
X153814709Y-89068578D01*
X153752485Y-89017512D01*
X153677514Y-88955986D01*
X153594252Y-88854529D01*
X153564922Y-88818791D01*
X153505434Y-88707497D01*
X153481258Y-88662268D01*
X153481257Y-88662266D01*
X153429737Y-88492427D01*
X153412341Y-88315800D01*
X153429737Y-88139173D01*
X153481257Y-87969334D01*
X153564922Y-87812809D01*
X153594252Y-87777071D01*
X153677514Y-87675614D01*
X153778971Y-87592352D01*
X153814709Y-87563022D01*
X153971234Y-87479357D01*
X154141073Y-87427837D01*
X154207258Y-87421318D01*
X154273440Y-87414800D01*
X154361960Y-87414800D01*
X154428142Y-87421318D01*
X154428142Y-87421318D01*
G37*
G36*
X145261681Y-87007268D02*
G01*
X145443851Y-87082726D01*
X145607800Y-87192273D01*
X145747227Y-87331700D01*
X145856774Y-87495649D01*
X145932232Y-87677819D01*
X145970700Y-87871210D01*
X145970700Y-88068390D01*
X145932232Y-88261781D01*
X145856774Y-88443951D01*
X145747227Y-88607900D01*
X145607800Y-88747327D01*
X145443851Y-88856874D01*
X145261681Y-88932332D01*
X145068291Y-88970800D01*
X144871109Y-88970800D01*
X144774415Y-88951566D01*
X144677719Y-88932332D01*
X144495549Y-88856874D01*
X144331600Y-88747327D01*
X144192173Y-88607900D01*
X144082626Y-88443951D01*
X144007168Y-88261781D01*
X143968700Y-88068390D01*
X143968700Y-87871210D01*
X144007168Y-87677819D01*
X144082626Y-87495649D01*
X144192173Y-87331700D01*
X144331600Y-87192273D01*
X144495549Y-87082726D01*
X144677719Y-87007268D01*
X144871109Y-86968800D01*
X145068291Y-86968800D01*
X145261681Y-87007268D01*
X145261681Y-87007268D01*
G37*
G36*
X133261681Y-87007268D02*
G01*
X133443851Y-87082726D01*
X133607800Y-87192273D01*
X133747227Y-87331700D01*
X133856774Y-87495649D01*
X133932232Y-87677819D01*
X133970700Y-87871210D01*
X133970700Y-88068390D01*
X133932232Y-88261781D01*
X133856774Y-88443951D01*
X133747227Y-88607900D01*
X133607800Y-88747327D01*
X133443851Y-88856874D01*
X133261681Y-88932332D01*
X133068291Y-88970800D01*
X132871109Y-88970800D01*
X132774415Y-88951566D01*
X132677719Y-88932332D01*
X132495549Y-88856874D01*
X132331600Y-88747327D01*
X132192173Y-88607900D01*
X132082626Y-88443951D01*
X132007168Y-88261781D01*
X131968700Y-88068390D01*
X131968700Y-87871210D01*
X132007168Y-87677819D01*
X132082626Y-87495649D01*
X132192173Y-87331700D01*
X132331600Y-87192273D01*
X132495549Y-87082726D01*
X132677719Y-87007268D01*
X132871109Y-86968800D01*
X133068291Y-86968800D01*
X133261681Y-87007268D01*
X133261681Y-87007268D01*
G37*
G36*
X128928395Y-83400846D02*
G01*
X129101466Y-83472534D01*
X129101467Y-83472535D01*
X129257227Y-83576610D01*
X129389690Y-83709073D01*
X129389691Y-83709075D01*
X129493766Y-83864834D01*
X129565454Y-84037905D01*
X129602000Y-84221633D01*
X129602000Y-84408967D01*
X129565454Y-84592695D01*
X129493766Y-84765766D01*
X129493765Y-84765767D01*
X129389690Y-84921527D01*
X129257227Y-85053990D01*
X129178818Y-85106381D01*
X129101466Y-85158066D01*
X128928395Y-85229754D01*
X128744667Y-85266300D01*
X128557333Y-85266300D01*
X128373605Y-85229754D01*
X128200534Y-85158066D01*
X128123182Y-85106381D01*
X128044773Y-85053990D01*
X127912310Y-84921527D01*
X127808235Y-84765767D01*
X127808234Y-84765766D01*
X127736546Y-84592695D01*
X127700000Y-84408967D01*
X127700000Y-84221633D01*
X127736546Y-84037905D01*
X127808234Y-83864834D01*
X127912309Y-83709075D01*
X127912310Y-83709073D01*
X128044773Y-83576610D01*
X128200533Y-83472535D01*
X128200534Y-83472534D01*
X128373605Y-83400846D01*
X128557333Y-83364300D01*
X128744667Y-83364300D01*
X128928395Y-83400846D01*
X128928395Y-83400846D01*
G37*
G36*
X119820471Y-82465386D02*
G01*
X120026130Y-82527772D01*
X120215655Y-82629075D01*
X120215658Y-82629077D01*
X120215659Y-82629078D01*
X120381786Y-82765414D01*
X120518122Y-82931541D01*
X120518125Y-82931545D01*
X120619428Y-83121070D01*
X120681814Y-83326729D01*
X120702878Y-83540600D01*
X120681814Y-83754471D01*
X120619428Y-83960130D01*
X120518125Y-84149655D01*
X120518123Y-84149658D01*
X120518122Y-84149659D01*
X120381786Y-84315786D01*
X120223622Y-84445587D01*
X120215655Y-84452125D01*
X120026130Y-84553428D01*
X119820471Y-84615814D01*
X119660191Y-84631600D01*
X118033009Y-84631600D01*
X117872729Y-84615814D01*
X117667070Y-84553428D01*
X117477545Y-84452125D01*
X117469578Y-84445587D01*
X117311414Y-84315786D01*
X117175078Y-84149659D01*
X117175077Y-84149658D01*
X117175075Y-84149655D01*
X117073772Y-83960130D01*
X117011386Y-83754471D01*
X116990322Y-83540600D01*
X117011386Y-83326729D01*
X117073772Y-83121070D01*
X117175075Y-82931545D01*
X117175078Y-82931541D01*
X117311414Y-82765414D01*
X117477541Y-82629078D01*
X117477542Y-82629077D01*
X117477545Y-82629075D01*
X117667070Y-82527772D01*
X117872729Y-82465386D01*
X118033009Y-82449600D01*
X119660191Y-82449600D01*
X119820471Y-82465386D01*
X119820471Y-82465386D01*
G37*
G36*
X144135987Y-82977124D02*
G01*
X144154730Y-82982810D01*
X144171997Y-82992039D01*
X144187136Y-83004464D01*
X144199561Y-83019603D01*
X144208790Y-83036870D01*
X144214476Y-83055613D01*
X144217000Y-83081240D01*
X144217000Y-84419960D01*
X144214476Y-84445587D01*
X144208790Y-84464330D01*
X144199561Y-84481597D01*
X144187136Y-84496736D01*
X144171997Y-84509161D01*
X144154730Y-84518390D01*
X144135987Y-84524076D01*
X144110360Y-84526600D01*
X143671640Y-84526600D01*
X143646013Y-84524076D01*
X143627270Y-84518390D01*
X143610003Y-84509161D01*
X143594864Y-84496736D01*
X143582439Y-84481597D01*
X143573210Y-84464330D01*
X143567524Y-84445587D01*
X143565000Y-84419960D01*
X143565000Y-83081240D01*
X143567524Y-83055613D01*
X143573210Y-83036870D01*
X143582439Y-83019603D01*
X143594864Y-83004464D01*
X143610003Y-82992039D01*
X143627270Y-82982810D01*
X143646013Y-82977124D01*
X143671640Y-82974600D01*
X144110360Y-82974600D01*
X144135987Y-82977124D01*
X144135987Y-82977124D01*
G37*
G36*
X146675987Y-82977124D02*
G01*
X146694730Y-82982810D01*
X146711997Y-82992039D01*
X146727136Y-83004464D01*
X146739561Y-83019603D01*
X146748790Y-83036870D01*
X146754476Y-83055613D01*
X146757000Y-83081240D01*
X146757000Y-84419960D01*
X146754476Y-84445587D01*
X146748790Y-84464330D01*
X146739561Y-84481597D01*
X146727136Y-84496736D01*
X146711997Y-84509161D01*
X146694730Y-84518390D01*
X146675987Y-84524076D01*
X146650360Y-84526600D01*
X146211640Y-84526600D01*
X146186013Y-84524076D01*
X146167270Y-84518390D01*
X146150003Y-84509161D01*
X146134864Y-84496736D01*
X146122439Y-84481597D01*
X146113210Y-84464330D01*
X146107524Y-84445587D01*
X146105000Y-84419960D01*
X146105000Y-83081240D01*
X146107524Y-83055613D01*
X146113210Y-83036870D01*
X146122439Y-83019603D01*
X146134864Y-83004464D01*
X146150003Y-82992039D01*
X146167270Y-82982810D01*
X146186013Y-82977124D01*
X146211640Y-82974600D01*
X146650360Y-82974600D01*
X146675987Y-82977124D01*
X146675987Y-82977124D01*
G37*
G36*
X169522700Y-84186800D02*
G01*
X165020700Y-84186800D01*
X165020700Y-82284800D01*
X169522700Y-82284800D01*
X169522700Y-84186800D01*
X169522700Y-84186800D01*
G37*
G36*
X182222700Y-84186800D02*
G01*
X177720700Y-84186800D01*
X177720700Y-82284800D01*
X182222700Y-82284800D01*
X182222700Y-84186800D01*
X182222700Y-84186800D01*
G37*
G36*
X156822700Y-84186800D02*
G01*
X152320700Y-84186800D01*
X152320700Y-82284800D01*
X156822700Y-82284800D01*
X156822700Y-84186800D01*
X156822700Y-84186800D01*
G37*
G36*
X162658125Y-78198560D02*
G01*
X162658128Y-78198561D01*
X162658129Y-78198561D01*
X162837393Y-78252940D01*
X162837396Y-78252942D01*
X162837397Y-78252942D01*
X163002603Y-78341246D01*
X163147412Y-78460088D01*
X163266254Y-78604897D01*
X163354558Y-78770103D01*
X163354560Y-78770107D01*
X163407791Y-78945587D01*
X163408940Y-78949375D01*
X163422700Y-79089082D01*
X163422700Y-81382518D01*
X163408940Y-81522225D01*
X163408939Y-81522228D01*
X163408939Y-81522229D01*
X163354560Y-81701493D01*
X163354558Y-81701496D01*
X163354558Y-81701497D01*
X163266254Y-81866703D01*
X163147412Y-82011512D01*
X163002603Y-82130354D01*
X162837396Y-82218658D01*
X162837392Y-82218660D01*
X162658128Y-82273039D01*
X162658127Y-82273039D01*
X162658124Y-82273040D01*
X162471700Y-82291401D01*
X162285275Y-82273040D01*
X162285272Y-82273039D01*
X162285271Y-82273039D01*
X162106007Y-82218660D01*
X162106003Y-82218658D01*
X161940797Y-82130354D01*
X161795988Y-82011512D01*
X161677146Y-81866703D01*
X161588842Y-81701496D01*
X161588841Y-81701493D01*
X161588840Y-81701492D01*
X161534461Y-81522228D01*
X161534461Y-81522227D01*
X161534460Y-81522224D01*
X161520700Y-81382517D01*
X161520701Y-79089082D01*
X161534461Y-78949375D01*
X161535610Y-78945587D01*
X161588841Y-78770107D01*
X161588843Y-78770103D01*
X161677147Y-78604897D01*
X161795989Y-78460088D01*
X161940798Y-78341246D01*
X162106004Y-78252942D01*
X162106005Y-78252942D01*
X162106008Y-78252940D01*
X162285272Y-78198561D01*
X162285273Y-78198561D01*
X162285276Y-78198560D01*
X162471700Y-78180199D01*
X162658125Y-78198560D01*
X162658125Y-78198560D01*
G37*
G36*
X149958125Y-78198560D02*
G01*
X149958128Y-78198561D01*
X149958129Y-78198561D01*
X150137393Y-78252940D01*
X150137396Y-78252942D01*
X150137397Y-78252942D01*
X150302603Y-78341246D01*
X150447412Y-78460088D01*
X150566254Y-78604897D01*
X150654558Y-78770103D01*
X150654560Y-78770107D01*
X150707791Y-78945587D01*
X150708940Y-78949375D01*
X150722700Y-79089082D01*
X150722700Y-81382518D01*
X150708940Y-81522225D01*
X150708939Y-81522228D01*
X150708939Y-81522229D01*
X150654560Y-81701493D01*
X150654558Y-81701496D01*
X150654558Y-81701497D01*
X150566254Y-81866703D01*
X150447412Y-82011512D01*
X150302603Y-82130354D01*
X150137396Y-82218658D01*
X150137392Y-82218660D01*
X149958128Y-82273039D01*
X149958127Y-82273039D01*
X149958124Y-82273040D01*
X149771700Y-82291401D01*
X149585275Y-82273040D01*
X149585272Y-82273039D01*
X149585271Y-82273039D01*
X149406007Y-82218660D01*
X149406003Y-82218658D01*
X149240797Y-82130354D01*
X149095988Y-82011512D01*
X148977146Y-81866703D01*
X148888842Y-81701496D01*
X148888841Y-81701493D01*
X148888840Y-81701492D01*
X148834461Y-81522228D01*
X148834461Y-81522227D01*
X148834460Y-81522224D01*
X148820700Y-81382517D01*
X148820701Y-79089082D01*
X148834461Y-78949375D01*
X148835610Y-78945587D01*
X148888841Y-78770107D01*
X148888843Y-78770103D01*
X148977147Y-78604897D01*
X149095989Y-78460088D01*
X149240798Y-78341246D01*
X149406004Y-78252942D01*
X149406005Y-78252942D01*
X149406008Y-78252940D01*
X149585272Y-78198561D01*
X149585273Y-78198561D01*
X149585276Y-78198560D01*
X149771700Y-78180199D01*
X149958125Y-78198560D01*
X149958125Y-78198560D01*
G37*
G36*
X175358125Y-78198560D02*
G01*
X175358128Y-78198561D01*
X175358129Y-78198561D01*
X175537393Y-78252940D01*
X175537396Y-78252942D01*
X175537397Y-78252942D01*
X175702603Y-78341246D01*
X175847412Y-78460088D01*
X175966254Y-78604897D01*
X176054558Y-78770103D01*
X176054560Y-78770107D01*
X176107791Y-78945587D01*
X176108940Y-78949375D01*
X176122700Y-79089082D01*
X176122700Y-81382518D01*
X176108940Y-81522225D01*
X176108939Y-81522228D01*
X176108939Y-81522229D01*
X176054560Y-81701493D01*
X176054558Y-81701496D01*
X176054558Y-81701497D01*
X175966254Y-81866703D01*
X175847412Y-82011512D01*
X175702603Y-82130354D01*
X175537396Y-82218658D01*
X175537392Y-82218660D01*
X175358128Y-82273039D01*
X175358127Y-82273039D01*
X175358124Y-82273040D01*
X175171700Y-82291401D01*
X174985275Y-82273040D01*
X174985272Y-82273039D01*
X174985271Y-82273039D01*
X174806007Y-82218660D01*
X174806003Y-82218658D01*
X174640797Y-82130354D01*
X174495988Y-82011512D01*
X174377146Y-81866703D01*
X174288842Y-81701496D01*
X174288841Y-81701493D01*
X174288840Y-81701492D01*
X174234461Y-81522228D01*
X174234461Y-81522227D01*
X174234460Y-81522224D01*
X174220700Y-81382517D01*
X174220701Y-79089082D01*
X174234461Y-78949375D01*
X174235610Y-78945587D01*
X174288841Y-78770107D01*
X174288843Y-78770103D01*
X174377147Y-78604897D01*
X174495989Y-78460088D01*
X174640798Y-78341246D01*
X174806004Y-78252942D01*
X174806005Y-78252942D01*
X174806008Y-78252940D01*
X174985272Y-78198561D01*
X174985273Y-78198561D01*
X174985276Y-78198560D01*
X175171700Y-78180199D01*
X175358125Y-78198560D01*
X175358125Y-78198560D01*
G37*
G36*
X155221262Y-79646981D02*
G01*
X155256181Y-79657574D01*
X155288363Y-79674776D01*
X155316573Y-79697927D01*
X155339724Y-79726137D01*
X155356926Y-79758319D01*
X155367519Y-79793238D01*
X155371700Y-79835695D01*
X155371700Y-81301905D01*
X155367519Y-81344362D01*
X155356926Y-81379281D01*
X155339724Y-81411463D01*
X155316573Y-81439673D01*
X155288363Y-81462824D01*
X155256181Y-81480026D01*
X155221262Y-81490619D01*
X155178805Y-81494800D01*
X154037595Y-81494800D01*
X153995138Y-81490619D01*
X153960219Y-81480026D01*
X153928037Y-81462824D01*
X153899827Y-81439673D01*
X153876676Y-81411463D01*
X153859474Y-81379281D01*
X153848881Y-81344362D01*
X153844700Y-81301905D01*
X153844700Y-79835695D01*
X153848881Y-79793238D01*
X153859474Y-79758319D01*
X153876676Y-79726137D01*
X153899827Y-79697927D01*
X153928037Y-79674776D01*
X153960219Y-79657574D01*
X153995138Y-79646981D01*
X154037595Y-79642800D01*
X155178805Y-79642800D01*
X155221262Y-79646981D01*
X155221262Y-79646981D01*
G37*
G36*
X158196262Y-79646981D02*
G01*
X158231181Y-79657574D01*
X158263363Y-79674776D01*
X158291573Y-79697927D01*
X158314724Y-79726137D01*
X158331926Y-79758319D01*
X158342519Y-79793238D01*
X158346700Y-79835695D01*
X158346700Y-81301905D01*
X158342519Y-81344362D01*
X158331926Y-81379281D01*
X158314724Y-81411463D01*
X158291573Y-81439673D01*
X158263363Y-81462824D01*
X158231181Y-81480026D01*
X158196262Y-81490619D01*
X158153805Y-81494800D01*
X157012595Y-81494800D01*
X156970138Y-81490619D01*
X156935219Y-81480026D01*
X156903037Y-81462824D01*
X156874827Y-81439673D01*
X156851676Y-81411463D01*
X156834474Y-81379281D01*
X156823881Y-81344362D01*
X156819700Y-81301905D01*
X156819700Y-79835695D01*
X156823881Y-79793238D01*
X156834474Y-79758319D01*
X156851676Y-79726137D01*
X156874827Y-79697927D01*
X156903037Y-79674776D01*
X156935219Y-79657574D01*
X156970138Y-79646981D01*
X157012595Y-79642800D01*
X158153805Y-79642800D01*
X158196262Y-79646981D01*
X158196262Y-79646981D01*
G37*
G36*
X183596262Y-79519981D02*
G01*
X183631181Y-79530574D01*
X183663363Y-79547776D01*
X183691573Y-79570927D01*
X183714724Y-79599137D01*
X183731926Y-79631319D01*
X183742519Y-79666238D01*
X183746700Y-79708695D01*
X183746700Y-81174905D01*
X183742519Y-81217362D01*
X183731926Y-81252281D01*
X183714724Y-81284463D01*
X183691573Y-81312673D01*
X183663363Y-81335824D01*
X183631181Y-81353026D01*
X183596262Y-81363619D01*
X183553805Y-81367800D01*
X182412595Y-81367800D01*
X182370138Y-81363619D01*
X182335219Y-81353026D01*
X182303037Y-81335824D01*
X182274827Y-81312673D01*
X182251676Y-81284463D01*
X182234474Y-81252281D01*
X182223881Y-81217362D01*
X182219700Y-81174905D01*
X182219700Y-79708695D01*
X182223881Y-79666238D01*
X182234474Y-79631319D01*
X182251676Y-79599137D01*
X182274827Y-79570927D01*
X182303037Y-79547776D01*
X182335219Y-79530574D01*
X182370138Y-79519981D01*
X182412595Y-79515800D01*
X183553805Y-79515800D01*
X183596262Y-79519981D01*
X183596262Y-79519981D01*
G37*
G36*
X167794262Y-79519981D02*
G01*
X167829181Y-79530574D01*
X167861363Y-79547776D01*
X167889573Y-79570927D01*
X167912724Y-79599137D01*
X167929926Y-79631319D01*
X167940519Y-79666238D01*
X167944700Y-79708695D01*
X167944700Y-81174905D01*
X167940519Y-81217362D01*
X167929926Y-81252281D01*
X167912724Y-81284463D01*
X167889573Y-81312673D01*
X167861363Y-81335824D01*
X167829181Y-81353026D01*
X167794262Y-81363619D01*
X167751805Y-81367800D01*
X166610595Y-81367800D01*
X166568138Y-81363619D01*
X166533219Y-81353026D01*
X166501037Y-81335824D01*
X166472827Y-81312673D01*
X166449676Y-81284463D01*
X166432474Y-81252281D01*
X166421881Y-81217362D01*
X166417700Y-81174905D01*
X166417700Y-79708695D01*
X166421881Y-79666238D01*
X166432474Y-79631319D01*
X166449676Y-79599137D01*
X166472827Y-79570927D01*
X166501037Y-79547776D01*
X166533219Y-79530574D01*
X166568138Y-79519981D01*
X166610595Y-79515800D01*
X167751805Y-79515800D01*
X167794262Y-79519981D01*
X167794262Y-79519981D01*
G37*
G36*
X180621262Y-79519981D02*
G01*
X180656181Y-79530574D01*
X180688363Y-79547776D01*
X180716573Y-79570927D01*
X180739724Y-79599137D01*
X180756926Y-79631319D01*
X180767519Y-79666238D01*
X180771700Y-79708695D01*
X180771700Y-81174905D01*
X180767519Y-81217362D01*
X180756926Y-81252281D01*
X180739724Y-81284463D01*
X180716573Y-81312673D01*
X180688363Y-81335824D01*
X180656181Y-81353026D01*
X180621262Y-81363619D01*
X180578805Y-81367800D01*
X179437595Y-81367800D01*
X179395138Y-81363619D01*
X179360219Y-81353026D01*
X179328037Y-81335824D01*
X179299827Y-81312673D01*
X179276676Y-81284463D01*
X179259474Y-81252281D01*
X179248881Y-81217362D01*
X179244700Y-81174905D01*
X179244700Y-79708695D01*
X179248881Y-79666238D01*
X179259474Y-79631319D01*
X179276676Y-79599137D01*
X179299827Y-79570927D01*
X179328037Y-79547776D01*
X179360219Y-79530574D01*
X179395138Y-79519981D01*
X179437595Y-79515800D01*
X180578805Y-79515800D01*
X180621262Y-79519981D01*
X180621262Y-79519981D01*
G37*
G36*
X170769262Y-79519981D02*
G01*
X170804181Y-79530574D01*
X170836363Y-79547776D01*
X170864573Y-79570927D01*
X170887724Y-79599137D01*
X170904926Y-79631319D01*
X170915519Y-79666238D01*
X170919700Y-79708695D01*
X170919700Y-81174905D01*
X170915519Y-81217362D01*
X170904926Y-81252281D01*
X170887724Y-81284463D01*
X170864573Y-81312673D01*
X170836363Y-81335824D01*
X170804181Y-81353026D01*
X170769262Y-81363619D01*
X170726805Y-81367800D01*
X169585595Y-81367800D01*
X169543138Y-81363619D01*
X169508219Y-81353026D01*
X169476037Y-81335824D01*
X169447827Y-81312673D01*
X169424676Y-81284463D01*
X169407474Y-81252281D01*
X169396881Y-81217362D01*
X169392700Y-81174905D01*
X169392700Y-79708695D01*
X169396881Y-79666238D01*
X169407474Y-79631319D01*
X169424676Y-79599137D01*
X169447827Y-79570927D01*
X169476037Y-79547776D01*
X169508219Y-79530574D01*
X169543138Y-79519981D01*
X169585595Y-79515800D01*
X170726805Y-79515800D01*
X170769262Y-79519981D01*
X170769262Y-79519981D01*
G37*
G36*
X119820471Y-77385386D02*
G01*
X120026130Y-77447772D01*
X120215655Y-77549075D01*
X120215658Y-77549077D01*
X120215659Y-77549078D01*
X120381786Y-77685414D01*
X120502180Y-77832116D01*
X120518125Y-77851545D01*
X120619428Y-78041070D01*
X120681814Y-78246729D01*
X120702878Y-78460600D01*
X120681814Y-78674471D01*
X120619428Y-78880130D01*
X120518125Y-79069655D01*
X120518123Y-79069658D01*
X120518122Y-79069659D01*
X120381786Y-79235786D01*
X120215659Y-79372122D01*
X120215655Y-79372125D01*
X120026130Y-79473428D01*
X119820471Y-79535814D01*
X119660191Y-79551600D01*
X118033009Y-79551600D01*
X117872729Y-79535814D01*
X117667070Y-79473428D01*
X117477545Y-79372125D01*
X117477541Y-79372122D01*
X117311414Y-79235786D01*
X117175078Y-79069659D01*
X117175077Y-79069658D01*
X117175075Y-79069655D01*
X117073772Y-78880130D01*
X117011386Y-78674471D01*
X116990322Y-78460600D01*
X117011386Y-78246729D01*
X117073772Y-78041070D01*
X117175075Y-77851545D01*
X117191020Y-77832116D01*
X117311414Y-77685414D01*
X117477541Y-77549078D01*
X117477542Y-77549077D01*
X117477545Y-77549075D01*
X117667070Y-77447772D01*
X117872729Y-77385386D01*
X118033009Y-77369600D01*
X119660191Y-77369600D01*
X119820471Y-77385386D01*
X119820471Y-77385386D01*
G37*
G36*
X146675987Y-77477124D02*
G01*
X146694730Y-77482810D01*
X146711997Y-77492039D01*
X146727136Y-77504464D01*
X146739561Y-77519603D01*
X146748790Y-77536870D01*
X146754476Y-77555613D01*
X146757000Y-77581240D01*
X146757000Y-78919960D01*
X146754476Y-78945587D01*
X146748790Y-78964330D01*
X146739561Y-78981597D01*
X146727136Y-78996736D01*
X146711997Y-79009161D01*
X146694730Y-79018390D01*
X146675987Y-79024076D01*
X146650360Y-79026600D01*
X146211640Y-79026600D01*
X146186013Y-79024076D01*
X146167270Y-79018390D01*
X146150003Y-79009161D01*
X146134864Y-78996736D01*
X146122439Y-78981597D01*
X146113210Y-78964330D01*
X146107524Y-78945587D01*
X146105000Y-78919960D01*
X146105000Y-77581240D01*
X146107524Y-77555613D01*
X146113210Y-77536870D01*
X146122439Y-77519603D01*
X146134864Y-77504464D01*
X146150003Y-77492039D01*
X146167270Y-77482810D01*
X146186013Y-77477124D01*
X146211640Y-77474600D01*
X146650360Y-77474600D01*
X146675987Y-77477124D01*
X146675987Y-77477124D01*
G37*
G36*
X144135987Y-77477124D02*
G01*
X144154730Y-77482810D01*
X144171997Y-77492039D01*
X144187136Y-77504464D01*
X144199561Y-77519603D01*
X144208790Y-77536870D01*
X144214476Y-77555613D01*
X144217000Y-77581240D01*
X144217000Y-78919960D01*
X144214476Y-78945587D01*
X144208790Y-78964330D01*
X144199561Y-78981597D01*
X144187136Y-78996736D01*
X144171997Y-79009161D01*
X144154730Y-79018390D01*
X144135987Y-79024076D01*
X144110360Y-79026600D01*
X143671640Y-79026600D01*
X143646013Y-79024076D01*
X143627270Y-79018390D01*
X143610003Y-79009161D01*
X143594864Y-78996736D01*
X143582439Y-78981597D01*
X143573210Y-78964330D01*
X143567524Y-78945587D01*
X143565000Y-78919960D01*
X143565000Y-77581240D01*
X143567524Y-77555613D01*
X143573210Y-77536870D01*
X143582439Y-77519603D01*
X143594864Y-77504464D01*
X143610003Y-77492039D01*
X143627270Y-77482810D01*
X143646013Y-77477124D01*
X143671640Y-77474600D01*
X144110360Y-77474600D01*
X144135987Y-77477124D01*
X144135987Y-77477124D01*
G37*
G36*
X181258125Y-76498560D02*
G01*
X181258128Y-76498561D01*
X181258129Y-76498561D01*
X181437393Y-76552940D01*
X181437396Y-76552942D01*
X181437397Y-76552942D01*
X181602603Y-76641246D01*
X181747412Y-76760088D01*
X181866254Y-76904897D01*
X181954558Y-77070103D01*
X181954560Y-77070107D01*
X182001638Y-77225303D01*
X182008940Y-77249375D01*
X182027301Y-77435800D01*
X182008940Y-77622225D01*
X182008939Y-77622228D01*
X182008939Y-77622229D01*
X181954560Y-77801493D01*
X181954558Y-77801496D01*
X181954558Y-77801497D01*
X181866254Y-77966703D01*
X181747412Y-78111512D01*
X181602603Y-78230354D01*
X181437397Y-78318658D01*
X181437393Y-78318660D01*
X181258129Y-78373039D01*
X181258128Y-78373039D01*
X181258125Y-78373040D01*
X181118418Y-78386800D01*
X178824982Y-78386800D01*
X178685275Y-78373040D01*
X178685272Y-78373039D01*
X178685271Y-78373039D01*
X178506007Y-78318660D01*
X178506003Y-78318658D01*
X178340797Y-78230354D01*
X178195988Y-78111512D01*
X178077146Y-77966703D01*
X177988842Y-77801497D01*
X177988842Y-77801496D01*
X177988840Y-77801493D01*
X177934461Y-77622229D01*
X177934461Y-77622228D01*
X177934460Y-77622225D01*
X177916099Y-77435800D01*
X177934460Y-77249375D01*
X177941762Y-77225303D01*
X177988840Y-77070107D01*
X177988842Y-77070103D01*
X178077146Y-76904897D01*
X178195988Y-76760088D01*
X178340797Y-76641246D01*
X178506003Y-76552942D01*
X178506004Y-76552942D01*
X178506007Y-76552940D01*
X178685271Y-76498561D01*
X178685272Y-76498561D01*
X178685275Y-76498560D01*
X178824982Y-76484800D01*
X181118418Y-76484800D01*
X181258125Y-76498560D01*
X181258125Y-76498560D01*
G37*
G36*
X168558125Y-76498560D02*
G01*
X168558128Y-76498561D01*
X168558129Y-76498561D01*
X168737393Y-76552940D01*
X168737396Y-76552942D01*
X168737397Y-76552942D01*
X168902603Y-76641246D01*
X169047412Y-76760088D01*
X169166254Y-76904897D01*
X169254558Y-77070103D01*
X169254560Y-77070107D01*
X169301638Y-77225303D01*
X169308940Y-77249375D01*
X169327301Y-77435800D01*
X169308940Y-77622225D01*
X169308939Y-77622228D01*
X169308939Y-77622229D01*
X169254560Y-77801493D01*
X169254558Y-77801496D01*
X169254558Y-77801497D01*
X169166254Y-77966703D01*
X169047412Y-78111512D01*
X168902603Y-78230354D01*
X168737397Y-78318658D01*
X168737393Y-78318660D01*
X168558129Y-78373039D01*
X168558128Y-78373039D01*
X168558125Y-78373040D01*
X168418418Y-78386800D01*
X166124982Y-78386800D01*
X165985275Y-78373040D01*
X165985272Y-78373039D01*
X165985271Y-78373039D01*
X165806007Y-78318660D01*
X165806003Y-78318658D01*
X165640797Y-78230354D01*
X165495988Y-78111512D01*
X165377146Y-77966703D01*
X165288842Y-77801497D01*
X165288842Y-77801496D01*
X165288840Y-77801493D01*
X165234461Y-77622229D01*
X165234461Y-77622228D01*
X165234460Y-77622225D01*
X165216099Y-77435800D01*
X165234460Y-77249375D01*
X165241762Y-77225303D01*
X165288840Y-77070107D01*
X165288842Y-77070103D01*
X165377146Y-76904897D01*
X165495988Y-76760088D01*
X165640797Y-76641246D01*
X165806003Y-76552942D01*
X165806004Y-76552942D01*
X165806007Y-76552940D01*
X165985271Y-76498561D01*
X165985272Y-76498561D01*
X165985275Y-76498560D01*
X166124982Y-76484800D01*
X168418418Y-76484800D01*
X168558125Y-76498560D01*
X168558125Y-76498560D01*
G37*
G36*
X155858125Y-76498560D02*
G01*
X155858128Y-76498561D01*
X155858129Y-76498561D01*
X156037393Y-76552940D01*
X156037396Y-76552942D01*
X156037397Y-76552942D01*
X156202603Y-76641246D01*
X156347412Y-76760088D01*
X156466254Y-76904897D01*
X156554558Y-77070103D01*
X156554560Y-77070107D01*
X156601638Y-77225303D01*
X156608940Y-77249375D01*
X156627301Y-77435800D01*
X156608940Y-77622225D01*
X156608939Y-77622228D01*
X156608939Y-77622229D01*
X156554560Y-77801493D01*
X156554558Y-77801496D01*
X156554558Y-77801497D01*
X156466254Y-77966703D01*
X156347412Y-78111512D01*
X156202603Y-78230354D01*
X156037397Y-78318658D01*
X156037393Y-78318660D01*
X155858129Y-78373039D01*
X155858128Y-78373039D01*
X155858125Y-78373040D01*
X155718418Y-78386800D01*
X153424982Y-78386800D01*
X153285275Y-78373040D01*
X153285272Y-78373039D01*
X153285271Y-78373039D01*
X153106007Y-78318660D01*
X153106003Y-78318658D01*
X152940797Y-78230354D01*
X152795988Y-78111512D01*
X152677146Y-77966703D01*
X152588842Y-77801497D01*
X152588842Y-77801496D01*
X152588840Y-77801493D01*
X152534461Y-77622229D01*
X152534461Y-77622228D01*
X152534460Y-77622225D01*
X152516099Y-77435800D01*
X152534460Y-77249375D01*
X152541762Y-77225303D01*
X152588840Y-77070107D01*
X152588842Y-77070103D01*
X152677146Y-76904897D01*
X152795988Y-76760088D01*
X152940797Y-76641246D01*
X153106003Y-76552942D01*
X153106004Y-76552942D01*
X153106007Y-76552940D01*
X153285271Y-76498561D01*
X153285272Y-76498561D01*
X153285275Y-76498560D01*
X153424982Y-76484800D01*
X155718418Y-76484800D01*
X155858125Y-76498560D01*
X155858125Y-76498560D01*
G37*
G36*
X129015903Y-75657475D02*
G01*
X129243571Y-75751778D01*
X129448466Y-75888685D01*
X129622715Y-76062934D01*
X129743667Y-76243951D01*
X129759623Y-76267831D01*
X129853925Y-76495497D01*
X129902000Y-76737186D01*
X129902000Y-76983614D01*
X129853925Y-77225303D01*
X129761776Y-77447772D01*
X129759622Y-77452971D01*
X129622715Y-77657866D01*
X129448466Y-77832115D01*
X129243571Y-77969022D01*
X129243570Y-77969023D01*
X129243569Y-77969023D01*
X129015903Y-78063325D01*
X128774214Y-78111400D01*
X128527786Y-78111400D01*
X128286097Y-78063325D01*
X128058431Y-77969023D01*
X128058430Y-77969023D01*
X128058429Y-77969022D01*
X127853534Y-77832115D01*
X127679285Y-77657866D01*
X127542378Y-77452971D01*
X127540225Y-77447772D01*
X127448075Y-77225303D01*
X127400000Y-76983614D01*
X127400000Y-76737186D01*
X127448075Y-76495497D01*
X127542377Y-76267831D01*
X127558333Y-76243951D01*
X127679285Y-76062934D01*
X127853534Y-75888685D01*
X128058429Y-75751778D01*
X128286097Y-75657475D01*
X128527786Y-75609400D01*
X128774214Y-75609400D01*
X129015903Y-75657475D01*
X129015903Y-75657475D01*
G37*
G36*
X138934900Y-74366801D02*
G01*
X138937302Y-74391187D01*
X138944415Y-74414636D01*
X138955966Y-74436247D01*
X138971511Y-74455189D01*
X138990453Y-74470734D01*
X138992507Y-74471832D01*
X138955894Y-74526751D01*
X138944365Y-74548374D01*
X138937276Y-74571830D01*
X138934900Y-74596088D01*
X138934900Y-74621851D01*
X138913590Y-74628315D01*
X138891979Y-74639866D01*
X138873037Y-74655411D01*
X138857420Y-74674462D01*
X138618752Y-75032464D01*
X138612407Y-75044365D01*
X138603896Y-75054747D01*
X138455894Y-75276750D01*
X138444365Y-75298373D01*
X138437276Y-75321829D01*
X138434900Y-75346087D01*
X138434900Y-77828800D01*
X137332900Y-77828800D01*
X137332900Y-75346087D01*
X137330498Y-75321701D01*
X137323385Y-75298252D01*
X137311906Y-75276750D01*
X137163904Y-75054747D01*
X137155400Y-75044363D01*
X137149048Y-75032464D01*
X136910380Y-74674462D01*
X136894855Y-74655504D01*
X136875929Y-74639939D01*
X136854331Y-74628365D01*
X136832900Y-74621839D01*
X136832900Y-74596088D01*
X136830498Y-74571702D01*
X136823385Y-74548253D01*
X136811906Y-74526751D01*
X136775293Y-74471832D01*
X136777347Y-74470734D01*
X136796289Y-74455189D01*
X136811834Y-74436247D01*
X136823385Y-74414636D01*
X136830498Y-74391187D01*
X136832900Y-74366801D01*
X136832900Y-70516800D01*
X138934900Y-70516800D01*
X138934900Y-74366801D01*
X138934900Y-74366801D01*
G37*
G36*
X139934900Y-77828800D02*
G01*
X138832900Y-77828800D01*
X138832900Y-75226800D01*
X139934900Y-75226800D01*
X139934900Y-77828800D01*
X139934900Y-77828800D01*
G37*
G36*
X136934900Y-77828800D02*
G01*
X135832900Y-77828800D01*
X135832900Y-75226800D01*
X136934900Y-75226800D01*
X136934900Y-77828800D01*
X136934900Y-77828800D01*
G37*
G36*
X133115140Y-74778119D02*
G01*
X133261681Y-74807268D01*
X133443851Y-74882726D01*
X133607800Y-74992273D01*
X133747227Y-75131700D01*
X133856774Y-75295649D01*
X133932232Y-75477819D01*
X133970700Y-75671210D01*
X133970700Y-75868390D01*
X133932232Y-76061781D01*
X133856774Y-76243951D01*
X133747227Y-76407900D01*
X133607800Y-76547327D01*
X133443851Y-76656874D01*
X133261681Y-76732332D01*
X133237278Y-76737186D01*
X133068291Y-76770800D01*
X132871109Y-76770800D01*
X132702122Y-76737186D01*
X132677719Y-76732332D01*
X132495549Y-76656874D01*
X132331600Y-76547327D01*
X132192173Y-76407900D01*
X132082626Y-76243951D01*
X132007168Y-76061781D01*
X131968700Y-75868390D01*
X131968700Y-75671210D01*
X132007168Y-75477819D01*
X132082626Y-75295649D01*
X132192173Y-75131700D01*
X132331600Y-74992273D01*
X132495549Y-74882726D01*
X132677719Y-74807268D01*
X132824260Y-74778119D01*
X132871109Y-74768800D01*
X133068291Y-74768800D01*
X133115140Y-74778119D01*
X133115140Y-74778119D01*
G37*
G36*
X145115140Y-74778119D02*
G01*
X145261681Y-74807268D01*
X145443851Y-74882726D01*
X145607800Y-74992273D01*
X145747227Y-75131700D01*
X145856774Y-75295649D01*
X145932232Y-75477819D01*
X145970700Y-75671210D01*
X145970700Y-75868390D01*
X145932232Y-76061781D01*
X145856774Y-76243951D01*
X145747227Y-76407900D01*
X145607800Y-76547327D01*
X145443851Y-76656874D01*
X145261681Y-76732332D01*
X145237278Y-76737186D01*
X145068291Y-76770800D01*
X144871109Y-76770800D01*
X144702122Y-76737186D01*
X144677719Y-76732332D01*
X144495549Y-76656874D01*
X144331600Y-76547327D01*
X144192173Y-76407900D01*
X144082626Y-76243951D01*
X144007168Y-76061781D01*
X143968700Y-75868390D01*
X143968700Y-75671210D01*
X144007168Y-75477819D01*
X144082626Y-75295649D01*
X144192173Y-75131700D01*
X144331600Y-74992273D01*
X144495549Y-74882726D01*
X144677719Y-74807268D01*
X144824260Y-74778119D01*
X144871109Y-74768800D01*
X145068291Y-74768800D01*
X145115140Y-74778119D01*
X145115140Y-74778119D01*
G37*
G36*
X143091762Y-73259481D02*
G01*
X143126681Y-73270074D01*
X143158863Y-73287276D01*
X143187073Y-73310427D01*
X143210224Y-73338637D01*
X143227426Y-73370819D01*
X143238019Y-73405738D01*
X143242200Y-73448195D01*
X143242200Y-74589405D01*
X143238019Y-74631862D01*
X143227426Y-74666781D01*
X143210224Y-74698963D01*
X143187073Y-74727173D01*
X143158863Y-74750324D01*
X143126681Y-74767526D01*
X143091762Y-74778119D01*
X143049305Y-74782300D01*
X141583095Y-74782300D01*
X141540638Y-74778119D01*
X141505719Y-74767526D01*
X141473537Y-74750324D01*
X141445327Y-74727173D01*
X141422176Y-74698963D01*
X141404974Y-74666781D01*
X141394381Y-74631862D01*
X141390200Y-74589405D01*
X141390200Y-73448195D01*
X141394381Y-73405738D01*
X141404974Y-73370819D01*
X141422176Y-73338637D01*
X141445327Y-73310427D01*
X141473537Y-73287276D01*
X141505719Y-73270074D01*
X141540638Y-73259481D01*
X141583095Y-73255300D01*
X143049305Y-73255300D01*
X143091762Y-73259481D01*
X143091762Y-73259481D01*
G37*
G36*
X149162362Y-73170581D02*
G01*
X149197281Y-73181174D01*
X149229463Y-73198376D01*
X149257673Y-73221527D01*
X149280824Y-73249737D01*
X149298026Y-73281919D01*
X149308619Y-73316838D01*
X149312800Y-73359295D01*
X149312800Y-74500505D01*
X149308619Y-74542962D01*
X149298026Y-74577881D01*
X149280824Y-74610063D01*
X149257673Y-74638273D01*
X149229463Y-74661424D01*
X149197281Y-74678626D01*
X149162362Y-74689219D01*
X149119905Y-74693400D01*
X147653695Y-74693400D01*
X147611238Y-74689219D01*
X147576319Y-74678626D01*
X147544137Y-74661424D01*
X147515927Y-74638273D01*
X147492776Y-74610063D01*
X147475574Y-74577881D01*
X147464981Y-74542962D01*
X147460800Y-74500505D01*
X147460800Y-73359295D01*
X147464981Y-73316838D01*
X147475574Y-73281919D01*
X147492776Y-73249737D01*
X147515927Y-73221527D01*
X147544137Y-73198376D01*
X147576319Y-73181174D01*
X147611238Y-73170581D01*
X147653695Y-73166400D01*
X149119905Y-73166400D01*
X149162362Y-73170581D01*
X149162362Y-73170581D01*
G37*
G36*
X120562817Y-72293408D02*
G01*
X120594089Y-72302894D01*
X120622908Y-72318298D01*
X120648170Y-72339030D01*
X120668902Y-72364292D01*
X120684306Y-72393111D01*
X120693792Y-72424383D01*
X120697600Y-72463048D01*
X120697600Y-74298152D01*
X120693792Y-74336817D01*
X120684306Y-74368089D01*
X120668902Y-74396908D01*
X120648170Y-74422170D01*
X120622908Y-74442902D01*
X120594089Y-74458306D01*
X120562817Y-74467792D01*
X120524152Y-74471600D01*
X117169048Y-74471600D01*
X117130383Y-74467792D01*
X117099111Y-74458306D01*
X117070292Y-74442902D01*
X117045030Y-74422170D01*
X117024298Y-74396908D01*
X117008894Y-74368089D01*
X116999408Y-74336817D01*
X116995600Y-74298152D01*
X116995600Y-72463048D01*
X116999408Y-72424383D01*
X117008894Y-72393111D01*
X117024298Y-72364292D01*
X117045030Y-72339030D01*
X117070292Y-72318298D01*
X117099111Y-72302894D01*
X117130383Y-72293408D01*
X117169048Y-72289600D01*
X120524152Y-72289600D01*
X120562817Y-72293408D01*
X120562817Y-72293408D01*
G37*
G36*
X145911162Y-72773681D02*
G01*
X145946081Y-72784274D01*
X145978263Y-72801476D01*
X146006473Y-72824627D01*
X146029624Y-72852837D01*
X146046826Y-72885019D01*
X146057419Y-72919938D01*
X146061600Y-72962395D01*
X146061600Y-74103605D01*
X146057419Y-74146062D01*
X146046826Y-74180981D01*
X146029624Y-74213163D01*
X146006473Y-74241373D01*
X145978263Y-74264524D01*
X145946081Y-74281726D01*
X145911162Y-74292319D01*
X145868705Y-74296500D01*
X144402495Y-74296500D01*
X144360038Y-74292319D01*
X144325119Y-74281726D01*
X144292937Y-74264524D01*
X144264727Y-74241373D01*
X144241576Y-74213163D01*
X144224374Y-74180981D01*
X144213781Y-74146062D01*
X144209600Y-74103605D01*
X144209600Y-72962395D01*
X144213781Y-72919938D01*
X144224374Y-72885019D01*
X144241576Y-72852837D01*
X144264727Y-72824627D01*
X144292937Y-72801476D01*
X144325119Y-72784274D01*
X144360038Y-72773681D01*
X144402495Y-72769500D01*
X145868705Y-72769500D01*
X145911162Y-72773681D01*
X145911162Y-72773681D01*
G37*
G36*
X128896239Y-70547501D02*
G01*
X129132053Y-70619034D01*
X129349381Y-70735199D01*
X129539871Y-70891529D01*
X129696201Y-71082019D01*
X129812366Y-71299347D01*
X129883899Y-71535161D01*
X129908053Y-71780400D01*
X129883899Y-72025639D01*
X129812366Y-72261453D01*
X129696201Y-72478781D01*
X129539871Y-72669271D01*
X129349381Y-72825601D01*
X129132053Y-72941766D01*
X128896239Y-73013299D01*
X128712457Y-73031400D01*
X128589543Y-73031400D01*
X128405761Y-73013299D01*
X128169947Y-72941766D01*
X127952619Y-72825601D01*
X127762129Y-72669271D01*
X127605799Y-72478781D01*
X127489634Y-72261453D01*
X127418101Y-72025639D01*
X127393947Y-71780400D01*
X127418101Y-71535161D01*
X127489634Y-71299347D01*
X127605799Y-71082019D01*
X127762129Y-70891529D01*
X127952619Y-70735199D01*
X128169947Y-70619034D01*
X128405761Y-70547501D01*
X128589543Y-70529400D01*
X128712457Y-70529400D01*
X128896239Y-70547501D01*
X128896239Y-70547501D01*
G37*
G36*
X143091762Y-70284481D02*
G01*
X143126681Y-70295074D01*
X143158863Y-70312276D01*
X143187073Y-70335427D01*
X143210224Y-70363637D01*
X143227426Y-70395819D01*
X143238019Y-70430738D01*
X143242200Y-70473195D01*
X143242200Y-71614405D01*
X143238019Y-71656862D01*
X143227426Y-71691781D01*
X143210224Y-71723963D01*
X143187073Y-71752173D01*
X143158863Y-71775324D01*
X143126681Y-71792526D01*
X143091762Y-71803119D01*
X143049305Y-71807300D01*
X141583095Y-71807300D01*
X141540638Y-71803119D01*
X141505719Y-71792526D01*
X141473537Y-71775324D01*
X141445327Y-71752173D01*
X141422176Y-71723963D01*
X141404974Y-71691781D01*
X141394381Y-71656862D01*
X141390200Y-71614405D01*
X141390200Y-70473195D01*
X141394381Y-70430738D01*
X141404974Y-70395819D01*
X141422176Y-70363637D01*
X141445327Y-70335427D01*
X141473537Y-70312276D01*
X141505719Y-70295074D01*
X141540638Y-70284481D01*
X141583095Y-70280300D01*
X143049305Y-70280300D01*
X143091762Y-70284481D01*
X143091762Y-70284481D01*
G37*
G36*
X149162362Y-70195581D02*
G01*
X149197281Y-70206174D01*
X149229463Y-70223376D01*
X149257673Y-70246527D01*
X149280824Y-70274737D01*
X149298026Y-70306919D01*
X149308619Y-70341838D01*
X149312800Y-70384295D01*
X149312800Y-71525505D01*
X149308619Y-71567962D01*
X149298026Y-71602881D01*
X149280824Y-71635063D01*
X149257673Y-71663273D01*
X149229463Y-71686424D01*
X149197281Y-71703626D01*
X149162362Y-71714219D01*
X149119905Y-71718400D01*
X147653695Y-71718400D01*
X147611238Y-71714219D01*
X147576319Y-71703626D01*
X147544137Y-71686424D01*
X147515927Y-71663273D01*
X147492776Y-71635063D01*
X147475574Y-71602881D01*
X147464981Y-71567962D01*
X147460800Y-71525505D01*
X147460800Y-70384295D01*
X147464981Y-70341838D01*
X147475574Y-70306919D01*
X147492776Y-70274737D01*
X147515927Y-70246527D01*
X147544137Y-70223376D01*
X147576319Y-70206174D01*
X147611238Y-70195581D01*
X147653695Y-70191400D01*
X149119905Y-70191400D01*
X149162362Y-70195581D01*
X149162362Y-70195581D01*
G37*
G36*
X145911162Y-69798681D02*
G01*
X145946081Y-69809274D01*
X145978263Y-69826476D01*
X146006473Y-69849627D01*
X146029624Y-69877837D01*
X146046826Y-69910019D01*
X146057419Y-69944938D01*
X146061600Y-69987395D01*
X146061600Y-71128605D01*
X146057419Y-71171062D01*
X146046826Y-71205981D01*
X146029624Y-71238163D01*
X146006473Y-71266373D01*
X145978263Y-71289524D01*
X145946081Y-71306726D01*
X145911162Y-71317319D01*
X145868705Y-71321500D01*
X144402495Y-71321500D01*
X144360038Y-71317319D01*
X144325119Y-71306726D01*
X144292937Y-71289524D01*
X144264727Y-71266373D01*
X144241576Y-71238163D01*
X144224374Y-71205981D01*
X144213781Y-71171062D01*
X144209600Y-71128605D01*
X144209600Y-69987395D01*
X144213781Y-69944938D01*
X144224374Y-69910019D01*
X144241576Y-69877837D01*
X144264727Y-69849627D01*
X144292937Y-69826476D01*
X144325119Y-69809274D01*
X144360038Y-69798681D01*
X144402495Y-69794500D01*
X145868705Y-69794500D01*
X145911162Y-69798681D01*
X145911162Y-69798681D01*
G37*
M02*
